<?xml version="1.0" standalone="no"?>
<!DOCTYPE svg PUBLIC "-//W3C//DTD SVG 1.1//EN" "http://www.w3.org/Graphics/SVG/1.1/DTD/svg11.dtd" >
<svg xmlns="http://www.w3.org/2000/svg" xmlns:xlink="http://www.w3.org/1999/xlink" version="1.1">
<metadata>
Created by FontForge 20170731 at Thu Apr 22 23:55:54 2021
 By Aleksey,,,
Copyright 2011 The Bilbo Project Authors (https://github.com/googlefonts/bilbo)
</metadata>
<defs>
<font id="Bilbo-Regular" horiz-adv-x="0" >
  <font-face 
    font-family="Bilbo"
    font-weight="400"
    font-stretch="normal"
    units-per-em="1000"
    panose-1="0 0 0 0 0 0 0 0 0 0"
    ascent="800"
    descent="-200"
    x-height="374"
    cap-height="671"
    bbox="-556 -627 1257 1024"
    underline-thickness="50"
    underline-position="-175"
    unicode-range="U+0020-FB02"
  />
<missing-glyph horiz-adv-x="349" 
d="M10 0v650h329v-650h-329zM172 374l93 210h-186zM281 127v410l-90 -207zM64 129l89 201l-89 204v-405zM75 64h194l-97 223z" />
    <glyph glyph-name="fi" unicode="fi" horiz-adv-x="402" 
d="M-103 -207q-35 0 -51.5 13t-21 32t-4.5 35q0 29 8.5 52.5t15.5 23.5q4 0 5 -6q-1 -7 -1.5 -14t-0.5 -14q0 -47 18.5 -74.5t43.5 -27.5q23 0 48 24.5t47 78.5q13 32 29.5 80.5t33 102.5t31.5 103.5t25.5 85.5t13.5 47h-65q-24 0 -24 9q0 7 13 15t20 8h64q3 9 10.5 33.5
t17 54.5t18.5 56t13 38q21 58 59.5 85t99.5 27q39 0 61.5 -18.5t32.5 -44t10 -47.5q0 -26 -9.5 -40t-22 -19.5t-21.5 -5.5q-6 0 -12.5 4.5t-6.5 15.5q0 13 8 28.5t15.5 27.5t7.5 16q0 11 -11 25.5t-28 25.5t-35 11q-33 0 -53 -15.5t-31.5 -37.5t-19.5 -42q-12 -31 -23 -65.5
t-20 -64.5t-15 -49q11 0 24.5 -1t27.5 -1q17 0 34.5 4.5t23.5 4.5q4 0 4 -2q0 -15 -21.5 -22t-50 -8.5t-50.5 -1.5q-3 -7 -11.5 -36.5t-20.5 -71.5t-25.5 -88t-26.5 -88t-22 -71q-24 -76 -55.5 -117.5t-64 -57.5t-59.5 -16zM266 -6q-19 0 -19 18q0 9 4 21q22 63 36 103.5
t22 64t11 36t3 20.5q0 5 -1.5 7t-1.5 6t3 13q21 61 38 83t51 22q14 0 15 -9q-10 -19 -32.5 -62t-47.5 -106.5t-44 -145.5q-1 -3 -1 -8q0 -12 10 -12q6 0 19 7.5t27 15t21 7.5t8 -4q0 -6 -15 -18.5t-36 -26t-40.5 -23t-29.5 -9.5z" />
    <glyph glyph-name="fl" unicode="fl" horiz-adv-x="426" 
d="M-103 -207q-35 0 -51.5 13t-21 32t-4.5 35q0 29 8.5 52.5t15.5 23.5q4 0 5 -6q-1 -7 -1.5 -14t-0.5 -14q0 -47 18.5 -74.5t43.5 -27.5q23 0 48 24.5t47 78.5q13 32 29.5 80.5t33 102.5t31.5 103.5t25.5 85.5t13.5 47h-65q-24 0 -24 9q0 7 13 15t20 8h64q3 9 11 37.5
t19 63.5t20.5 65t15.5 42q16 34 31.5 52.5t39.5 26t62 7.5q27 0 57 -3.5t57 -8.5t44 -12q14 -6 14 -13q0 -5 -7 -12q-27 -57 -54.5 -126.5t-53.5 -144t-47 -145.5t-35 -131q-1 -3 -1 -8q0 -12 10 -12q7 0 20 7.5l26 15t20 7.5q6 0 9 -4q0 -6 -14.5 -18.5t-35.5 -26
t-40.5 -23t-30.5 -9.5q-19 0 -19 18q0 10 4 21q53 147 97.5 289t83.5 281q-11 14 -42.5 25.5t-75.5 11.5q-19 0 -38 -13t-31 -43q-18 -46 -37 -102.5t-34 -115.5q11 0 24.5 -1t27.5 -1q17 0 34.5 4.5t23.5 4.5q4 0 4 -2q0 -15 -21.5 -22t-50 -8.5t-50.5 -1.5
q-3 -7 -11.5 -36.5t-20.5 -71.5t-25.5 -88t-26.5 -88t-22 -71q-24 -76 -55.5 -117.5t-64 -57.5t-59.5 -16z" />
    <glyph glyph-name=".notdef" horiz-adv-x="349" 
d="M10 0v650h329v-650h-329zM172 374l93 210h-186zM281 127v410l-90 -207zM64 129l89 201l-89 204v-405zM75 64h194l-97 223z" />
    <glyph glyph-name=".null" 
 />
    <glyph glyph-name="nonmarkingreturn" horiz-adv-x="333" 
 />
    <glyph glyph-name="space" unicode=" " horiz-adv-x="200" 
 />
    <glyph glyph-name="exclam" unicode="!" horiz-adv-x="202" 
d="M164 179q-12 0 -12 19t10.5 52.5t26.5 73.5t34 79.5t33 73t23 52.5q3 9 11.5 26l18 36t16.5 33.5t7 18.5q0 2 -8 2.5t-10 9.5q1 7 17 11.5t33 4.5q12 0 21.5 -3t9.5 -11q0 -3 -2 -7q-5 -6 -21.5 -35.5t-39 -72.5t-46.5 -92t-44.5 -95t-33.5 -81.5t-13 -51.5
q0 -7 3.5 -10.5t3.5 -8.5q0 -10 -13.5 -17t-24.5 -7zM98 -17q-16 0 -19 14t-3 27q0 14 11.5 25.5t25.5 19t23 7.5q5 0 7 -2l1 -2q-7 -34 -11 -51.5t-11 -25.5t-24 -12z" />
    <glyph glyph-name="quotedbl" unicode="&#x22;" horiz-adv-x="406" 
d="M224 404q-4 0 -4 4v1l1 1q12 12 29 31.5t33 41t27 41.5t11 33q0 8 -4 12v1q-9 9 -9 22q0 20 15 32l2 1l7 5.5t17 11t18 5.5q10 0 14 -8q7 -22 7 -33q0 -10 -3.5 -13.5t-5.5 -11.5v-1q-14 -42 -36.5 -74.5t-46.5 -55.5t-43.5 -34.5t-28.5 -11.5zM94 396q-5 0 -5 5h1
q12 12 29 31.5t33.5 41.5t27.5 42t11 33q0 8 -4 12l-1 1q-9 9 -9 22q0 19 16 32l1 1v-1l7 6t17 11.5t19 5.5q10 0 14 -8q7 -22 7 -33q0 -10 -4 -13.5t-6 -11.5l1 -1q-14 -42 -36.5 -74.5t-46.5 -55.5t-43.5 -34.5t-28.5 -11.5z" />
    <glyph glyph-name="numbersign" unicode="#" horiz-adv-x="672" 
d="M125 32q-7 0 -9 5t-2 12q0 31 18 66.5t29 64.5h-89q-32 0 -55.5 4.5t-23.5 15.5q0 8 10.5 12t21 5.5l10.5 1.5h141q14 38 27.5 74.5t26.5 73.5l-84 -1q-32 -1 -55.5 4.5t-23.5 16.5q0 8 10.5 11.5t21 5l10.5 1.5h66.5t67.5 -1q7 18 15.5 43t17 49t16 39.5t12.5 15.5t6 -7
t1 -12q0 -19 -4 -46t-9 -41l-16 -42q41 0 81.5 -0.5t81.5 -0.5q7 18 16.5 42.5t19.5 48.5t19 40t14 17q8 0 8 -18t-5 -45.5t-10 -41.5l-16 -42q36 0 73.5 1.5t73.5 1.5q19 0 22 -4q1 -1 1 -3q0 -6 -20 -13.5t-44.5 -12.5t-38.5 -5h-81q-12 -32 -26.5 -71t-28.5 -77h122
q43 0 43 -9q0 -7 -20 -14t-44.5 -11t-38.5 -4l-77 -1q-24 -64 -39.5 -106.5t-33.5 -42.5q-11 0 -11 18q0 32 16 67.5t26 63.5l-167 -1q-25 -64 -40 -106t-33 -42zM213 219h166q13 38 26 75l26 74l-163 -1q-12 -32 -26.5 -71t-28.5 -77z" />
    <glyph glyph-name="dollar" unicode="$" horiz-adv-x="572" 
d="M139 -187q-10 0 -14.5 14t-4.5 33q0 26 7 59.5t18 73.5q-7 -1 -14 -1h-14q-46 1 -61 16t-15 31l0.5 10.5t6 21t21.5 10.5q3 0 3.5 -11t4.5 -21q10 -20 28.5 -26.5t46.5 -6.5q16 53 37 112.5t44 120.5q-29 11 -56.5 24t-45 33.5t-17.5 52.5q0 42 31 76.5t81.5 57.5
t106.5 29q19 49 29 73.5t17 33t14 8.5q2 0 3 -0.5t2 -0.5q2 -1 3.5 -3.5t1.5 -7.5q0 -8 -7 -25.5t-16 -37.5t-16 -38h9q46 0 59.5 -21t13.5 -46q0 -2 -2 -14t-8 -23t-18 -11q-5 0 -5 5t2 13t2 17q0 29 -19.5 39.5t-45.5 11.5q-19 -50 -41 -107t-43 -115q30 -11 58 -23.5
t46 -29.5t18 -44q0 -37 -29.5 -75.5t-78.5 -67t-108 -37.5q-13 -44 -20.5 -76.5t-7.5 -50.5q0 -21 8.5 -26t8.5 -6q0 -15 -12.5 -19.5t-11.5 -4.5zM245 282q1 3 2.5 6t2.5 7l73 199q-25 -2 -54.5 -11t-55.5 -24.5t-43 -36.5t-17 -47q0 -37 27.5 -58t64.5 -35zM180 17
q33 3 66.5 17.5t59 38t34.5 51.5q3 8 4 16t1 15q0 35 -27 53.5t-62 31.5q-22 -60 -41.5 -117t-34.5 -106z" />
    <glyph glyph-name="percent" unicode="%" horiz-adv-x="596" 
d="M113 -98q-15 0 -15 24q0 21 7.5 47.5t11.5 36.5q8 21 33 62t61.5 94t78.5 110.5t84 113t79 101.5t62 74q-26 -12 -64 -25.5t-76 -22.5t-65 -10q0 -1 0.5 -2t0.5 -3q0 -12 -11.5 -34t-30 -48t-41.5 -49t-46 -38t-43 -15h-13q-16 0 -26 11t-14.5 25t-4.5 23q0 20 14 49.5
t36.5 61.5t48.5 60.5t51 46t44 17.5q25 0 34.5 -13.5t9.5 -33.5q0 -7 -1 -14t-3 -15q2 -2 8 -2q29 0 66.5 10t74 23.5t61.5 23.5t28 10q2 0 7 -1.5t9 -5.5t4 -9q0 -8 -8 -16q-36 -42 -82.5 -99.5t-96.5 -122.5t-97 -129.5t-84.5 -121t-60 -98t-22.5 -59.5q0 -11 5.5 -16.5
t5.5 -7.5q0 -5 -8.5 -9t-11.5 -4zM141 343q19 0 44.5 19.5t49.5 48t39.5 55t15.5 39.5q-7 4 -15 13.5t-13.5 17.5l-5.5 8q-14 0 -36.5 -19.5t-45 -48.5t-38 -58t-15.5 -47q0 -10 3.5 -19t16.5 -9zM296 -70q-16 0 -26 11t-14.5 25t-4.5 23q0 20 14 49.5t36.5 61.5t48.5 60.5
t51 46t44 17.5q25 0 34.5 -13.5t9.5 -32.5q0 -7 -1 -14.5t-3 -15.5q1 -2 8 -3q6 -1 6 -7q0 -4 -4 -9t-15 -9q0 -1 0.5 -2t0.5 -3q0 -12 -11.5 -34t-30 -48t-41.5 -49.5t-46 -38.5t-43 -15h-13zM311 -44q19 0 44.5 19.5t49.5 47.5t39.5 54.5t15.5 39.5q-7 5 -15 14t-13.5 17
l-5.5 8q-14 0 -36.5 -19.5t-45 -48.5t-38 -57.5t-15.5 -47.5q0 -10 3.5 -18.5t16.5 -8.5z" />
    <glyph glyph-name="ampersand" unicode="&#x26;" horiz-adv-x="862" 
d="M237 -31q-99 0 -147 37t-48 89q0 54 51 111t150 91q-129 11 -129 90q0 50 28 89.5t74.5 69t103 49t115 29t108.5 9.5q74 0 124.5 -22.5t50.5 -67.5q0 -37 -23.5 -66t-59 -48.5t-71.5 -30t-61 -10.5q-9 0 -9 6q0 9 13 9q21 0 46.5 11t48.5 29.5t38 41.5t15 48
q0 41 -35.5 60.5t-93.5 19.5q-39 0 -87.5 -9t-97 -27t-89 -45t-65.5 -63t-25 -82q0 -22 17.5 -35t44.5 -19t55 -6q29 0 54.5 7t38.5 7q18 0 18 -12q0 -8 -15 -18t-50 -13q-72 -19 -121 -51.5t-73.5 -70t-24.5 -73.5q0 -45 41 -77t123 -32q77 0 135.5 19t97.5 49t58.5 65
t19.5 67q0 35 -23 58.5t-69 23.5q-37 0 -66 -13t-29 -43q0 -7 3 -16.5t3 -17.5q0 -7 -7 -7t-17 10t-10 26q0 35 23.5 56t58 30t66.5 9q45 0 87.5 -11.5t84.5 -23.5t85 -12q15 0 24 4t15 4q7 0 7 -5q0 -14 -20.5 -21.5t-46.5 -7.5q-66 0 -106 13.5t-68 20.5q20 -9 35.5 -31.5
t15.5 -50.5q0 -35 -23.5 -68t-64 -60.5t-91.5 -48t-105.5 -32t-105.5 -11.5z" />
    <glyph glyph-name="quotesingle" unicode="'" horiz-adv-x="209" 
d="M141 329q-4 0 -4 4v2q12 12 29 31.5t33.5 41.5t27.5 42t11 33q0 7 -4 11l-1 1q-9 9 -9 22q0 19 16 32l2 1l7 5.5t17 11t18 5.5q10 0 14 -8q5 -9 6.5 -17t1.5 -15q0 -17 -10 -27q-14 -42 -36.5 -74.5t-46.5 -55.5t-43.5 -34.5t-28.5 -11.5z" />
    <glyph glyph-name="parenleft" unicode="(" horiz-adv-x="268" 
d="M96 -65q-37 0 -62.5 29t-38.5 78t-13 108q0 45 7.5 95t22.5 100q17 55 53.5 113.5t90.5 108t124 80.5t154 31h1q13 -3 13 -12q0 -10 -15 -22.5t-26 -12.5q-69 -1 -127.5 -29t-104.5 -72t-77.5 -94.5t-46.5 -96.5q-17 -51 -27.5 -108t-10.5 -109q0 -61 17.5 -106.5
t57.5 -55.5q13 -1 18.5 -5t5.5 -9q0 -11 -16 -11z" />
    <glyph glyph-name="parenright" unicode=")" horiz-adv-x="397" 
d="M-24 -56q-7 3 -7 11q0 9 7 20t17.5 19.5t19.5 8.5q43 0 87 29.5t86 77.5t78.5 106.5t64.5 116.5h1q19 39 32.5 86.5t13.5 91.5q0 37 -13 67.5t-43 49t-83 18.5h-8q-4 0 -13 6.5t-9 13.5q0 8 31 8q64 0 100 -24t51.5 -63.5t15.5 -86.5q0 -46 -11 -93.5t-28 -88.5
q-33 -78 -77.5 -146t-96.5 -119.5t-107 -80t-108 -28.5h-1z" />
    <glyph glyph-name="asterisk" unicode="*" horiz-adv-x="203" 
d="M104 508q-12 0 -16.5 8t-4.5 20q0 11 2.5 22t4.5 19q-10 -10 -24 -21t-28 -11q-5 0 -11 3.5t-6 12.5q0 10 10.5 17.5t25 12.5t24.5 7q-10 4 -24.5 10t-25 14t-10.5 18q0 8 5.5 11t10.5 3q14 0 29 -12.5t24 -23.5q-2 8 -4 19.5t-2 21.5q0 12 4 20.5t15 9.5
q11 -1 14.5 -9.5t3.5 -19.5q0 -10 -2.5 -21t-4.5 -20q11 11 26 24t27 13q6 0 10 -4q5 -5 5 -10q0 -9 -11.5 -17.5t-25.5 -15t-23 -10.5q10 -3 24 -8.5t24.5 -13t10.5 -18.5q0 -7 -5 -11t-11 -4q-12 0 -26 11.5t-24 21.5q2 -10 5 -21.5t3 -22.5q0 -10 -4 -17.5t-15 -7.5z" />
    <glyph glyph-name="plus" unicode="+" horiz-adv-x="379" 
d="M144 -13q-5 0 -5 15q0 8 1.5 16.5t2.5 10.5q10 30 18 58t13 47t4 20l-16 -0.5t-38 -1t-39 -0.5q-25 0 -26 2t-1 6q0 8 8 15t21 8l99 -2q5 17 12 40t15.5 45t18.5 37t22 15q7 0 8 -6q0 -7 -5.5 -29.5t-14 -50t-18.5 -52.5q8 0 35 1t53 1q16 0 28 -0.5t16 -2.5q8 -5 8 -8
q0 -6 -15.5 -8.5t-39 -3.5t-49 -2.5t-45.5 -4.5q-1 -6 -12 -41t-42 -99q-12 -25 -17 -25z" />
    <glyph glyph-name="comma" unicode="," horiz-adv-x="202" 
d="M5 -169q-4 0 -4 3v2q12 12 29 32t33.5 42t27.5 41.5t11 32.5q0 8 -4 12h-1q-9 11 -9 24q0 18 16 31l2 1l7 5.5t17 11t18 5.5q10 0 14 -8q7 -22 7 -33q0 -10 -4 -13.5t-6 -11.5q-14 -42 -36.5 -75t-46.5 -56t-43.5 -34.5t-27.5 -11.5z" />
    <glyph glyph-name="hyphen" unicode="-" horiz-adv-x="289" 
d="M38 121q-15 0 -15 13q0 16 12.5 24t25 11.5t11.5 3.5q7 0 7 -5q0 -6 -5 -11q20 -1 39.5 -2.5t44.5 -1.5h15.5t16.5 1l9.5 0.5t22 1t19.5 0.5q18 0 18 -6q0 -5 -19.5 -10.5t-50 -9.5t-63.5 -6.5t-59 -2.5q-5 0 -10 0.5t-10 0.5q-2 0 -4.5 -0.5t-4.5 -0.5z" />
    <glyph glyph-name="period" unicode="." horiz-adv-x="247" 
d="M130 -13q-12 0 -14.5 14.5t-2.5 24.5q0 13 12 24.5t26.5 19t21.5 7.5q2 0 4 -2q-10 -48 -16.5 -68t-30.5 -20z" />
    <glyph glyph-name="slash" unicode="/" horiz-adv-x="604" 
d="M44 -124q-12 0 -18 9t-6 23q0 32 22 83t59.5 113t84.5 129.5t97 134t98 126t87.5 105.5t64 72.5t28.5 26.5q3 0 9 -1.5t10 -6.5q2 -2 3.5 -4.5t1.5 -6.5q0 -8 -9 -19q-43 -49 -97.5 -116.5t-113.5 -144t-114.5 -152.5t-100 -143t-71 -115.5t-26.5 -68.5q0 -13 7 -19.5
t7 -9.5q0 -5 -9 -10t-14 -5z" />
    <glyph glyph-name="zero" unicode="0" horiz-adv-x="318" 
d="M100 -20q-29 0 -48 19t-19 66q0 26 7.5 66t22 83.5t36.5 81.5t51 62t66 24q38 0 54 -27.5t16 -74.5q0 -49 -13.5 -101.5t-38.5 -97.5t-59 -73t-75 -28zM112 12q30 0 54.5 27t43 68t29.5 81q3 9 9 37t6 56q0 24 -7.5 41.5t-28.5 17.5q-25 0 -50 -27.5t-44.5 -69.5
t-31.5 -87t-12 -81q0 -28 7.5 -45.5t24.5 -17.5z" />
    <glyph glyph-name="one" unicode="1" horiz-adv-x="275" 
d="M87 -15q-19 0 -19 18q0 9 4 21q29 85 46 131.5t24.5 68.5t7.5 33q0 5 -1.5 7t-1.5 6t3 13q-22 -16 -46 -30t-50 -27q-2 -1 -5 -1q-7 0 -9 8v3q0 7 6 9q38 20 70.5 49t62.5 59q2 5 5 8.5t6 7.5q3 8 13 12.5t20 5.5q4 1 8 1h8q13 0 13 -9q0 -6 -2 -9q-16 -31 -47 -92.5
t-57 -149.5q-4 -16 -10 -27.5t-9 -23.5q5 -2 5 -13t-3.5 -26t-4.5 -23q-1 -10 -13 -20t-24 -10z" />
    <glyph glyph-name="two" unicode="2" horiz-adv-x="410" 
d="M348 -35q-4 0 -4 4v4q8 10 10.5 18t2.5 15q0 16 -15.5 23t-37.5 7q-33 0 -66 -4t-67 -9q-36 -6 -77 -13.5t-70 -18.5h-2q-3 0 -5 5t-2 12v5t1 5q2 10 15 18t29 14.5t27 10.5q39 18 82 46t81 61.5t62 69.5t26 71q1 16 -12 27t-41 11t-64.5 -11t-71.5 -26.5t-59 -30.5
q-2 -2 -6 -2q-7 0 -5 9q0 8 5 17.5t12 13.5q6 3 22.5 15t32 23.5t18.5 11.5q6 0 4 -7q0 -5 -4 -9l-8 -8q17 7 43.5 15.5t57.5 15.5t58 7q30 0 51 -11.5t21 -42.5q0 -33 -20 -66t-53 -65t-72 -60.5t-76.5 -53t-66.5 -42.5q20 7 53.5 13t71 10.5t68.5 4.5q20 0 39.5 -2
t32.5 -9.5t13 -23.5q0 -14 -6.5 -30t-14.5 -27t-13 -11z" />
    <glyph glyph-name="three" unicode="3" horiz-adv-x="490" 
d="M134 -180q-65 0 -101 25t-36 79q0 40 24 68.5t61 43.5t76 15q11 0 11 -9q0 -6 -11 -6q-26 0 -53.5 -13t-46 -37t-18.5 -57q0 -44 28.5 -65.5t76.5 -21.5q50 0 96.5 16.5t83.5 45.5t58.5 68.5t21.5 85.5q0 41 -25.5 71t-93.5 30q-29 0 -57.5 -8t-44.5 -8t-16 15
q0 8 7 16.5t18 8.5q30 0 69 6t75.5 20.5t60.5 38.5t24 59q0 16 -13.5 27t-41.5 11t-64 -11t-70 -26.5t-57 -30.5q-2 -2 -6 -2q-6 0 -6 9q0 8 4.5 17.5t11.5 13.5q6 3 22 15t30.5 23.5t17.5 11.5q5 0 5 -7q0 -5 -4 -9t-7 -8q16 7 42.5 15.5t57 15.5t57.5 7q32 0 53.5 -12.5
t21.5 -47.5q0 -23 -15 -45.5t-38.5 -41.5t-49.5 -31.5t-49 -17.5q77 -1 106.5 -32t29.5 -79q0 -50 -26.5 -95.5t-72 -80.5t-104 -55.5t-123.5 -20.5z" />
    <glyph glyph-name="four" unicode="4" horiz-adv-x="442" 
d="M248 -176q-19 0 -19 18q0 9 4 21l59 170q-56 -4 -119.5 -11.5t-108.5 -14.5q-9 -1 -27.5 -7.5t-23.5 -8.5q-4 -1 -7 4.5t-3 12.5q0 16 8 21q13 7 42.5 30t69.5 56.5t83 70.5t82 71.5t67.5 60t38.5 35.5q2 5 5 8.5t6 7.5q3 8 13 12.5t20 5.5q4 1 8 1h8q13 0 13 -9
q0 -6 -2 -9q-16 -31 -46 -99t-63 -155q-2 -4 -7 -17.5t-11 -30.5h16q20 0 39.5 -2t32.5 -9.5t13 -23.5q0 -14 -6.5 -30t-14.5 -27t-13 -11q-4 0 -4 4v4q8 10 10.5 18t2.5 15q0 16 -15.5 23t-37.5 7q-7 0 -16 -0.5t-18 -0.5q-8 -25 -17 -51t-15 -44.5t-7 -23.5q5 -2 5 -13
t-3.5 -26t-4.5 -23q-1 -10 -13 -20t-24 -10zM68 45q6 0 9 1q22 3 61.5 7t84 7.5t81.5 5.5l69 196q4 11 4 18q0 6 -4 6q-2 0 -8 -3q-7 -5 -31 -24t-57.5 -46.5t-71.5 -58.5t-73.5 -59.5t-63.5 -49.5z" />
    <glyph glyph-name="five" unicode="5" horiz-adv-x="490" 
d="M172 -159q-70 0 -101.5 28.5t-31.5 65.5q0 29 17.5 56t50 45t77.5 18q10 0 10 -9q0 -5 -10 -5q-32 0 -56 -14.5t-37 -37.5t-13 -47q0 -31 24.5 -55t79.5 -24q62 0 112.5 23.5t80.5 67.5t30 105q0 28 -11.5 52t-37.5 39.5t-71 15.5q-29 0 -56 -7t-45 -15q-2 -1 -5 -1
q-5 0 -8 5.5t-3 10.5q0 8 13 13q9 19 18.5 44.5t18.5 50.5t16 42q-3 2 -3 10q0 12 3 21q2 11 17.5 16t40.5 9q32 7 65.5 10t61.5 4.5t41 1.5q20 0 39.5 -2t32.5 -9.5t13 -23.5q0 -14 -6.5 -30t-14.5 -27t-13 -11q-4 0 -4 4v4q8 10 10.5 18t2.5 15q0 16 -19.5 21t-41.5 5
q-39 0 -84 -4t-85 -13q-22 -39 -40.5 -81t-29.5 -71q9 5 23.5 9t34.5 4q49 0 90.5 -9t66.5 -33.5t25 -73.5q0 -67 -39 -119t-104 -82t-145 -30z" />
    <glyph glyph-name="six" unicode="6" horiz-adv-x="563" 
d="M150 4q-37 0 -67 19.5t-30 68.5q0 56 30 114t79 113.5t107.5 106t117 92.5t106.5 73q16 10 23 10q10 0 10 -13q0 -4 -1 -10t-3 -11q-3 -9 -20 -22.5t-37.5 -26t-33.5 -18.5q-60 -36 -118 -81.5t-106 -98t-77 -108t-31 -110.5q-1 -37 19.5 -54.5t47.5 -17.5q56 0 107 22.5
t94 60.5t74 84q26 40 26 78q0 18 -7.5 30.5t-24.5 13.5q-3 0 -6 0.5t-6 0.5q-40 0 -79 -25t-71 -64.5t-52.5 -84.5t-24.5 -84q-1 -15 -11 -15t-10 18q0 42 21.5 91.5t58.5 93t83.5 71.5t97.5 28q30 0 51.5 -16.5t21.5 -56.5v-8.5t-1 -9.5q-8 -54 -44.5 -100t-90 -80.5
t-112 -54t-111.5 -19.5z" />
    <glyph glyph-name="seven" unicode="7" horiz-adv-x="420" 
d="M42 -180q-11 0 -13 10t-2 20q0 36 14.5 76.5t35.5 79t41 65.5q41 54 98.5 119t146.5 146q-34 4 -75.5 5.5t-93.5 1.5q-21 0 -47.5 -6t-50.5 -26t-38 -61q-6 -17 -22 -17q-7 0 -13 5.5t-6 14.5q0 16 5 31t11 32q1 4 7 19.5t14 30.5t15 15q6 1 4.5 -9.5t-6.5 -25.5t-10 -29
q16 26 45 41.5t71 15.5q35 0 77.5 -3t78 -7t49.5 -7q8 6 17.5 14t15.5 8q9 0 21 -10t13 -18q0 -5 -2 -6q-79 -65 -133 -116t-91.5 -92.5t-69.5 -78.5q-20 -23 -43 -61.5t-39 -80t-16 -73.5q0 -4 0.5 -7.5t0.5 -7.5q0 -8 -10 -8z" />
    <glyph glyph-name="eight" unicode="8" horiz-adv-x="410" 
d="M283 20q-35 -18 -73.5 -29t-73.5 -11q-44 0 -74 21t-30 70q0 31 23 61.5t55 57t60 45.5q11 7 22 13.5t24 13.5q-31 23 -53.5 50.5t-22.5 65.5q0 47 29.5 81.5t75 54t94.5 19.5q41 0 66.5 -15t25.5 -53q0 -15 -4 -31q-1 -4 -7 -12t-14 -8t-5 7q0 3 3 9q3 9 3 18
q0 29 -25.5 44t-54.5 15t-63 -9.5t-58 -33t-24 -65.5q0 -37 23.5 -63t53.5 -49q50 28 99 60.5t81 71.5t32 88q0 15 7 23t14 8q15 0 15 -24v-6t-1 -7q-10 -59 -45 -98.5t-83.5 -69.5t-100.5 -59q28 -20 53.5 -39t42.5 -40.5t17 -49.5v-6.5t-1 -7.5q-4 -27 -33 -57.5
t-73 -53.5zM77 78q-1 -3 -1 -6v-5q0 -30 24 -43.5t58 -13.5q29 0 60 8.5t58 25t44 38.5t17 49q0 25 -15 45t-38.5 37.5t-49.5 35.5q-23 -14 -45.5 -30t-42.5 -35q-27 -25 -47 -55.5t-22 -50.5z" />
    <glyph glyph-name="nine" unicode="9" horiz-adv-x="512" 
d="M83 -37q-15 -9 -24 -9q-16 0 -16 18q0 8 5 15q5 8 23.5 21t32.5 20q3 2 6 2h5q3 0 6.5 0.5t7.5 1.5q55 34 113.5 78.5t108 98t80.5 113.5t31 124q0 45 -26 60t-66 15q-33 0 -78 -15.5t-87 -44.5t-70 -70t-28 -91q0 -39 31 -45q6 -1 12.5 -1.5t12.5 -0.5q39 0 79 19.5
t74 51.5t57 70t27 75q2 15 11 15t9 -16q0 -40 -23 -83t-61.5 -79.5t-86 -59t-97.5 -22.5h-10.5t-10.5 1q-25 2 -45 19t-20 60q0 52 28 96t73.5 77t99.5 51t106 18q72 0 97 -26t25 -73q0 -64 -27 -122t-72.5 -110.5t-100 -98.5t-110 -84.5t-102.5 -68.5z" />
    <glyph glyph-name="colon" unicode=":" horiz-adv-x="202" 
d="M151 268q-14 0 -16.5 15t-2.5 25q0 14 11.5 26t26 19.5t23.5 7.5q4 0 6 -2l1 -2q-7 -34 -11.5 -53.5t-12 -27.5t-25.5 -8zM109 63q-14 0 -16.5 15t-2.5 25q0 14 11.5 25.5t25.5 19t23 7.5q5 0 7 -2l1 -1q-7 -34 -11.5 -53.5t-12 -27.5t-25.5 -8z" />
    <glyph glyph-name="semicolon" unicode=";" horiz-adv-x="202" 
d="M166 166q-14 0 -17 10.5t-3 22.5q0 14 9.5 28t23.5 23t26 9q6 0 7 -3v-1q-7 -33 -10.5 -51t-10.5 -25.5t-25 -12.5zM36 -144q-8 0 -8 7v1q12 18 29.5 40t31 43t13.5 35q0 10 -7 18.5t-7 19.5q0 18 16 31l2 1l7 5.5t17 11t18 5.5q10 0 14 -8q7 -22 7 -33q0 -10 -4 -13.5
t-6 -11.5q-16 -54 -40.5 -87.5t-47.5 -49t-35 -15.5z" />
    <glyph glyph-name="less" unicode="&#x3c;" horiz-adv-x="318" 
d="M217 136l-8 4q-25 34 -56 60t-65 50q-3 3 -3 6q0 8 15.5 32t36.5 53t40 54.5t26 35.5q6 11 19 11q7 0 7 -6q0 -3 -9 -17.5t-22 -35t-27.5 -41.5t-25.5 -37.5t-15 -21.5q6 -7 21.5 -26t33 -41.5t30 -41t12.5 -25.5q0 -5 -1.5 -9t-8.5 -4z" />
    <glyph glyph-name="equal" unicode="=" horiz-adv-x="399" 
d="M126 201q-15 0 -15 13q0 16 12.5 24t25 11.5t11.5 3.5q7 0 7 -5q0 -6 -5 -11q20 -1 39.5 -2.5t44.5 -1.5h15.5t16.5 1l9.5 0.5t22 1t19.5 0.5q18 0 18 -6q0 -5 -19.5 -10.5t-50 -9.5t-63.5 -6.5t-59 -2.5q-5 0 -10 0.5t-10 0.5q-2 0 -4.5 -0.5t-4.5 -0.5zM122 119
q-15 0 -15 13q0 16 12.5 24t25 11.5t11.5 3.5q7 0 7 -5q0 -6 -5 -11q20 -1 39.5 -2.5t44.5 -1.5h15.5t16.5 1l9.5 0.5t22 1t19.5 0.5q18 0 18 -6q0 -5 -19.5 -10.5t-50 -9.5t-63.5 -6.5t-59 -2.5q-5 0 -10 0.5t-10 0.5q-2 0 -4.5 -0.5t-4.5 -0.5z" />
    <glyph glyph-name="greater" unicode="&#x3e;" horiz-adv-x="318" 
d="M91 129q-6 0 -6 6q0 3 9 17.5t22 35t27.5 41.5t25.5 37.5t15 21.5q-6 7 -21.5 26t-33.5 41.5t-30.5 41.5t-12.5 25q0 13 11 13l8 -4q25 -34 56 -59.5t65 -50.5q3 -1 3 -6q0 -8 -15.5 -32t-37 -53t-40.5 -54t-26 -36t-19 -11z" />
    <glyph glyph-name="question" unicode="?" horiz-adv-x="464" 
d="M182 149q-7 0 -12.5 9t-5.5 23q0 11 5.5 27t18.5 33q14 18 49.5 40.5t80 49.5t86 60t68.5 71t27 81q0 32 -25 53.5t-83 21.5q-51 0 -99 -16.5t-78.5 -46.5t-30.5 -72q0 -24 5 -34.5t11 -13.5t11 -4t5 -5q0 -8 -7.5 -12t-15.5 -4q-20 0 -40 20t-20 50q0 26 19 52
q27 36 73 64.5t100.5 44.5t103.5 16q37 0 67.5 -10.5t49.5 -34t19 -61.5q0 -49 -41 -95t-108.5 -92.5t-148.5 -98.5q-25 -16 -37.5 -35t-19.5 -38.5t-15 -35.5h-1q-5 -7 -11 -7zM123 -28q-11 0 -13.5 14t-2.5 24v1q0 13 12.5 24.5t27 19t20.5 7.5q3 0 3 -2q-9 -47 -15 -67.5
t-32 -20.5z" />
    <glyph glyph-name="at" unicode="@" horiz-adv-x="804" 
d="M299 -2q-87 0 -152 37t-101.5 100.5t-36.5 141.5q0 82 35.5 148.5t90.5 116t115 81.5q-7 0 -24 -1t-36 -2t-33 -1q-17 0 -21 2.5t-4 5.5q0 8 17 12.5t44 7t56.5 3.5t54.5 1h26q41 12 91 20t99 8q56 0 103.5 -13.5t77 -46.5t29.5 -92q0 -19 -5 -40t-13 -43q15 -27 22 -54
t7 -53q0 -54 -26 -104t-70.5 -93t-101.5 -74.5t-119.5 -49.5t-124.5 -18zM684 483q6 26 6 49q0 48 -21.5 75t-57 38t-79.5 11q-33 0 -68 -5t-68 -13q61 -6 116.5 -25.5t100.5 -51.5t71 -78zM272 26q53 0 111.5 16t114.5 45t101 68t72 86t27 98q0 28 -9 56
q-12 -31 -36.5 -68.5t-56 -75t-65.5 -69t-65 -50.5t-54 -19q-31 0 -38 39q0 18 5.5 46.5t13.5 58.5t14 50q-15 -20 -38.5 -51t-51 -61.5t-54.5 -51.5t-48 -21q-24 0 -24 36q0 28 11 69.5t29 86.5t39.5 84.5t44 64.5t41.5 25h3l11 8q5 6 12.5 8t15.5 2q20 0 42 -8t30 -8
q7 0 10.5 8t15.5 8q14 0 19.5 -6t5.5 -15q0 -15 -8.5 -33.5t-13.5 -30.5q-1 -4 -8.5 -6.5t-9.5 -6.5q-18 -50 -30.5 -98.5t-19.5 -83.5t-7 -44q0 -31 18 -31q15 0 39.5 21t53 55t56 73t49 75.5t30.5 61.5q-33 63 -89 101t-123 56.5t-135 21.5q-56 -18 -105.5 -55t-87.5 -86
t-59.5 -104.5t-21.5 -111.5q0 -60 24.5 -113t74 -86.5t124.5 -33.5zM247 169q10 0 26.5 13.5t36 34.5t37 42t30 37.5t15.5 20.5q16 26 31.5 56.5t25.5 56t10 35.5q0 6 -5 6h-3q-10 -1 -19.5 1.5t-21.5 2.5q-15 0 -34 -4q-9 -2 -26 -24.5t-36.5 -56.5t-37 -72.5t-28.5 -73.5
t-11 -58q0 -17 10 -17z" />
    <glyph glyph-name="A" unicode="A" horiz-adv-x="619" 
d="M59 -7h-10q-9 0 -9 7q0 2 0.5 6t1.5 10q12 68 40.5 133t60.5 121q-13 0 -23 -0.5t-27 -0.5q-10 0 -10 7t8.5 15.5t18.5 8.5h50q33 54 74 110.5t85 111.5t87 102q-6 8 -6 16t9.5 19.5t34.5 11.5q12 0 17.5 -6.5t5.5 -14.5q0 -6 -3 -14q8 -21 19.5 -60t23 -86.5t21 -97
t15.5 -91.5q33 -1 33 -11t-30 -15q-1 0 2 -21t8 -53.5t9.5 -68t8 -65t3.5 -44.5q0 -10 -15 -18.5t-27 -8.5t-12 8v12q0 21 -2.5 58.5t-6 78.5t-6.5 74t-5 46q-76 -1 -159.5 -2t-160.5 -1q-34 -61 -64 -129t-40 -137q-1 -7 -7 -9t-13 -2zM197 298l303 2q-6 47 -16.5 95.5
t-21.5 92t-20 75t-13 42.5q-38 -40 -82 -93t-83.5 -109t-66.5 -105z" />
    <glyph glyph-name="B" unicode="B" horiz-adv-x="631" 
d="M135 -16q-16 0 -33 14.5t-17 24.5q0 9 11 9q1 0 13 -3q-4 21 -6 48.5t-2 60.5q0 57 4.5 123.5t13 133.5t18.5 127t20 103h-53q-22 1 -22 8q0 5 12.5 11t29.5 6h39q5 26 23 34t38 8q15 0 15 -10t-9 -20t-11 -15q25 -2 61 -7.5t73.5 -16t70 -28.5t53 -44.5t20.5 -64.5
q0 -30 -16.5 -57t-42 -49t-53.5 -38.5t-51 -26.5q11 1 23.5 1.5t26.5 0.5q33 0 70 -5t69 -18t52 -36.5t20 -60.5q0 -53 -33.5 -92.5t-87.5 -65t-117 -38t-121 -12.5q-22 0 -43 1.5t-39 5.5q-5 -12 -19 -12zM172 309q10 0 41.5 3.5t71.5 14t78.5 29t64 48.5t25.5 74
q0 5 -0.5 10.5t-1.5 11.5q-10 32 -38.5 54t-65.5 36t-73.5 22t-61.5 11h-1q-5 -15 -12.5 -46t-15.5 -69t-15.5 -77t-12.5 -71t-6 -50q1 0 7 -0.5t16 -0.5zM238 14q52 0 106.5 9t101 29t75 53.5t28.5 81.5q-1 34 -23.5 55.5t-57.5 33t-74 16t-73 4.5q-46 0 -87.5 -5.5
t-86.5 -12.5q-1 -13 -2 -37.5t-1 -54.5q0 -43 1.5 -88t4.5 -76q38 -8 88 -8z" />
    <glyph glyph-name="C" unicode="C" horiz-adv-x="684" 
d="M348 -13q-95 0 -159.5 36t-97 101.5t-32.5 152.5q0 77 25 146t73.5 122.5t119.5 84.5t163 31q29 0 60 -4.5t57 -17t42 -37t16 -63.5q0 -31 -11.5 -46.5t-28.5 -15.5q-21 0 -21 19q0 17 10 32t10 28q0 25 -20.5 42.5t-51 27.5t-60.5 10q-78 0 -140 -30.5t-105 -82
t-66 -116t-23 -133.5t25 -129t76.5 -97.5t129.5 -37.5q69 0 121 18.5t88.5 45t58.5 52t32 39.5q5 5 7 5q5 0 5 -15q0 -33 -20.5 -59.5t-54.5 -47t-74.5 -34t-80.5 -20.5t-73 -7z" />
    <glyph glyph-name="D" unicode="D" horiz-adv-x="775" 
d="M204 -9q-52 0 -81.5 12t-29.5 30q0 8 7 8q3 0 6 -1q-4 19 -5.5 44t-1.5 53q0 55 5 119.5t14 130t19.5 124t21.5 100.5h-8q-13 0 -30 -3t-22 -3q-7 0 -7 10q0 9 9 21t27 12h39q4 22 15.5 33t36.5 11q14 0 14 -11q-3 -7 -5 -11t-7 -19h26q66 0 133.5 -11t129 -33.5
t110.5 -59t77 -87t28 -116.5q0 -59 -26 -108t-69.5 -88t-98 -68.5t-113.5 -49t-114 -29.5t-100 -10zM234 18q46 0 100.5 15t108.5 40t99 57.5t72 66.5q40 51 57 93.5t17 86.5q0 55 -26.5 94.5t-69.5 65t-94 41t-101 23t-90 10t-61 2.5h-35q-31 -106 -49.5 -225t-18.5 -231
v-26t1 -26q2 -45 18 -66t72 -21z" />
    <glyph glyph-name="E" unicode="E" horiz-adv-x="577" 
d="M356 -1h-129q-41 0 -81 0.5t-65.5 2t-25.5 3.5q0 8 12 20t23 14q-1 4 -1 9v11q0 26 3 66.5t8.5 89.5t10.5 99h-13q-10 0 -10 7t8 15t18 9q10 80 22 155.5t25 123.5h-53q-22 0 -22 8q0 5 12.5 10.5t29.5 5.5h39q5 28 20.5 36t36.5 8q15 0 15 -10q0 -7 -5.5 -15.5
t-9.5 -17.5q10 0 35.5 -0.5t88.5 -0.5q31 0 73.5 0.5t97.5 0.5q15 0 15 -15q0 -10 -10 -27t-21 -17q-7 0 -13.5 12.5t-20.5 13.5q-13 2 -40.5 2h-44.5q-13 0 -24.5 -0.5t-22.5 -0.5q-26 0 -52.5 0.5t-70.5 1.5q-10 -35 -21 -86t-19.5 -101.5t-13.5 -86.5h72t85.5 0.5t78.5 1
t50 1.5q6 0 6 -6t-9 -15.5t-29 -12.5h-258q-2 -26 -6 -64t-6.5 -79t-2.5 -78q0 -18 1 -34t3 -28q36 0 98 -0.5t162 -0.5q22 0 55.5 4t59.5 12h1q4 0 4 -10t-7 -23t-23 -13q-33 0 -68 -0.5t-71 -0.5z" />
    <glyph glyph-name="F" unicode="F" horiz-adv-x="540" 
d="M104 -8q-24 0 -24 22q6 71 15 150t16 151h-12q-10 0 -10 7t8 15t18 9q8 70 19.5 139.5t27.5 139.5h-53q-22 1 -22 8q0 5 12.5 10.5t29.5 5.5h39q5 28 20.5 35.5t35.5 7.5q15 0 15 -10q0 -7 -5 -15t-9 -17q10 0 35.5 -0.5t88.5 -0.5q31 0 73.5 0.5t97.5 0.5q15 0 15 -15
q0 -10 -10 -27t-21 -17q-7 0 -13.5 12.5t-20.5 13.5q-13 2 -40.5 2h-44.5q-13 0 -24.5 -0.5t-22.5 -0.5q-26 0 -52.5 0.5t-70.5 1.5q-18 -56 -32 -128.5t-25 -145.5h71.5t87 0.5t80 1t50.5 1.5q6 0 6 -6t-9 -15.5t-29 -12.5h-261q-6 -52 -12 -103t-9.5 -90t-3.5 -58
q8 -1 8 -21q0 -51 -33 -51z" />
    <glyph glyph-name="G" unicode="G" horiz-adv-x="780" 
d="M625 -20q-7 0 -13 6t-6 18q0 20 4 44t8 49q-29 -42 -74.5 -66.5t-97 -35.5t-98.5 -11q-94 0 -158.5 36t-97.5 101t-33 152q0 77 27 146t80 123t131 85t180 31q32 0 66 -4.5t63 -17t46.5 -37t17.5 -63.5q0 -31 -13 -46.5t-31 -15.5q-19 0 -19 11t10 28.5t10 33.5
q0 30 -20.5 49t-54.5 28t-73 9q-89 0 -158 -30t-116.5 -81.5t-72 -116t-24.5 -134.5q0 -69 25 -129t76.5 -97.5t129.5 -37.5q65 0 114.5 16.5t85.5 41.5t59 52t34 49q5 21 8 42t6 40h-231q-10 0 -10 7t8.5 15.5t18.5 8.5h35t67.5 0.5t80.5 0.5t74 0.5t48 1.5q6 0 6 -6
t-9 -15.5t-29 -12.5h-20q-5 -17 -12.5 -40t-13 -58t-5.5 -89q0 -11 1.5 -20.5t1.5 -18.5q0 -19 -10.5 -30.5t-21.5 -11.5z" />
    <glyph glyph-name="H" unicode="H" horiz-adv-x="689" 
d="M101 -8q-8 0 -14.5 5t-6.5 15q0 66 7.5 139.5t16.5 148.5h-10q-10 0 -10 7t7 15t16 9q7 54 16 109t20 109l9 45t19.5 44t44.5 19q15 0 15 -10v-2q-28 -63 -48.5 -144t-35.5 -170h69.5t95.5 0.5t103 1t91 0.5q6 53 13 104t16 102v30q0 33 17 60.5t58 27.5q15 0 15 -10v-2
q-26 -60 -46 -140.5t-33 -171.5q7 0 13 0.5t10 0.5q6 0 6 -6t-8 -14.5t-25 -12.5q-10 -83 -15 -153t-5 -101q2 -13 4.5 -16.5t2.5 -9.5q0 -14 -10 -21.5t-21 -7.5q-24 0 -24 22q7 74 14 145t14 141h-359q-11 -75 -16.5 -140.5t-5.5 -103.5q0 -15 3.5 -21.5t3.5 -14.5
q0 -14 -9 -21t-18 -7z" />
    <glyph glyph-name="I" unicode="I" horiz-adv-x="458" 
d="M206 -8q-13 0 -19 8h-131q-10 0 -10 7t8.5 15.5t18.5 8.5h111q13 135 28.5 272t40.5 265v30q0 6 1 10t1 10h-116q-10 0 -10 7t8.5 15.5t18.5 8.5h109q5 11 18.5 16.5t39.5 5.5q15 0 15 -10v-2l-6 -9q42 0 77.5 0.5t51.5 1.5q6 0 6 -6t-9 -15.5t-29 -12.5h-109v-2
q-17 -48 -31 -112.5t-25 -134.5t-18 -134.5t-11 -114.5t-4 -73q0 -11 3 -16q46 1 86.5 1.5t57.5 1.5q6 0 6 -6t-9 -15.5t-29 -12.5h-118q-10 -8 -22 -8z" />
    <glyph glyph-name="J" unicode="J" horiz-adv-x="516" 
d="M202 -33q-27 0 -56 20t-53 49.5t-39 60t-15 51.5q0 19 9 19q3 0 10.5 -16.5t19 -40.5t27 -48t36.5 -40.5t46 -16.5q23 0 35.5 16.5t19.5 40.5t11 46q15 87 26 158t20 141.5t16 153.5q-2 1 -2 10q0 10 6 47h-120q-10 0 -10 7t8.5 15.5t18.5 8.5h114q15 28 49 28
q15 0 15 -10v-2l-7 -15q35 0 64.5 0.5t43.5 1.5q6 0 6 -6t-9 -15.5t-29 -12.5h-89l-3 -11q-7 -29 -20.5 -97.5t-23.5 -163.5q-5 -50 -10 -103t-13 -102t-20.5 -88.5t-32 -62.5t-49.5 -23z" />
    <glyph glyph-name="K" unicode="K" horiz-adv-x="635" 
d="M497 -26q-28 0 -68 23.5t-86 62.5t-92 86t-87 94q-4 3 -8 7.5t-9 8.5q-8 -70 -11.5 -126.5t-3.5 -82.5q2 -13 4.5 -16.5t2.5 -9.5q0 -14 -10 -21.5t-21 -7.5q-24 0 -24 22q7 72 13.5 141.5t13.5 137.5q-15 17 -26.5 31.5t-11.5 21.5q0 5 7 5q7 -7 29 -7h8q6 50 13 98.5
t15 96.5v30q0 33 17 60.5t58 27.5q15 0 15 -10v-2q-25 -58 -44.5 -133.5t-31.5 -162.5q14 4 26.5 6t22.5 6q81 32 147 76.5t115.5 89t81.5 79t45 45.5q-2 2 -2 5q0 11 18 21t32 10t14 -11q0 -15 -25 -44t-67 -65.5t-93 -75t-103.5 -73t-98 -59.5t-76.5 -34q-28 -8 -28 -22
q0 -9 12 -21q38 -40 83 -87t91 -89t88 -69.5t74 -30.5q19 0 29.5 15.5t14.5 39.5t4 49q0 14 -1.5 25t-1.5 20q0 16 9 16q14 0 17 -20t3 -36q0 -51 -15 -82t-36.5 -45t-41.5 -14z" />
    <glyph glyph-name="L" unicode="L" horiz-adv-x="579" 
d="M111 -8q-13 0 -19 8h-29q-7 0 -7 5q0 8 11.5 19t22.5 15q12 131 25.5 256t33.5 244v30q0 33 17 60.5t58 27.5q15 0 15 -10q0 -6 -5 -18t-10.5 -23.5t-7.5 -18.5q-17 -48 -30 -110t-22.5 -127t-15.5 -125.5t-9 -107.5t-3 -70q0 -7 1 -10.5t2 -5.5q37 0 102.5 -0.5
t163.5 -0.5q22 0 55.5 4t59.5 12h1q4 0 4 -10q0 -25 -23.5 -32t-53.5 -7q-18 0 -36 1t-33 1q-60 0 -122 0.5t-124 0.5q-10 -8 -22 -8z" />
    <glyph glyph-name="M" unicode="M" horiz-adv-x="755" 
d="M69 -8q-14 0 -14 17v5q17 122 42 260.5t63 274.5q0 3 3 9q-7 6 -7 23q0 45 15.5 59t28.5 14q7 0 10 -1l7 2q6 2 13 2q5 0 9.5 -2t4.5 -7q0 -6 -6 -18t-12.5 -24t-9.5 -19l-12 -30q3 -60 12.5 -124.5t27.5 -120t45.5 -90.5t66.5 -35q28 0 72 31.5t96 102t102 188.5l3 30v5
q0 8 -1.5 16t-1.5 15q0 32 14.5 57t54.5 25q6 0 11 -2.5t5 -8.5q0 -10 -8 -29t-10 -30q-12 -43 -20 -98t-12.5 -113.5t-6.5 -115t-2 -103.5q0 -37 0.5 -65.5t2.5 -44.5q2 -15 5 -17.5t3 -9.5q0 -14 -8.5 -21t-19.5 -7q-10 0 -17.5 5t-7.5 14q1 114 3 222t8 211
q-54 -113 -106.5 -180t-96.5 -96t-75 -29q-39 0 -68 30.5t-49.5 80t-33.5 106.5t-19 111q-18 -57 -32.5 -116.5t-25.5 -115.5t-18 -102.5t-9 -76.5q0 -13 2 -19.5t2 -13.5q0 -16 -8.5 -23.5t-14.5 -7.5z" />
    <glyph glyph-name="N" unicode="N" horiz-adv-x="680" 
d="M531 -9q-18 0 -18 22l7 82q-13 41 -31 67q-18 24 -48 56.5t-64.5 67.5t-66 67.5t-52.5 56.5q-40 46 -51 77t-12 60q-16 -52 -28.5 -117.5t-21.5 -131.5t-13.5 -122t-4.5 -89q0 -10 0.5 -23t0.5 -25q0 -39 -14 -39q-10 0 -19 12t-9 26q2 37 8 90t14.5 112.5t18 118.5
t18 109t14.5 83q-1 5 -1 9.5v8.5q0 46 16.5 66.5t43.5 20.5q10 0 16.5 -2t6.5 -7q0 -10 -6.5 -24.5t-13 -27.5t-6.5 -19q0 -30 21 -64t55 -71.5t75 -77t81.5 -81.5t72.5 -85l9 -12l16 147q6 53 13 104t16 102v30q0 22 4 42t17 33t41 13q15 0 15 -10v-2q-27 -62 -46.5 -147
t-32.5 -178.5t-19 -179.5q6 -16 8.5 -32.5t2.5 -30.5q0 -17 -3 -31.5t-7 -24.5v-6q-2 -11 -9 -17t-14 -6z" />
    <glyph glyph-name="O" unicode="O" horiz-adv-x="796" 
d="M348 -18q-97 0 -160.5 36t-94.5 96.5t-31 133.5q0 78 32.5 158t100.5 143q-23 -10 -44 -21.5t-25 -11.5q-9 0 -9 9q0 6 13.5 15t33 18.5t39 17.5t30.5 12q32 31 72 57.5t86 43t93 16.5q23 0 46.5 -7.5t23.5 -30.5q0 -14 -8 -29t-15 -24q98 -14 158 -72t60 -171
q0 -91 -34.5 -163.5t-92 -122.5t-129 -76.5t-145.5 -26.5zM285 603q29 9 68 13.5t79 4.5q21 0 42 -1t40 -3q9 21 9 34q0 24 -38 24q-32 0 -69.5 -10t-71.5 -26t-59 -36zM355 6q59 0 120 24.5t112.5 71t83.5 113.5t32 153q0 59 -23 107.5t-64 80t-95 38.5q-9 -10 -15.5 -14
t-9.5 -4q-5 0 -5 4q0 9 9 16q-10 1 -20 1h-21q-56 0 -110.5 -8.5t-95.5 -19.5q-51 -38 -82.5 -89t-46 -107t-14.5 -111q0 -68 26 -126.5t80 -94t139 -35.5z" />
    <glyph glyph-name="P" unicode="P" horiz-adv-x="523" 
d="M99 -2q-11 0 -16.5 3t-5.5 13q0 27 4.5 78.5t12 115.5t17 131.5t19.5 129t19 105.5v2q0 4 -1.5 6.5t-1.5 6.5q0 6 3 20t5 21h-6q-10 0 -20.5 -1t-18.5 -1q-22 1 -22 8q0 10 24.5 13.5t48.5 3.5q3 17 20.5 28t42.5 11q16 0 16 -12q-5 -12 -8.5 -15.5t-7.5 -15.5
q26 -2 61.5 -7.5t72.5 -15.5t69 -27t52 -43t20 -63q0 -34 -15.5 -65.5t-40 -57.5t-51.5 -44.5t-51 -26.5q-34 -12 -72.5 -16.5t-70.5 -4.5q-24 0 -40.5 1.5t-21.5 3.5q-3 -17 -6.5 -51t-5.5 -75.5t-2 -82.5q0 -25 3 -41.5t3 -15.5q0 -5 -2.5 -5.5t-3.5 -3.5q-2 -5 -8.5 -7.5
t-13.5 -2.5zM204 303q14 0 28 0.5t24 1.5q29 3 63.5 17t65 37.5t50 55.5t19.5 72q0 35 -25 60t-63 41.5t-78.5 25.5t-72.5 12q-7 -15 -16.5 -46t-18.5 -70t-17.5 -78.5t-14 -72t-7.5 -50.5q3 -3 22 -4.5t41 -1.5z" />
    <glyph glyph-name="Q" unicode="Q" horiz-adv-x="796" 
d="M656 -242q-40 0 -72.5 21.5t-59.5 56t-51 75t-49 78.5q-19 -3 -38 -5t-38 -2q-97 0 -160.5 36t-94.5 96.5t-31 133.5q0 78 32.5 158t100.5 143q-23 -10 -44 -21.5t-25 -11.5q-9 0 -9 9q0 6 13.5 15t33 18.5t39 17.5t30.5 12q32 31 72 57.5t86 43t93 16.5q23 0 46.5 -7.5
t23.5 -30.5q0 -14 -8 -29t-15 -24q98 -14 158 -72t60 -171q0 -99 -40 -175t-105.5 -126t-143.5 -72q19 -30 43 -66.5t52 -69.5t59.5 -54.5t65.5 -21.5q26 0 40.5 14.5t22 34t12 34t8.5 14.5q3 0 4 -5.5t1 -10.5q0 -39 -18 -63t-44 -35t-50 -11zM285 603q29 9 68 13.5t79 4.5
q21 0 42 -1t40 -3q9 21 9 34q0 24 -38 24q-32 0 -69.5 -10t-71.5 -26t-59 -36zM355 6q14 0 27.5 1t27.5 4q-19 28 -42 53.5t-47 42.5t-48 17q-14 0 -22.5 -8.5t-15 -17.5t-14.5 -9q-2 0 -2 2q0 14 13 28t31.5 23.5t34.5 9.5q28 0 54 -20.5t50 -51t44 -60.5q66 20 124.5 66.5
t95.5 117.5t37 164q0 59 -23 107.5t-64 80t-95 38.5q-9 -10 -15.5 -14t-9.5 -4q-5 0 -5 4q0 9 9 16q-10 1 -20 1h-21q-56 0 -110.5 -8.5t-95.5 -19.5q-51 -38 -82.5 -89t-46 -107t-14.5 -111q0 -68 26 -126.5t80 -94t139 -35.5z" />
    <glyph glyph-name="R" unicode="R" horiz-adv-x="584" 
d="M471 -26q-28 0 -66.5 24t-81 62t-85.5 81.5t-80 82.5l-28 25q-4 -33 -6.5 -80.5t-2.5 -94.5q0 -25 3 -41.5t3 -15.5q0 -5 -2.5 -5.5t-3.5 -3.5q-2 -5 -8.5 -7.5t-13.5 -2.5q-11 0 -16.5 3t-5.5 13q0 24 3 65.5t8.5 93t12.5 105.5q-10 11 -17.5 20.5t-7.5 14.5q0 4 6 4
q6 -6 23 -6q6 46 14 94t16.5 92t15.5 75v2q0 4 -1.5 6.5t-1.5 6.5q0 6 3 20t5 21h-6q-10 0 -20.5 -1t-18.5 -1q-22 1 -22 8q0 10 24.5 13.5t48.5 3.5q4 19 19.5 30t41.5 11q16 0 16 -12q-5 -12 -7.5 -16.5t-6.5 -16.5q26 -2 61.5 -7.5t73 -15.5t69.5 -27.5t52 -43.5t20 -64
q0 -40 -23.5 -77t-57 -64.5t-64.5 -39.5q-46 -18 -89.5 -23.5t-75.5 -5.5h-11q-17 0 -17 -5t10 -15q35 -34 76.5 -76t85 -81.5t83.5 -66t72 -29.5q19 0 29.5 15.5t14.5 39.5t4 49q0 14 -1.5 25t-1.5 20q0 16 9 16q14 0 17 -20t3 -36q0 -51 -15 -82t-36.5 -45t-41.5 -14z
M204 303q14 0 28 0.5t24 1.5q29 3 63.5 16.5t65.5 36.5t51 54t20 69v12.5t-2 13.5q-10 30 -38 52t-65 36.5t-72.5 21.5t-60.5 7h-1q-7 -15 -16.5 -45.5t-19 -69.5t-18 -78t-14.5 -71.5t-8 -50.5q3 -3 22 -4.5t41 -1.5z" />
    <glyph glyph-name="S" unicode="S" horiz-adv-x="519" 
d="M149 -17q-47 0 -70.5 11t-31.5 27.5t-8 32.5v7q0 8 5 21.5t22 13.5q8 0 9 -12.5t9 -26.5q16 -26 41 -34t63 -8q33 0 70.5 11t70.5 31t53.5 48t20.5 63q0 32 -22.5 53t-58.5 37t-75.5 30.5t-75.5 34.5t-58.5 49t-22.5 73q0 43 24.5 82t67 69.5t96 48t111.5 17.5
q43 0 64 -15.5t28.5 -38t7.5 -45.5q0 -5 -3 -17t-9.5 -21.5t-15.5 -9.5q-7 0 -7 13v20q0 46 -27.5 61.5t-68.5 15.5q-27 0 -65.5 -9.5t-75.5 -29t-61.5 -47.5t-24.5 -66q0 -2 0.5 -4.5t0.5 -4.5q5 -42 30.5 -69.5t62.5 -45.5t77.5 -32t75.5 -29t57 -35.5t22 -53.5
q0 -39 -25 -77.5t-68 -70t-98.5 -50t-116.5 -18.5z" />
    <glyph glyph-name="T" unicode="T" horiz-adv-x="614" 
d="M238 -8q-24 0 -24 22q13 139 23 267t35 260v30q0 11 3 24t7 23h-244q-10 0 -10 7t8.5 15.5t18.5 8.5h255q14 9 36 9q5 0 10 -1.5t6 -6.5q54 0 102 0.5t82 1t45 0.5q6 0 6 -6t-9 -15.5t-29 -12.5h-210q-17 -48 -31 -112t-24.5 -133t-17.5 -133.5t-10.5 -115.5t-3.5 -77
q2 -13 4.5 -16.5t2.5 -9.5q0 -14 -10 -21.5t-21 -7.5z" />
    <glyph glyph-name="U" unicode="U" horiz-adv-x="646" 
d="M478 -8q-24 0 -24 22q8 86 15.5 168.5t17.5 162.5q-52 -101 -102.5 -168t-95.5 -106t-80.5 -55.5t-57.5 -16.5q-34 0 -55 26t-30.5 70t-9.5 98q0 58 8.5 121.5t23 123.5t31.5 109q-6 2 -6 11q0 13 8.5 33t19 37.5t16.5 22.5q11 8 21.5 11.5t19.5 3.5q12 0 19.5 -5
t7.5 -12q0 -5 -4 -9q-20 -18 -37.5 -58t-31.5 -89t-23.5 -95.5t-12.5 -77.5q-4 -39 -7.5 -74t-3.5 -66q0 -64 15.5 -102.5t54.5 -38.5q32 0 81.5 39t121.5 136q41 55 71.5 115t48 117t17.5 101v22q0 33 17 60.5t58 27.5q15 0 15 -10v-2q-20 -47 -36.5 -110t-29 -131.5
t-20.5 -133.5t-12 -117t-4 -81q8 -11 8 -29q0 -51 -33 -51z" />
    <glyph glyph-name="V" unicode="V" horiz-adv-x="563" 
d="M184 -3q-42 0 -67.5 41t-37 107t-11.5 141q0 68 7.5 135t20.5 121q-7 1 -7 15q0 39 14 63.5t32 36.5t30 12q25 0 25 -16q0 -4 -3 -9q-12 -15 -22.5 -48.5t-19 -77t-14.5 -87.5t-9 -81.5t-3 -58.5q0 -73 7.5 -130t26 -89.5t52.5 -32.5q22 0 50 17.5t64.5 62t81.5 124.5
q26 47 50 103.5t42.5 113.5t29 105t10.5 77q0 17 -2.5 26.5t-2.5 15.5q0 4 5.5 9.5t22.5 5.5q12 0 16.5 -10t4.5 -25q0 -22 -10 -63t-26.5 -91.5t-36.5 -103.5t-40.5 -100t-38.5 -81q-53 -89 -98 -138.5t-81 -69.5t-62 -20z" />
    <glyph glyph-name="W" unicode="W" horiz-adv-x="917" 
d="M151 -1q-34 0 -55 26t-30.5 70t-9.5 98q0 58 8.5 121.5t23 123.5t31.5 109q-6 2 -6 11q0 13 8.5 33t19 37.5t16.5 22.5q11 8 21.5 11.5t19.5 3.5q12 0 19.5 -5t7.5 -12q0 -5 -4 -9q-20 -18 -37.5 -58t-31.5 -89t-23.5 -95.5t-12.5 -77.5q-4 -39 -7.5 -74t-3.5 -66
q0 -64 15.5 -102.5t54.5 -38.5q16 0 45 20t65.5 63.5t75.5 114t73 172.5q5 38 12 72.5t16 64.5q-9 3 -9 14q0 23 12 38t27.5 22.5t25.5 7.5q13 0 21 -5.5t8 -12.5q0 -4 -4 -8q-16 -16 -29.5 -51t-23.5 -82.5t-15.5 -100.5t-5.5 -105q0 -60 8.5 -111t27 -82t47.5 -31
q33 0 74 44t95 154q32 64 55.5 134t36.5 133.5t13 108.5q0 14 -1 23t-1 15q0 7 3.5 12.5t16.5 5.5q17 0 23.5 -17t6.5 -42q0 -34 -11.5 -83.5t-30 -104t-39 -104.5t-38.5 -86q-40 -83 -82 -134t-79 -74.5t-63 -23.5q-40 0 -64.5 34t-35 91t-10.5 124q0 36 3 72
q-35 -95 -75 -157.5t-78.5 -98.5t-70 -51t-49.5 -15z" />
    <glyph glyph-name="X" unicode="X" horiz-adv-x="669" 
d="M11 -16q-11 0 -11 13q0 5 3 11q13 31 43 70.5t69 81.5t78.5 80.5t71.5 67.5q-29 68 -54 136.5t-53 144.5q-4 10 -5.5 19.5t-1.5 16.5q0 20 18 24.5t31 4.5q11 0 27.5 -6t16.5 -11q0 -4 -8.5 -6.5l-8.5 -2.5q-13 -3 -13 -28q0 -23 9.5 -58t24 -74t29 -73t23.5 -55
q25 23 60 53.5t72 65t68.5 69t51.5 64t20 50.5v12q0 10 6 10q5 0 11.5 -6t6.5 -29q0 -30 -28 -69t-72 -82.5t-92.5 -86.5t-89.5 -80q21 -48 47 -97.5t52.5 -91.5t52 -68t46.5 -26t39.5 18.5t33 46t26 55t18.5 46t10 18.5q7 0 7 -15v-5t-1 -5q-18 -76 -49 -118.5t-63 -59
t-56 -16.5q-28 0 -59.5 37t-64 97t-64.5 129l-11 22q-22 -20 -51.5 -49.5t-61.5 -63t-60.5 -66t-49 -58.5t-26.5 -40q-7 -17 -18 -17z" />
    <glyph glyph-name="Y" unicode="Y" horiz-adv-x="484" 
d="M84 0q-6 0 -11.5 2t-5.5 8q0 5 6 17t12.5 24t9.5 18q15 32 32.5 84.5t17.5 107.5v8.5t-1 6.5q-28 74 -54 149t-53 159q-4 11 -5.5 21.5t-1.5 17.5q0 20 16 25.5t29 5.5q10 0 26 -3.5t16 -10.5q0 -5 -6 -9.5t-5 -4.5q-13 -3 -13 -28t10.5 -64.5t26 -82.5t31 -81t24.5 -61
q9 8 36 32.5t62 60t70 75.5t61.5 78.5t33.5 69.5q5 19 12.5 30.5t24.5 11.5q7 0 15 -3.5t8 -16.5t-16.5 -39t-41 -56.5t-47.5 -58.5q-50 -61 -101 -110t-105 -99q-6 -19 -13.5 -51t-12.5 -65t-7 -55q-2 -33 -7.5 -58.5t-21.5 -40t-51 -14.5z" />
    <glyph glyph-name="Z" unicode="Z" horiz-adv-x="556" 
d="M486 -39q-4 0 -4.5 5l-0.5 5q10 11 14 21t4 17q0 19 -21.5 27t-51.5 8q-77 0 -154 -11.5t-161 -22.5q-27 -4 -48 -9.5t-28 -5.5q-1 0 -6 8t-5 31q0 11 3 26q4 19 32 55t71 82.5t93.5 97.5t100 101t90.5 93t66 73.5t25 42.5q0 6 -39.5 11t-97.5 5q-37 0 -81.5 -3t-80 -9
t-47.5 -16q2 -1 5.5 -7.5t3.5 -11.5q-1 -8 -7 -8q-4 0 -14 8t-18.5 19t-8.5 19q0 14 24.5 22t63 12t82 5t80.5 1q52 0 96.5 -1t71.5 -3q12 -3 19.5 -15.5t7.5 -26.5q0 -11 -5 -19q-15 -23 -48 -60t-77.5 -82t-94 -94t-98 -97.5t-89 -92t-67.5 -78t-33 -54.5q11 2 48.5 10
t91 18t112.5 17.5t111 7.5q28 0 54.5 -2.5t44.5 -11t18 -27.5q0 -17 -9 -35.5t-20 -31.5t-18 -13z" />
    <glyph glyph-name="bracketleft" unicode="[" horiz-adv-x="421" 
d="M99 -13q-15 0 -34 1.5t-33.5 8.5t-18.5 21q-1 6 -1.5 13t-0.5 14q0 36 10.5 87.5t28 111.5t39.5 122t44.5 118t43.5 100t36 67q10 14 23.5 23.5t34.5 9.5h127q10 0 12 -7q0 -1 0.5 -2t0.5 -3t-2 -8t-7 -7t-23 -1h-82q-33 0 -64.5 -62.5t-82.5 -201.5q-22 -61 -42.5 -122
t-33.5 -114t-13 -90q0 -7 0.5 -13t1.5 -11q4 -18 30 -24.5t69 -6.5q18 0 45.5 1.5t45.5 1.5q6 0 6 -5v-3q0 -6 -4 -12.5t-11 -6.5h-145z" />
    <glyph glyph-name="backslash" unicode="\" horiz-adv-x="604" 
d="M586 -93q-9 0 -10 3.5t-1 13t-7 28.5q-11 31 -43 83t-77.5 117.5t-98.5 136.5t-107.5 140t-103.5 129t-86 102q-7 7 -7 18q0 8 5.5 14t16.5 6q6 0 35 -31.5t72.5 -85.5t95 -121t103.5 -138.5t97.5 -139t78 -122t43.5 -86.5q5 -13 7.5 -25t2.5 -22q0 -20 -16 -20z" />
    <glyph glyph-name="bracketright" unicode="]" horiz-adv-x="430" 
d="M33 -17q-10 0 -11 7q0 1 -0.5 2.5t-0.5 2.5q0 2 2 8t6.5 7t22.5 1h82q33 0 65 62.5t83 201.5q22 61 42 121.5t33 113.5t13 89v14t-2 12q-4 18 -29.5 24.5t-68.5 6.5q-18 0 -46 -1.5t-46 -1.5q-4 0 -6 5v3q0 6 4 12.5t11 6.5h145q16 0 34.5 -2t33.5 -8.5t18 -20.5
q2 -6 2 -13v-15q0 -36 -10.5 -87.5t-28 -111.5t-39.5 -121.5t-44.5 -117.5t-43.5 -99.5t-36 -67.5q-9 -13 -23 -23t-35 -10h-127z" />
    <glyph glyph-name="asciicircum" unicode="^" horiz-adv-x="334" 
d="M53 453q-3 0 -3 3t3 7q2 3 17.5 18t36 32.5t37.5 31t23 14.5q4 -1 19.5 -13.5t35 -29.5t35.5 -31t20 -19q4 -4 4 -8t-4 -4q-3 0 -4 1q-10 6 -32.5 20t-45 29t-33.5 23q-8 -6 -25 -18.5t-36 -25t-33 -21.5t-15 -9z" />
    <glyph glyph-name="underscore" unicode="_" horiz-adv-x="328" 
d="M1 -17l-3 2v16l3 3h338l2 -3v-16l-2 -2h-338z" />
    <glyph glyph-name="grave" unicode="`" horiz-adv-x="355" 
d="M274 540q-3 0 -5 1q-20 11 -49 26t-55.5 28.5t-41.5 19.5q-7 3 -7 13q0 8 5.5 16.5t13.5 8.5q5 0 9 -3q32 -21 62.5 -44t50.5 -40t20 -23q0 -3 -3 -3z" />
    <glyph glyph-name="a" unicode="a" horiz-adv-x="329" 
d="M30 -3q-24 0 -24 36q0 28 11 69.5t29 86.5t39.5 84.5t44 64.5t41.5 25h3l11 8q5 6 12.5 8t15.5 2q20 0 42 -8t30 -8q7 0 10.5 8t15.5 8q14 0 19.5 -6t5.5 -16q0 -14 -8 -32.5t-13 -30.5q-1 -4 -9 -6.5t-10 -6.5q-16 -46 -29 -93.5t-20 -82.5t-7 -43q0 -25 14 -25
q12 0 26 10.5t27.5 23.5t22.5 23.5t10 10.5q2 0 2 -4t-3 -12t-7 -11q-10 -9 -31 -27.5t-45 -34.5t-42 -16q-21 0 -25 25q0 18 6 46.5t13.5 58.5t13.5 50q-15 -20 -38.5 -51t-51 -61.5t-54.5 -51.5t-48 -21zM62 44q10 0 26.5 13.5t36 34.5t37 42t30 37.5t15.5 20.5
q16 26 31.5 56.5t25.5 56t10 35.5q0 6 -5 6h-3q-10 0 -20.5 2t-24.5 2t-30 -4q-9 -2 -25.5 -24.5t-36 -56.5t-37 -72.5t-29 -73.5t-11.5 -58q0 -17 10 -17z" />
    <glyph glyph-name="b" unicode="b" horiz-adv-x="292" 
d="M100 -8q-41 0 -61 19l-4 -9q-1 -3 -6 -3q-8 0 -19.5 11.5t-11.5 28.5q0 15 24 76q4 11 9.5 12t7.5 7q39 101 83 223t88 274q1 0 8.5 6t17.5 12t17 6q10 0 10 -15q-4 -16 -18 -55.5t-33 -92t-40 -109t-41 -108t-35 -88.5q10 14 28 38.5t40.5 52t46 52t44.5 40t35 15.5
q20 0 20 -37v-7q-1 -16 -6 -38.5t-13 -51.5q22 11 30 11q3 0 3 -2q0 -4 -12.5 -14.5t-25.5 -15.5q-16 -52 -33 -96.5t-43 -73.5q-7 -8 -23 -19.5t-34.5 -22.5t-33 -18.5t-19.5 -7.5zM91 132q35 29 78.5 54.5t74.5 41.5q11 29 14 51.5t4 35.5q0 21 -10 21q-16 0 -59 -55.5
t-102 -148.5zM107 24q24 0 45 20.5t38 50.5t28.5 60.5t17.5 50.5q-41 -22 -82.5 -45.5t-69.5 -53.5q-8 -16 -14 -30t-12 -26q24 -27 49 -27z" />
    <glyph glyph-name="c" unicode="c" horiz-adv-x="231" 
d="M65 -8q-26 0 -43.5 17t-17.5 54q0 36 13 80.5t33 87t40.5 73t36.5 37.5q31 11 48 22.5t42 11.5q20 0 33.5 -10t13.5 -37v-7.5t-1 -8.5q-3 -18 -12 -28t-17 -10q-12 0 -12 18q0 10 4 22.5t4 22.5q0 16 -17 16q-9 0 -24.5 -8.5t-30 -19.5t-21.5 -18q-8 -8 -23 -37
t-30.5 -68t-26.5 -77.5t-11 -65.5q0 -37 29 -37q32 0 59 17.5t48.5 40t34.5 40t16 18.5q5 -2 5 -7q0 -10 -14.5 -32.5t-39 -47t-55.5 -42t-64 -17.5z" />
    <glyph glyph-name="d" unicode="d" horiz-adv-x="339" 
d="M26 -7q-21 0 -21 30q0 26 12 67.5t31 88.5t42 88.5t45.5 68t40.5 26.5h4q11 0 16.5 7.5t20.5 7.5q20 0 43 -8t29 -8h0.5t0.5 1q8 22 19.5 51t22.5 59t20 54t12 36q-11 0 -11 12q0 11 6.5 27t14 29.5t9.5 16.5q4 8 16 8q8 0 15.5 -2.5t11.5 -4.5q3 -1 3 -9q0 -13 -10 -43
t-25.5 -69.5t-33 -84.5t-32.5 -89q1 1 2 1q4 0 8.5 -7t4.5 -13q0 -4 -3.5 -5t-6.5 -1q-4 0 -8.5 1t-5.5 2q-7 -17 -17.5 -46.5t-21.5 -64t-20.5 -67.5t-15.5 -57.5t-6 -34.5q0 -23 13 -23t27 10.5t27 25t22.5 25t12.5 10.5t3 -5t-3 -12.5t-4 -7.5q-7 -7 -22.5 -20t-35 -27.5
t-38 -24.5t-32.5 -10q-7 0 -13 5t-6 16q0 20 7 51.5t16 63t15 50.5q-10 -14 -28 -38t-41 -51t-47.5 -51t-46.5 -39.5t-38 -15.5zM62 43q11 0 28.5 15t36.5 36t34 38.5t20 23.5q31 34 51.5 73.5t33 70.5t17.5 39q0 5 -20 8t-39 3q-17 0 -25 -2t-25 -25t-38 -58t-40 -74
t-31.5 -74t-12.5 -58q0 -16 10 -16z" />
    <glyph glyph-name="e" unicode="e" horiz-adv-x="253" 
d="M86 -10q-12 0 -27.5 5.5t-27 20t-11.5 41.5q0 11 3 26q10 50 19.5 76t11.5 42q-3 1 -9 5t-6 11t6 9t11 2h7q8 17 17.5 37t28.5 54q17 32 44.5 42.5t62.5 10.5q34 0 47 -61q6 -31 6 -50q0 -24 -15.5 -38t-38 -21t-44.5 -9.5t-35 -2.5t-22.5 0.5t-13.5 0.5q-15 -38 -24 -73
t-9 -59q0 -40 30 -40q18 0 37.5 16t37.5 37t31 37t17 16q7 0 7 -8q0 -14 -16 -35.5t-39.5 -42.5t-47 -35t-38.5 -14zM149 217q38 0 57.5 8.5t20.5 37.5q0 41 -10.5 58t-19.5 17q-12 0 -25.5 -14.5t-26 -34.5t-22.5 -39.5t-14 -30.5q5 0 16 -1t24 -1z" />
    <glyph glyph-name="f" unicode="f" horiz-adv-x="210" 
d="M-103 -207q-35 0 -51.5 13t-21 32t-4.5 35q0 29 8.5 52.5t15.5 23.5q4 0 5 -6q-1 -7 -1.5 -14t-0.5 -14q0 -47 18.5 -74.5t43.5 -27.5q23 0 48 24.5t47 78.5q13 32 29.5 81.5t34 104.5t33 106t26 88t13.5 48q-4 -1 -27 -2.5t-40 -1.5q-23 0 -23 9q0 8 13.5 17t20.5 9h64
q3 9 10.5 36.5t18 61t19.5 62t15 40.5q17 36 36.5 54t42 24.5t47 7t49.5 2.5q9 -1 12.5 -8t3.5 -15q0 -13 -6.5 -27t-13.5 -14q-2 0 -6.5 10.5t-15 20.5t-29.5 10t-38.5 -12.5t-31.5 -43.5q-18 -46 -35.5 -98t-32.5 -111h98q28 0 28 -6t-14.5 -10t-36.5 -6.5t-44.5 -3.5
t-38.5 -1q-3 -7 -12 -37.5t-21.5 -73.5t-26.5 -90.5t-27 -90.5t-22 -72q-24 -76 -55.5 -117.5t-64 -57.5t-59.5 -16z" />
    <glyph glyph-name="g" unicode="g" horiz-adv-x="293" 
d="M108 65q-28 0 -40.5 16.5t-12.5 50.5q0 42 14.5 85.5t38.5 80t53.5 58.5t59.5 22q4 0 7.5 -0.5t7.5 -1.5q0 14 4.5 25t21.5 11q18 0 23.5 -12.5t5.5 -33.5q0 -11 -1 -24t-1 -25q3 -2 12 -8.5t9 -14.5q0 -3 -1 -5q-2 -3 -6 -3.5t-8 -0.5h-9q-2 -9 -5 -25.5t-5.5 -32
t-5.5 -21.5q-25 -64 -70 -102.5t-92 -38.5zM122 94q16 0 37.5 14.5t42 41t34 62t13.5 77.5q-9 2 -11 11.5t-2.5 21t-2.5 20t-11 8.5q-18 0 -34 -13.5t-29 -34t-22.5 -40t-14.5 -31.5q-8 -22 -16.5 -52.5t-8.5 -53.5q0 -31 25 -31zM0 -350q-31 0 -52 11t-21 42q0 30 15.5 72
t37.5 84.5t44 76.5t34 48q2 2 7.5 5t12.5 5q-13 8 -26.5 14t-13.5 15q0 11 9.5 20.5t19.5 9.5h4q30 -11 60 -38t54.5 -62.5t39.5 -74t15 -72.5v-10t-1 -10q-4 -27 -29 -51t-61.5 -43.5t-76 -30.5t-72.5 -11zM2 -325q25 0 57 9.5t62.5 24.5t50.5 32t20 32v13q0 38 -14 74.5
t-36 67.5t-47 52q-10 -16 -33 -48t-47.5 -72t-42 -78t-17.5 -66q0 -41 47 -41z" />
    <glyph glyph-name="h" unicode="h" horiz-adv-x="310" 
d="M179 -46q-11 0 -18 8t-7 29q0 29 11.5 69.5t28 84t33 82.5t28 66.5t11.5 34.5q0 2 -1 2q-4 0 -18 -15q-57 -64 -91.5 -115t-54 -90t-31 -64.5t-23 -38.5t-30.5 -13q-9 0 -9 10q0 9 5 20q46 118 79 228.5t73 230.5q2 7 2.5 11t0.5 7q0 5 -1 7t-1 6t3 13q15 41 26 64t25 32
t37 9q14 0 15 -9q-55 -112 -101 -235.5t-76 -232.5q11 17 30 46t43.5 61t51 61t52.5 47t48 18q21 0 21 -14q0 -9 -7 -20q-22 -36 -47.5 -84t-48 -99t-37 -97t-14.5 -79q0 -14 8 -14q5 0 18 9t17 9q5 0 5 -6q0 -12 -18.5 -25.5t-37.5 -13.5z" />
    <glyph glyph-name="i" unicode="i" horiz-adv-x="168" 
d="M184 449q-14 0 -17 10.5t-3 22.5q0 15 15 31.5t35.5 28t34.5 11.5q5 0 6 -3q0 -11 -8.5 -21t-18.5 -20t-16 -23q-4 -10 -10 -22t-18 -15zM37 -6q-19 0 -19 18q0 9 4 21q22 63 36 103.5t22 64t11 36t3 20.5q0 5 -1.5 7t-1.5 6t3 13q21 61 38 83t51 22q14 0 15 -9
q-10 -19 -32.5 -62t-47.5 -106.5t-44 -145.5q-1 -3 -1 -8q0 -12 10 -12q6 0 19 7.5t27 15t21 7.5t8 -4q0 -6 -15 -18.5t-36 -26t-40.5 -23t-29.5 -9.5z" />
    <glyph glyph-name="j" unicode="j" horiz-adv-x="201" 
d="M192 452q-5 0 -9.5 8.5t-7 18.5l-3.5 14q0 15 17 30t37.5 25t30.5 10q14 0 14 -9t-18 -19q-17 -10 -25.5 -28.5t-15.5 -34t-20 -15.5zM-78 -265q-38 0 -56.5 15t-23.5 36.5t-5 40.5q0 26 6.5 45t12.5 19q4 0 5 -6v-10q0 -55 20.5 -88.5t48.5 -33.5q22 0 44.5 24t38.5 77
q21 68 38 125t34 118.5t37 141.5q2 6 2 10v7q0 6 -1.5 8.5t-1.5 6.5q0 2 0.5 5t1.5 7q16 61 31.5 83t48.5 22q13 0 16 -9q-43 -103 -76.5 -223t-58.5 -230q-17 -76 -45 -117.5t-59 -57.5t-58 -16z" />
    <glyph glyph-name="k" unicode="k" horiz-adv-x="269" 
d="M6 -21q-7 0 -7 9q0 4 5 19q47 118 83.5 237t76.5 239q4 12 4 18q0 5 -1.5 7t-1.5 6t3 13q15 41 26 64t25.5 32t36.5 9q14 0 15 -9q-37 -75 -66.5 -142t-53 -136t-44.5 -151l19 16.5t46.5 41t56.5 50t50.5 44.5t26.5 23q14 11 25 15.5t16 4.5q6 0 6 -4q0 -11 -27 -32
q-34 -20 -65 -46.5t-55.5 -53t-38.5 -47.5t-14 -29q0 -20 9.5 -44.5t23.5 -49t28.5 -43.5t24.5 -27q19 -16 19 -26q0 -6 -9 -6q-17 0 -36 17t-37.5 42t-34 52t-27 47.5t-15.5 27.5q-3 -8 -10 -29.5t-15 -46.5t-14 -46t-6 -28q0 -4 -9 -13.5t-20 -17t-19 -7.5z" />
    <glyph glyph-name="l" unicode="l" horiz-adv-x="179" 
d="M36 -6q-19 0 -19 18q0 10 4 21q29 79 51.5 151.5t44.5 145.5t47 153q2 7 2.5 11t0.5 7q0 5 -1.5 7.5t-1.5 6.5q0 3 3 12q20 62 36.5 83.5t50.5 21.5q14 0 15 -9q-27 -56 -55.5 -127t-55.5 -147t-49 -149.5t-36 -134.5q-1 -3 -1 -8q0 -12 10 -12q7 0 20 7.5l26 15t20 7.5
q6 0 9 -4q0 -6 -14.5 -18.5t-35.5 -26t-40.5 -23t-30.5 -9.5z" />
    <glyph glyph-name="m" unicode="m" horiz-adv-x="488" 
d="M379 -44q-13 0 -21 9t-8 33q0 25 9 56t22 63.5t26.5 62t22.5 50.5q13 30 22 53.5t9 33.5q0 7 -5 7q-3 0 -11 -5q-27 -18 -65 -58.5t-74 -100t-57 -136.5q-2 -8 -21 -18.5t-32 -10.5q-12 0 -12 9q0 1 0.5 2t0.5 2q9 43 25.5 99.5t35 112.5t33.5 95q5 13 5 18t-3 5
q-5 0 -15 -11q-73 -84 -115 -148.5t-65.5 -108t-40 -65.5t-39.5 -22q-8 0 -8 8q0 11 9.5 29t11.5 24q10 24 20 53.5t19.5 58.5t16.5 51.5t10 31.5q4 12 4 18q0 5 -1.5 7t-1.5 6t3 13q21 61 38 83t50 22q14 0 15 -9q-7 -15 -20.5 -43t-29 -63t-29 -70t-19.5 -64
q13 20 34.5 53t49 69.5t57 69.5t58.5 53.5t54 20.5q8 0 14 -2.5t6 -10.5q0 -9 -7 -20q-43 -72 -69.5 -132.5t-40.5 -126.5q24 47 45 82.5t45.5 65t57 58.5t78.5 62q7 5 22 10t28 5q20 0 20 -14q0 -7 -6 -19q-26 -46 -56 -105.5t-54.5 -122t-35.5 -117.5q-3 -10 -3 -20
q0 -14 9 -14q6 0 21 9.5t19 9.5q5 0 5 -6q0 -12 -21.5 -26.5t-44.5 -14.5z" />
    <glyph glyph-name="n" unicode="n" horiz-adv-x="326" 
d="M208 -34q-14 0 -21.5 9.5t-7.5 33.5q0 33 11.5 74t28 84t33.5 82t27 66q5 13 5 20q0 5 -3 5q-5 0 -22 -18q-14 -16 -38.5 -47.5t-52.5 -71t-54 -78t-42.5 -68.5t-17.5 -42q0 -4 -9 -12t-20.5 -14t-19.5 -6q-7 0 -8 7q1 -1 9 19.5t19.5 53.5t23.5 68.5t22 65t14 42.5
q4 12 4 18q0 5 -1.5 7t-1.5 6t3 13q15 41 26 64t25 32t37 9q14 0 15 -9q-7 -15 -20.5 -43t-29 -63t-29 -70t-19.5 -64q12 20 33.5 52.5t49 69.5t57 69.5t59 53.5t54.5 21q8 0 14 -2.5t6 -10.5q0 -9 -7 -20q-24 -39 -48.5 -89t-45 -101t-33 -96t-12.5 -74q0 -18 8 -18
q3 0 11 5t16.5 10t11.5 5q6 0 6 -6q0 -8 -10.5 -18t-25.5 -17t-30 -7z" />
    <glyph glyph-name="o" unicode="o" horiz-adv-x="261" 
d="M79 -19q-25 0 -41.5 20.5t-16.5 63.5q0 10 1 21.5t3 24.5q3 17 12.5 49.5t24.5 70.5t34.5 72.5t43 56.5t50.5 22h7q0 13 8 23.5t22 10.5q11 -1 16 -18.5t8.5 -40t10.5 -40t22 -19.5q19 -3 19 -11t-19 -18q-7 -3 -13 -4t-10 -1q0 -63 -18 -115t-46.5 -89.5t-59.5 -58
t-58 -20.5zM94 11q18 0 41.5 20.5t45.5 57t37 83.5t15 100q-8 5 -15.5 21t-13.5 30.5t-11 14.5q-14 0 -30 -19.5t-31 -49t-28 -62.5t-22 -61.5t-12 -43.5q-2 -13 -3 -23.5t-1 -18.5q0 -49 28 -49z" />
    <glyph glyph-name="p" unicode="p" horiz-adv-x="298" 
d="M-56 -276q-12 0 -12 25q0 14 7.5 41.5t19.5 62.5t25.5 71.5t25.5 68.5t19 52q-3 8 -3 17q0 10 5 20t17 17q9 29 21.5 67t24.5 75.5t20.5 66t11.5 38.5q0 2 -11 2.5t-11 6.5q0 7 8 11t15.5 6.5t7.5 3.5q-4 4 -4 8q0 10 9.5 20.5t21.5 18.5t20 8t8 -10q0 -3 -1 -8t-4 -11
l-11 -24q41 -28 62.5 -71.5t31.5 -91.5q13 4 27 9t27 8q3 1 6 1h5q7 0 7 -3q0 -8 -11.5 -13.5t-27 -9.5t-29.5 -10q3 -16 4 -30t1 -27q0 -56 -20.5 -89t-51 -46.5t-61.5 -13.5q-23 0 -48 6.5t-42 19.5q-19 -55 -37.5 -107.5t-32.5 -95.5q-1 -2 -1 -4q0 -5 3.5 -9t3.5 -12
q0 -5 -6.5 -21t-17 -30t-22.5 -14zM99 137q23 16 53.5 31t71.5 31q-11 58 -30 94t-29 36q-3 0 -9.5 -18.5t-16 -48t-20 -62.5t-20.5 -63zM134 16q37 0 59 17t31.5 43.5t9.5 54.5q0 13 -1.5 26t-3.5 26q-9 0 -29 -9.5t-42.5 -23.5t-42 -27t-27.5 -21l-22 -63q20 -13 36.5 -18
t31.5 -5z" />
    <glyph glyph-name="q" unicode="q" horiz-adv-x="311" 
d="M149 -224q-20 0 -23 25q0 20 9 57t23.5 82t31 90.5t31 84t23.5 62.5q-16 -20 -42.5 -51t-57.5 -61.5t-60.5 -51.5t-50.5 -21q-23 0 -23 31q0 27 13.5 69t35.5 89t48 88.5t51.5 67.5t45.5 26h3l11 8q5 6 12.5 8t15.5 2q20 0 42 -8t29 -8t11.5 8t16.5 8q27 0 27 -25
q0 -14 -7 -31.5t-12 -28.5q-1 -4 -9 -6.5t-10 -6.5q-44 -105 -83.5 -206.5t-65.5 -213.5q-4 -16 -4 -28q0 -18 11 -18q12 0 27 10.5t29.5 25t25.5 25t15 10.5q5 0 5 -7q0 -6 -3.5 -13t-5.5 -8q-8 -7 -24.5 -20.5t-37 -28t-40 -25t-34.5 -10.5zM74 44q10 0 27.5 13.5t38 34.5
t39.5 42t33 37.5t17 20.5q18 27 35.5 58t29 56t11.5 35q0 5 -4 5h-3q-10 0 -20.5 2.5t-24.5 2.5q-7 0 -14 -1t-16 -4q-7 -1 -25.5 -24t-41 -58t-43.5 -74t-34.5 -74t-13.5 -58q0 -14 9 -14z" />
    <glyph glyph-name="r" unicode="r" horiz-adv-x="270" 
d="M15 -6q-6 0 -9 5q0 26 6.5 48.5t16.5 26.5q14 52 21 80.5t10 42.5t5 22.5t5 20.5q2 5 2 9v7q0 8 -2 9.5t-2 7.5q0 2 0.5 4.5t1.5 6.5q16 62 32 85.5t49 23.5q12 0 14 -8q-5 -14 -21.5 -52.5t-35 -89.5t-30.5 -103q8 15 25.5 44.5t41 64.5t50.5 66.5t52.5 52t46.5 20.5
q12 0 18 -8.5t6 -21.5t-6 -30t-17 -33q-7 -10 -20.5 -21t-21.5 -11q-6 0 -6 6q0 5 5 16.5t9.5 24t4.5 20.5q0 7 -5 7q-18 0 -45.5 -30t-58.5 -78.5t-58 -104t-43 -106.5q-6 -8 -19 -16t-22 -8z" />
    <glyph glyph-name="s" unicode="s" horiz-adv-x="254" 
d="M32 -17q-8 0 -13 6.5t-5 13.5q0 12 11 12q12 0 36.5 5t51 13.5t45.5 20.5t19 26q0 13 -14.5 26.5t-35.5 27.5t-42.5 29t-36 31.5t-14.5 35.5q0 8 2.5 16t9.5 16q30 38 65.5 61.5t66.5 36t47 18.5q5 2 12 3.5t14 1.5q14 0 25 -8.5t11 -31.5q-1 -10 -8 -25.5t-17.5 -31.5
t-20.5 -26.5t-17 -10.5q-4 0 -4 6q0 9 5.5 23t11 27.5t5.5 21.5q0 15 -18 15q-7 0 -15.5 -1.5t-17.5 -3.5q-6 -1 -23 -8.5t-36 -19.5t-33 -27.5t-14 -33.5q0 -11 5 -20q12 -24 33 -37.5t42 -24t35.5 -23t14.5 -35.5q0 -24 -20 -46.5t-50.5 -40t-61 -28t-51.5 -10.5z" />
    <glyph glyph-name="t" unicode="t" horiz-adv-x="231" 
d="M78 -8q-13 0 -18 8t-5 21q0 20 9 47.5t15 46.5q22 69 37.5 129t26.5 100q-4 -1 -27 -2.5t-40 -1.5q-23 0 -23 9q0 8 13.5 17t20.5 9h64l4 14q3 12 3 17q0 6 -2 8t-2 6q0 3 3 12q13 42 24 65t25 32t36 9q15 0 16 -9q-6 -13 -23 -54.5t-38 -99.5h97q28 0 28 -6t-14.5 -10
t-36.5 -6.5t-44.5 -3.5t-38.5 -1q-13 -38 -28.5 -86.5t-29.5 -97t-23 -86.5q-5 -20 -5 -29q0 -17 11 -17q13 0 28.5 10.5t30 25t26 25t15.5 10.5q5 0 5 -6t-3 -13t-8 -9q-8 -7 -24 -20.5t-35 -28t-37.5 -24.5t-32.5 -10z" />
    <glyph glyph-name="u" unicode="u" horiz-adv-x="333" 
d="M170 -63q-13 0 -13 11q0 10 15 20.5t22 26.5q3 8 12 38.5t20.5 70t21 75.5t14.5 55q-11 -17 -33.5 -46.5t-50.5 -63t-57.5 -64t-55.5 -50t-44 -19.5q-14 0 -14 18q0 15 11 43q6 14 18.5 41t26 58.5t23 59t9.5 42.5q0 7 -2 9.5t-2 7.5q0 2 0.5 4.5t1.5 6.5q11 41 20.5 64
t23.5 32t38 9q14 0 17 -9q-4 -10 -17 -41.5t-30.5 -74t-34 -84t-27.5 -72t-11 -37.5q0 -4 3 -4q4 0 10.5 5t13.5 11q59 45 102 101.5t74 114.5q1 15 7.5 38t22.5 41t42 18q11 0 12 -9q-5 -16 -20.5 -57t-32.5 -89q-8 -24 -18 -56.5t-19.5 -65.5t-15.5 -58t-6 -33q0 -3 2 -3
q9 1 24.5 13t32.5 24.5t28 12.5q2 0 5 -1t3 -4q0 -6 -14 -17t-33.5 -23t-36 -22t-22.5 -14q-10 -8 -21.5 -21t-22.5 -23t-22 -10z" />
    <glyph glyph-name="v" unicode="v" horiz-adv-x="349" 
d="M57 -11q-6 0 -6 5q0 10 3.5 12t8.5 6.5t10 22.5t9.5 60.5t6.5 120.5q0 15 -2 20t-4 7.5t-4 9.5t-2 25q0 46 9 66.5t40 20.5q15 0 19 -9q-10 -78 -20.5 -157.5t-17.5 -157.5q6 6 28 24.5t50.5 49.5t56.5 75.5t47 104.5q1 3 1.5 6t0.5 6q0 10 -4 17.5t-4 15.5t10 23
t23 27.5t23 12.5q11 0 11 -21q0 -11 -3 -28q-9 -50 -36 -101.5t-62.5 -98.5t-73 -84.5t-69.5 -59t-49 -21.5z" />
    <glyph glyph-name="w" unicode="w" horiz-adv-x="493" 
d="M83 -19q-10 0 -22 14t-12 25q0 3 1 4q20 50 31 95t11 95q0 68 -14 93t-28 25q-3 0 -13.5 -8t-16.5 -8q-3 0 -3 3q0 10 12.5 24t28.5 25t25 11q17 0 26 -21.5t12 -54t3 -65.5q0 -25 -1 -46.5t-2 -34.5q6 11 20.5 36t34 56t39.5 59.5t36.5 47t26.5 18.5q8 11 20 11
q19 0 19 -22q0 -4 -1 -8t-1 -9q0 -4 2.5 -12.5t6.5 -19.5q7 -21 15 -55l16 -68t13.5 -57.5t6.5 -23.5q5 0 17.5 17.5t28 45t30.5 60t25.5 63.5t11.5 53q0 9 -4 18t-4 19q0 12 10 23h1q11 9 17 9q10 0 15.5 -10.5t8 -24t2.5 -22.5q0 -4 -11 -29t-29 -63t-41.5 -81.5
t-49.5 -84.5q-12 -19 -18 -30.5t-9 -20.5t-6.5 -21.5t-10.5 -34.5q-4 -7 -11 -7q-10 0 -20.5 12.5t-10.5 23.5q0 6 0.5 12.5t0.5 13.5q0 55 -13 127.5t-42 142.5q-15 -9 -36.5 -39.5t-44.5 -72t-43 -85t-32.5 -79.5t-12.5 -53q-3 -11 -11 -11z" />
    <glyph glyph-name="x" unicode="x" horiz-adv-x="282" 
d="M-66 -111q-9 0 -9 18q0 16 18.5 44.5t47.5 63.5t60 71t57.5 67t39.5 50q-1 3 -4.5 20.5t-11 38.5t-19.5 37t-29 16q-7 0 -14 -1t-12 -1q-13 0 -14 12q0 2 6.5 7t14.5 9t11 4q12 1 20.5 9t15 16t10.5 8h1q10 0 20.5 -18t19.5 -43t15.5 -47.5t7.5 -30.5q6 11 25.5 34.5
t43 49t43 43.5t26.5 18q11 0 11 -15q0 -10 -4 -20t-9 -14q-9 -3 -10 -3t-2 0.5l-1 0.5q-2 0 -12 -9.5t-22.5 -22t-22.5 -23t-12 -13.5q-20 -20 -34 -34.5t-14 -16.5t5.5 -20.5t13 -45t15 -55t13 -52.5t5.5 -35q0 -6 -6 -18t-14.5 -22t-18.5 -10q-3 0 -8 24.5t-11 61.5
t-13 74t-16 61q-52 -69 -105.5 -130.5t-96.5 -137.5q-4 -7 -10 -13.5t-11 -6.5z" />
    <glyph glyph-name="y" unicode="y" horiz-adv-x="317" 
d="M-71 -330q-16 0 -16 19q0 25 17.5 62t43.5 78t52 78.5t44.5 63.5t20.5 31q6 18 8.5 41t2.5 49q0 50 -6.5 97t-19 78t-32.5 31q-4 0 -8 -0.5t-6 -0.5q-4 0 -4 5q0 3 4.5 9t17.5 15q5 4 11.5 14t13.5 19t13 9q15 0 27 -30.5t19.5 -78t7.5 -99.5q0 -12 -0.5 -24t-0.5 -24
q0 -16 8 -16q10 0 29 21t41.5 53t43.5 66.5t34.5 62t13.5 38.5q0 6 -5 6q-3 0 -7 -2t-8 -2q-5 0 -8 5q0 9 14.5 19.5t32.5 18t29 7.5q5 0 7 -1q3 -4 3 -11q0 -15 -14.5 -44t-37.5 -64.5t-50 -73t-53 -71t-45.5 -58t-27.5 -33.5q0 7 -2.5 -3.5t-6 -28t-9 -32t-11.5 -14.5
q-5 0 -10.5 2.5t-7.5 2.5q-74 -100 -104.5 -154t-30.5 -78q0 -12 4 -18.5t4 -12.5q0 -11 -12.5 -19t-23.5 -8z" />
    <glyph glyph-name="z" unicode="z" horiz-adv-x="303" 
d="M259 -10q-7 0 -10 3.5t-3 6.5q-27 2 -51 3.5t-45 1.5q-49 0 -83.5 -3.5t-52.5 -3.5q-14 0 -19.5 6.5t-5.5 16.5q0 12 6 24.5t13 19.5q21 21 53 52t68.5 68t73 77t67.5 77h-54q-35 0 -59 -2.5t-32 -11.5q-2 -2 -9.5 -11.5t-15 -18t-9.5 -8.5q-9 0 -9 7q0 41 22 60t80 19
q8 0 23 0.5t34 0.5q22 0 43 -1.5t35.5 -5.5t14.5 -12q0 -6 -1 -10q-5 -20 -13.5 -27.5t-15.5 -9t-8 -4.5q-21 -17 -55 -49t-71.5 -70t-70 -74.5t-50.5 -62.5q-2 -2 -2 -6q0 -9 20 -12.5t48 -3.5q29 0 61 2.5t58 6t36 5.5q11 3 17 3q10 0 10 -7q0 -11 -11.5 -28.5
t-26.5 -17.5z" />
    <glyph glyph-name="braceleft" unicode="{" horiz-adv-x="323" 
d="M200 -122q-28 0 -55 5t-44 21t-17 50q0 41 13.5 79.5t26.5 77t13 78.5q0 32 -15.5 46.5t-35 19t-35 6t-15.5 6.5q0 8 18 13q44 5 72 14t46.5 31.5t31.5 67.5q10 34 17 68.5t18.5 66.5t32.5 57.5t57 40t94 14.5h1q5 0 5 -9q0 -11 -10 -12q-54 0 -83.5 -18t-44 -50.5
t-25.5 -76.5q-10 -40 -27 -84.5t-46.5 -79t-77.5 -45.5q26 -10 42.5 -31.5t16.5 -52.5q0 -39 -12.5 -76.5t-25.5 -75t-13 -76.5q0 -30 15 -41.5t35 -13.5t35 -2t15 -6q0 -4 -6.5 -8t-16.5 -4z" />
    <glyph glyph-name="bar" unicode="|" horiz-adv-x="219" 
d="M109 -88q-9 0 -9 15q0 3 2 11q3 11 4.5 33t2 49t0.5 51.5v39.5v333q0 63 -2 97t-4 50t-2 25q0 7 6 8.5t11 1.5q20 0 28 -16t10 -36t2 -34q0 -23 -1 -73t-3.5 -114.5t-5.5 -132.5t-6.5 -129.5t-8.5 -106t-10 -59.5q-7 -13 -14 -13z" />
    <glyph glyph-name="braceright" unicode="}" horiz-adv-x="425" 
d="M32 -121q-5 0 -5 9t10 12q55 0 84 18t43.5 50.5t25.5 76.5q10 40 27 84.5t47 79.5t77 45q-26 10 -42.5 31.5t-16.5 52.5q0 39 13 76.5t25.5 75t12.5 75.5q0 30 -15.5 42t-35 14t-35 2t-15.5 6q0 4 7 8t17 4q29 0 55 -5t43 -21t17 -50q0 -40 -13 -79t-26.5 -77.5
t-13.5 -78.5q0 -32 15.5 -46.5t35.5 -19t35.5 -6t15.5 -6.5q0 -8 -18 -13q-44 -4 -72.5 -13.5t-46.5 -32t-31 -67.5q-10 -34 -17 -68.5t-18.5 -66.5t-32.5 -57.5t-57 -40t-94 -14.5h-1z" />
    <glyph glyph-name="asciitilde" unicode="~" horiz-adv-x="304" 
d="M184 437q-17 0 -33.5 7t-32.5 13.5t-33 6.5q-15 0 -24.5 -6.5t-16 -13t-13.5 -6.5q-2 0 -2 2q0 5 9 14t19.5 17t14.5 10q16 10 36 10q25 0 48 -10.5t47 -10.5q14 0 24 5.5t18 15.5q6 0 6 -4q0 -15 -15.5 -26t-31.5 -17.5t-20 -6.5z" />
    <glyph glyph-name="uni00A0" unicode="&#xa0;" horiz-adv-x="200" 
 />
    <glyph glyph-name="exclamdown" unicode="&#xa1;" horiz-adv-x="202" 
d="M114 345q-3 0 -3 2q9 47 15.5 67.5t31.5 20.5q11 0 13.5 -13.5t2.5 -24.5v-1q0 -12 -12.5 -24t-26.5 -19.5t-21 -7.5zM-113 -250q-12 0 -21 2.5t-9 8.5q0 2 2 6q5 7 21.5 36t39.5 72.5t47 92.5t45 95.5t34 82.5t13 52q0 8 -3.5 11t-3.5 7q0 8 13 15.5t23 7.5q2 0 3 -0.5
t2 -0.5q5 -4 5 -16q0 -18 -10.5 -51.5t-26.5 -73.5t-33.5 -80.5t-32.5 -74t-23 -52.5q-4 -10 -13 -27t-18.5 -35t-16 -32.5t-6.5 -19.5t8 -4.5t10 -7.5q0 -6 -16 -10t-33 -4z" />
    <glyph glyph-name="cent" unicode="&#xa2;" horiz-adv-x="231" 
d="M96 -2q-10 0 -13 11t-3 24q0 29 11.5 70.5t29.5 90.5h-6q-22 0 -37.5 11.5t-15.5 38.5q0 28 12 61t30 64.5t37.5 54.5t33.5 29q17 5 31 12.5t26 10.5q26 63 40.5 96.5t23 46t15.5 12.5q1 0 2 -0.5t2 -0.5q4 -2 4 -8q0 -3 -3 -11q-13 -26 -27.5 -60.5t-31.5 -72.5
q18 -1 30 -8.5t12 -26.5q0 -18 -9.5 -28.5t-18.5 -10.5q-10 0 -10 13q0 7 3.5 16t3.5 16q0 13 -18 13q-25 -59 -50.5 -122.5t-46.5 -120.5q32 9 57.5 29.5t41.5 38.5t19 18q4 0 4 -5q0 -9 -17.5 -29.5t-46.5 -41t-65 -30.5q-20 -56 -32 -98.5t-12 -60.5q0 -16 7 -19.5
t7 -4.5q0 -12 -10.5 -15t-9.5 -3zM119 215h9q22 56 47.5 120t47.5 117q-12 -6 -23 -13t-16 -11q-7 -6 -21 -28t-28.5 -51t-24.5 -58t-10 -49q0 -26 19 -27z" />
    <glyph glyph-name="sterling" unicode="&#xa3;" horiz-adv-x="817" 
d="M604 -83q-62 0 -123.5 13.5t-120 33t-114.5 38.5q-28 10 -64 20t-62 10q-19 0 -33.5 -9t-14.5 -36q0 -5 -9 -5q-7 0 -15 7t-8 26q0 52 66 52q23 0 46.5 -5.5t66.5 -19.5q9 11 24 38.5t33.5 65t35 78t28.5 76.5q-12 0 -34.5 -0.5t-43.5 -0.5q-14 0 -24.5 2t-10.5 11
q0 14 12.5 16t25.5 2q20 0 41 -0.5t40 -0.5q10 23 22.5 65t31 91t46.5 93t69.5 72.5t99.5 28.5q44 0 73 -27.5t29 -68.5q0 -37 -16 -55t-32 -18q-5 0 -9.5 1.5t-4.5 4.5t9.5 10.5t18.5 22t9 37.5q0 32 -23 53t-67 21q-38 0 -67.5 -23.5t-52 -62t-40 -83.5t-31 -87.5
t-25.5 -74.5h35t53 -1.5t48.5 -5t20.5 -11.5q0 -11 -35 -11q-25 0 -51.5 0.5t-47 1t-29.5 0.5q-11 -27 -26 -63.5t-32.5 -75.5t-37 -74t-40.5 -58q36 -17 82.5 -31.5t97.5 -24.5t100 -15.5t89 -5.5q31 0 62 12t52 35.5t21 58.5q0 30 -9.5 47.5t-19 26t-9.5 10.5q0 9 12 9
q17 0 34 -23t17 -63q0 -50 -23.5 -83.5t-62 -50t-83.5 -16.5z" />
    <glyph glyph-name="currency" unicode="&#xa4;" horiz-adv-x="479" 
d="M49 90l102 96q-35 22 -35 65q0 35 18.5 63t48.5 46l-53 81l29 9q2 -6 12.5 -29.5t26.5 -52.5q39 17 84 17q35 0 60 -12q28 27 47.5 48t24.5 27l23 -9q-7 -7 -30.5 -27t-52.5 -47q29 -21 29 -61t-22.5 -70t-57.5 -47q22 -35 40.5 -63t22.5 -33h-33q-2 7 -15.5 31.5
t-32.5 56.5q-29 -10 -64 -10t-58 11l-82 -90h-32zM233 198q52 0 82 29.5t30 67.5q0 27 -17 46t-55 19q-52 0 -85 -26.5t-33 -67.5q0 -28 19.5 -48t58.5 -20z" />
    <glyph glyph-name="yen" unicode="&#xa5;" horiz-adv-x="520" 
d="M84 0q-6 0 -11.5 2t-5.5 8v2q17 31 30 59.5t25 69.5q-16 -1 -30.5 -1.5t-28.5 -0.5h-18t-16 1q-2 0 -4.5 -0.5t-5.5 -0.5q-14 0 -20.5 7.5t-6.5 13.5q0 11 11.5 18t20.5 7q12 0 24.5 -3.5t18.5 -3.5q16 0 32 -0.5t33 -1.5q-1 0 4 19t6 34q-16 -1 -31.5 -1.5t-29.5 -0.5
h-18.5t-16.5 1q-2 0 -4.5 -0.5t-5.5 -0.5q-14 0 -20.5 7.5t-6.5 13.5q0 11 11.5 18t20.5 7q12 0 24.5 -3.5t18.5 -3.5q15 0 30 -0.5t31 -1.5v6.5t-1 5.5q-28 74 -54 149t-53 159q-4 11 -5.5 21.5t-1.5 17.5q0 20 16 25.5t29 5.5q10 0 26 -3.5t16 -10.5q0 -5 -6 -9.5t-5 -4.5
q-13 -3 -13 -28t10.5 -64.5t26 -82.5t31 -81t24.5 -61q9 8 36 32.5t62 60t70 75.5t61.5 78.5t33.5 69.5q5 19 12.5 30.5t24.5 11.5q7 0 15 -3.5t8 -16.5t-16.5 -39t-41 -56.5t-47.5 -58.5q-50 -61 -101 -110t-105 -99q-1 -4 -3 -10l-4 -12h34q10 0 29 0.5t61 2.5q25 0 25 -6
q0 -5 -22.5 -10.5t-58 -9.5t-75.5 -7q-3 -14 -6 -29t-5 -29h26t29 1l13 0.5t30 1t27 0.5q25 0 25 -6q0 -5 -22.5 -10.5t-58 -9.5t-74.5 -7q-5 -31 -7.5 -57t-8 -45.5t-21 -30.5t-46.5 -11z" />
    <glyph glyph-name="brokenbar" unicode="&#xa6;" horiz-adv-x="219" 
d="M153 322l-44 2v120q0 63 -2 97t-4 50t-2 25q0 7 6 8.5t11 1.5q20 0 28 -16t10 -36t2 -34q0 -26 -1 -85.5t-4 -132.5zM109 -91q-9 0 -9 15t2.5 31.5t5 41.5t2.5 65q0 36 -0.5 88.5t-0.5 126.5l42 1q-3 -73 -6.5 -139.5t-8 -118.5t-11 -81.5t-16.5 -29.5z" />
    <glyph glyph-name="section" unicode="&#xa7;" horiz-adv-x="626" 
d="M97 -250q-48 0 -71.5 11t-31.5 27.5t-8 32.5v7q0 8 5 22t22 14q8 0 8.5 -13t9.5 -27q15 -26 41 -34t64 -8q35 0 72.5 11t71 31.5t54 49t20.5 63.5q0 32 -23 53.5t-59 37t-76.5 30.5t-76.5 35t-59 49.5t-23 73.5q0 58 45 109t114 80q-10 21 -10 49q0 43 25 82.5t68 70
t97 48.5t112 18q43 0 64.5 -15.5t29 -38.5t7.5 -46q0 -5 -3 -17t-9.5 -21.5t-15.5 -9.5q-7 0 -7 13v21q0 46 -28 61.5t-69 15.5q-28 0 -66.5 -10t-75.5 -29.5t-62 -48t-25 -66.5q0 -2 0.5 -4.5t0.5 -4.5q5 -43 31 -70.5t63 -45.5t77.5 -32t76 -29t58 -36t22.5 -54
q0 -36 -22.5 -73t-61 -68t-85.5 -50q9 -10 14.5 -22t5.5 -26q0 -40 -25.5 -78.5t-69 -70t-99.5 -50t-117 -18.5zM369 33q34 12 64.5 33.5t50 49.5t19.5 59q0 33 -22 53.5t-57 35.5t-75 29.5t-76.5 35t-61.5 51.5q-33 -12 -63.5 -32t-49.5 -46t-19 -58q0 -2 0.5 -4.5
t0.5 -4.5q5 -36 24.5 -61t49 -41.5t62 -29t62.5 -24.5q25 -10 48.5 -21t42.5 -25z" />
    <glyph glyph-name="dieresis" unicode="&#xa8;" horiz-adv-x="395" 
d="M240 434q-12 0 -15 8.5t-3 18.5q0 18 17.5 35t33.5 17q5 0 6 -3q0 -13 -6 -31.5t-6 -23.5q0 -10 -9.5 -14.5t-17.5 -6.5zM132 434q-10 0 -13.5 8.5t-3.5 18.5q0 18 17 35t34 17q4 0 5 -3q0 -13 -6 -31.5t-6 -23.5q0 -10 -9.5 -14.5t-17.5 -6.5z" />
    <glyph glyph-name="copyright" unicode="&#xa9;" horiz-adv-x="799" 
d="M324 -8q-95 0 -156 35t-90 93t-29 126q0 69 28 139.5t82 129t131.5 94.5t176.5 36q103 0 167.5 -34.5t95.5 -91t31 -123.5q0 -69 -30.5 -140t-88 -131t-138 -96.5t-180.5 -36.5zM332 12q68 0 126.5 24t105 64.5t79.5 91.5t50.5 106.5t17.5 108.5q0 60 -24.5 110.5
t-76.5 80.5t-136 30q-68 0 -127 -24t-107 -65t-82 -93t-52.5 -108t-18.5 -109q0 -59 25 -108.5t79 -79t141 -29.5zM352 95q-61 0 -100.5 23t-58 60.5t-18.5 82.5q0 48 20 98.5t58.5 93.5t93 69t122.5 26q24 0 49.5 -5t39.5 -25q5 12 6 23.5t9 11.5t8 -7q0 -12 -4.5 -24
t-7.5 -23q4 -9 5 -18.5t1 -20.5q-1 -9 -3.5 -21.5t-14.5 -12.5q-19 0 -19 16q0 14 4 26.5t8 24.5q-10 16 -34.5 25t-53.5 9q-57 0 -102 -23.5t-77 -61.5t-49 -83t-17 -88q0 -40 16 -74.5t49 -55t85 -20.5q61 0 103.5 16t69.5 37t41 37t17 16q2 0 2 -1q3 -1 3 -5
q0 -28 -26 -51t-65.5 -40t-82.5 -26t-77 -9z" />
    <glyph glyph-name="ordfeminine" unicode="&#xaa;" horiz-adv-x="329" 
d="M30 287q-24 0 -24 36q0 28 11 69.5t29 86.5t39.5 84.5t44 64.5t41.5 25h3l11 8q5 6 12.5 8t15.5 2q20 0 42 -8t30 -8q7 0 10.5 8t15.5 8q14 0 19.5 -6t5.5 -16q0 -14 -8 -32.5t-13 -30.5q-1 -4 -9 -6.5t-10 -6.5q-16 -46 -29 -93.5t-20 -82.5t-7 -43q0 -25 14 -25
q12 0 26 10.5t27.5 23.5t22.5 23.5t10 10.5q2 0 2 -4t-3 -12t-7 -11q-10 -9 -31 -27.5t-45 -34.5t-42 -16q-21 0 -25 25q0 18 6 46.5t13.5 58.5t13.5 50q-15 -20 -38.5 -51t-51 -61.5t-54.5 -51.5t-48 -21zM62 334q10 0 26.5 13.5t36 34.5t37 42t30 37.5t15.5 20.5
q16 26 31.5 56.5t25.5 56t10 35.5q0 6 -5 6h-3q-10 0 -20.5 2t-24.5 2t-30 -4q-9 -2 -25.5 -24.5t-36 -56.5t-37 -72.5t-29 -73.5t-11.5 -58q0 -17 10 -17z" />
    <glyph glyph-name="guillemotleft" unicode="&#xab;" horiz-adv-x="420" 
d="M357 136l-8 4q-25 36 -56 59.5t-65 50.5q-3 3 -3 6q0 5 10.5 22.5t26 40.5t32.5 46.5t31 41.5t19 24q8 11 19 11q6 0 6 -6q0 -4 -13 -25t-31 -48t-34 -50t-21 -30q6 -7 22 -26t33.5 -41.5t30 -41t12.5 -25.5q0 -13 -11 -13zM217 136l-8 4q-26 36 -56.5 59.5t-64.5 50.5
q-3 3 -3 6q0 5 10.5 22.5t26 40.5t32.5 46.5t30.5 41.5t18.5 24q8 11 19 11q7 0 7 -6q0 -4 -13 -25t-31 -48t-34 -50t-21 -30q6 -7 21.5 -26t33 -41.5t30 -41t12.5 -25.5q0 -13 -10 -13z" />
    <glyph glyph-name="logicalnot" unicode="&#xac;" horiz-adv-x="596" 
d="M526 31q-9 0 -10 10q2 44 6 87.5t6 68.5l-482 -21q-5 0 -10.5 3t-6.5 8q0 6 8 11q8 1 37 3t72.5 4.5t93 5.5t98.5 5.5t89 4.5t64 3.5l24 1.5q28 0 42.5 -0.5t14.5 -7.5v-1l-12 -53q-1 -5 -5 -26t-9 -46t-10.5 -43t-9.5 -18z" />
    <glyph glyph-name="uni00AD" unicode="&#xad;" horiz-adv-x="289" 
d="M38 121q-15 0 -15 13q0 16 12.5 24t25 11.5t11.5 3.5q7 0 7 -5q0 -6 -5 -11q20 -1 39.5 -2.5t44.5 -1.5h15.5t16.5 1l9.5 0.5t22 1t19.5 0.5q18 0 18 -6q0 -5 -19.5 -10.5t-50 -9.5t-63.5 -6.5t-59 -2.5q-5 0 -10 0.5t-10 0.5q-2 0 -4.5 -0.5t-4.5 -0.5z" />
    <glyph glyph-name="registered" unicode="&#xae;" horiz-adv-x="638" 
d="M260 317q-70 0 -102 37t-32 86q0 45 24 89.5t69.5 74.5t109.5 30q74 0 108 -36t34 -85q0 -33 -14.5 -67.5t-42.5 -63.5t-67 -47t-87 -18zM264 328q28 0 52.5 8.5t45.5 23.5q-3 -1 -7.5 -1h-9.5q-12 1 -30 13t-35.5 31t-29.5 38l-8 13q-3 -13 -7 -33.5t-8.5 -37
t-11.5 -16.5q-9 0 -9 4q0 17 8 39.5t17 53.5q-7 9 -7 11t10 5q7 24 16 48.5t16 40.5q2 13 8 26t23 13q7 0 7 -3t-3.5 -8.5t-5.5 -9.5q15 -1 36.5 -2.5t38.5 -9t17 -28.5q0 -32 -20 -50t-48 -25t-53 -7q-10 0 -10 -2q0 -3 4 -6q12 -14 29 -35.5t35 -38t32 -16.5q2 0 4.5 0.5
t4.5 0.5q4 0 5 -1q35 29 55 70t20 81q0 44 -27 75t-86 31q-40 0 -74 -17.5t-59 -46.5t-39 -62.5t-14 -65.5q0 -43 28 -73.5t90 -30.5zM271 474q26 0 55.5 12.5t39.5 43.5q2 4 2 7.5v6.5q0 23 -24 28.5t-53 6.5h-1q-5 -8 -14 -29t-16.5 -42.5t-10.5 -31.5q5 -1 10.5 -1.5
t11.5 -0.5z" />
    <glyph glyph-name="macron" unicode="&#xaf;" horiz-adv-x="228" 
d="M47 420q-14 0 -19.5 2t-5.5 4q0 7 13 11.5t31 7.5t33 3q19 0 47 -2t50 -6t22 -10q0 -5 -11.5 -7.5t-14.5 -2.5h-145z" />
    <glyph glyph-name="degree" unicode="&#xb0;" horiz-adv-x="283" 
d="M151 320q-35 0 -60.5 25.5t-25.5 60.5t25.5 60.5t60.5 25.5t60.5 -25.5t25.5 -60.5t-25.5 -60.5t-60.5 -25.5zM151 342q26 0 45 19t19 45t-19 45t-45 19t-45 -19t-19 -45t19 -45t45 -19z" />
    <glyph glyph-name="plusminus" unicode="&#xb1;" horiz-adv-x="379" 
d="M179 90q-5 0 -5 15q0 8 1.5 16.5t2.5 10.5q10 30 18 58t13 47t4 20l-16 -0.5t-38 -1t-39 -0.5q-25 0 -26 2t-1 6q0 8 8 15t21 8l99 -2q5 17 12 40t15.5 45t18.5 37t22 15q7 0 8 -6q0 -7 -5.5 -29.5t-14 -50t-18.5 -52.5q8 0 35 1t53 1q16 0 28 -0.5t16 -2.5q8 -5 8 -8
q0 -6 -15.5 -8.5t-39 -3.5t-49 -2.5t-45.5 -4.5q-1 -6 -12 -41t-42 -99q-12 -25 -17 -25zM83 18q-4 0 -7 4t-3 8q0 18 13 25.5t17 7.5q6 0 6 -5q0 -4 -2 -8q18 0 50.5 -1t63.5 -1q15 0 28.5 0.5t22.5 1.5v1h8q5 0 9.5 -0.5t11.5 -1.5q9 -1 9 -3q0 -3 -21.5 -8t-53.5 -9.5
t-66 -7.5t-58 -3h-11t-10 1q-1 0 -3 -0.5t-4 -0.5z" />
    <glyph glyph-name="uni00B2" unicode="&#xb2;" horiz-adv-x="547" 
d="M356 271q-40 0 -75.5 13.5t-70 27.5t-73.5 15q-14 -4 -29.5 -15.5t-31.5 -21.5t-34 -10q-13 0 -13 10q0 15 16.5 27t41.5 19.5t52 7.5h5q31 17 66.5 38t68 41.5t53.5 36.5q24 19 47.5 41.5t39 49t15.5 57.5q0 19 -11.5 26.5t-31.5 7.5q-25 0 -61.5 -11t-73 -30t-62.5 -43
q-2 -3 -6 -3q-6 0 -6 8q0 4 4 7q32 27 72 50.5t85 38t88 14.5q25 0 40.5 -11t15.5 -36q0 -28 -19 -57t-40 -51q-33 -34 -69.5 -63t-84.5 -57t-114 -61q34 -3 65.5 -13.5t64 -20t69.5 -9.5q34 0 52 11.5t18 26.5q0 10 -8.5 18.5t-28.5 15.5q-4 1 -4 5t7 4q19 0 31 -9
t17.5 -20t5.5 -17q0 -27 -29 -42.5t-64 -15.5z" />
    <glyph glyph-name="uni00B3" unicode="&#xb3;" horiz-adv-x="608" 
d="M142 277q-60 0 -100 20t-40 63q0 33 22 56t54.5 34.5t63.5 11.5q7 0 7 -6t-9 -6q-21 0 -44 -11t-39.5 -30.5t-16.5 -47.5q0 -34 29.5 -51t74.5 -17q40 0 81.5 10t76.5 30.5t56.5 50.5t21.5 69q0 34 -27.5 47t-61.5 13q-22 0 -43.5 -6t-32.5 -6q-12 0 -12 12q0 6 5 12
t13 6q23 0 52.5 5t56.5 15.5t45 28.5t18 44q0 12 -10 20.5t-31 8.5t-48 -8t-52.5 -20t-42.5 -23q-2 -2 -5 -2q-4 0 -4 7q0 6 3 13.5t9 9.5q5 3 16.5 12t22.5 17.5t13 8.5q4 0 4 -5q0 -4 -3 -7t-5 -6q18 8 52 18t65 10q24 0 40.5 -9.5t16.5 -35.5q0 -23 -19 -44.5t-45.5 -37
t-49.5 -20.5q23 -2 45 -9.5t36.5 -23t14.5 -43.5q0 -42 -26.5 -75t-68 -56t-89.5 -35t-90 -12z" />
    <glyph glyph-name="acute" unicode="&#xb4;" horiz-adv-x="355" 
d="M104 534q-3 0 -3 3q0 6 20 23t50.5 40t62.5 44q5 3 9 3q9 0 14.5 -8.5t4.5 -16.5v-2q0 -7 -7 -11q-13 -8 -40 -21.5t-56 -27.5t-50 -25q-2 -1 -5 -1z" />
    <glyph glyph-name="uni03BC" unicode="&#xb5;" horiz-adv-x="333" 
d="M55 -250q-29 0 -45 12t-23.5 29.5t-9.5 35.5t-2 29q0 63 21 129.5t58 149.5q8 21 17.5 44t16.5 43t7 31q0 7 -2 9.5t-2 7.5q0 2 0.5 4.5t1.5 6.5q11 41 20.5 64t23.5 32t38 9q14 0 17 -9q-4 -10 -17 -41.5t-30.5 -74t-34 -84t-27.5 -72t-11 -37.5q0 -4 3 -4q4 0 10.5 5
t13.5 11q59 45 102 101.5t74 114.5q1 15 7.5 38t22.5 41t42 18q11 0 12 -9q-5 -16 -20.5 -57t-32.5 -89q-12 -35 -22.5 -73.5t-18 -71.5t-11.5 -53q-1 -6 -4.5 -21.5t-13.5 -29t-32 -13.5q-13 0 -13 11q0 4 3 8q3 6 10 27t15 50.5t16.5 61t15.5 58.5t11 42
q-11 -17 -31.5 -43.5t-46 -57.5t-52.5 -60t-53 -50.5t-47 -29.5q-3 -8 -8 -30t-9.5 -49.5t-4.5 -54.5q0 -34 11 -60.5t42 -27.5q18 -1 18 -9q0 -12 -26 -12z" />
    <glyph glyph-name="paragraph" unicode="&#xb6;" horiz-adv-x="414" 
d="M275 -66q-7 0 -7 10q0 16 2.5 49.5t5 71t2.5 63.5q2 95 4.5 189t2.5 188q0 40 -1 79.5t-1 79.5q0 27 9 27q5 0 17.5 -14.5t12.5 -29.5q0 -7 -2 -11l-2 -4q-3 -73 -5.5 -139.5t-4 -138.5t-2.5 -162.5t-1 -211.5v-27q0 -3 -11 -11t-19 -8zM206 -66q-7 0 -7 10q0 51 5 121.5
t9.5 153.5t4.5 172q-24 -10 -47 -10q-31 0 -52.5 18t-32.5 47t-11 60q0 35 13 67t39.5 53t65.5 21h9.5t9.5 -1q7 -1 21 -7t26 -14.5t12 -18.5q0 -7 -8 -7q-4 0 -8 1t-6 1t-3 -14.5t-1 -36v-44.5q-1 -50 -3.5 -120t-4 -168.5t-1.5 -237.5v-27q0 -3 -11 -11t-19 -8z" />
    <glyph glyph-name="periodcentered" unicode="&#xb7;" horiz-adv-x="273" 
d="M128 264q-13 0 -17 10t-4 22q0 15 10 29t24 23t27 9q5 0 6 -3q0 -16 -7 -38t-7 -27q0 -13 -11 -18t-21 -7z" />
    <glyph glyph-name="cedilla" unicode="&#xb8;" horiz-adv-x="224" 
d="M24 -280q-4 0 -6.5 3.5t-2.5 7.5q0 9 11.5 11t29 3t35 5.5t29 17.5t11.5 40q0 15 -13 32.5t-26 36.5t-13 38q0 31 18 59t52 28q4 0 7.5 -1t4.5 -6q-22 -4 -34 -23t-12 -40q0 -14 14.5 -31t29 -37t14.5 -45q0 -35 -25.5 -57t-60 -32t-63.5 -10z" />
    <glyph glyph-name="uni00B9" unicode="&#xb9;" horiz-adv-x="443" 
d="M36 269q-4 0 -6.5 6t-2.5 11q0 8 13 15t30 12.5t27 7.5q17 29 43.5 78.5t57.5 106.5t58 107q-20 -12 -42 -22.5t-47 -19.5q-1 -1 -4 -1q-6 0 -6 7t6 8q34 14 63.5 34.5t57.5 42.5l4 7q3 5 11.5 8t16.5 3q7 0 12.5 -2t5.5 -7q0 -4 -1 -5l-206 -339q23 4 45.5 5.5t46.5 1.5
q6 0 6 -7q0 -9 -9 -9q-48 0 -91 -15.5t-87 -32.5q-1 0 -1 -0.5t-1 -0.5z" />
    <glyph glyph-name="ordmasculine" unicode="&#xba;" horiz-adv-x="261" 
d="M79 250q-25 0 -41.5 20.5t-16.5 63.5q0 10 1 21.5t3 24.5q3 17 12.5 49.5t24.5 70.5t34.5 72.5t43 56.5t50.5 22h7q0 13 8 23.5t22 10.5q11 -1 16 -18.5t8.5 -40t10.5 -40t22 -19.5q19 -3 19 -11t-19 -18q-7 -3 -13 -4t-10 -1q0 -63 -18 -115t-46.5 -89.5t-59.5 -58
t-58 -20.5zM94 280q18 0 41.5 20.5t45.5 57t37 83.5t15 100q-8 5 -15.5 21t-13.5 30.5t-11 14.5q-14 0 -30 -19.5t-31 -49t-28 -62.5t-22 -61.5t-12 -43.5q-2 -13 -3 -23.5t-1 -18.5q0 -49 28 -49z" />
    <glyph glyph-name="guillemotright" unicode="&#xbb;" horiz-adv-x="420" 
d="M247 129q-6 0 -6 6q0 4 13 25.5t31 48.5t34 49.5t21 29.5q-6 8 -22 26.5t-33.5 41t-30 41t-12.5 25.5q0 13 11 13l8 -4q26 -35 56.5 -59t64.5 -51q3 -3 3 -6q0 -5 -10.5 -22.5t-26 -40.5t-32.5 -46.5t-31 -41.5t-19 -24q-4 -4 -8 -7.5t-11 -3.5zM91 129q-6 0 -6 6
q0 4 13 25.5t31 48.5t34 49.5t21 29.5q-6 8 -22 26.5t-33.5 41t-30 41t-12.5 25.5q0 13 11 13l8 -4q26 -35 56.5 -59t64.5 -51q3 -3 3 -6q0 -5 -10.5 -22.5t-26 -40.5t-32.5 -46.5t-31 -41.5t-19 -24q-4 -4 -8 -7.5t-11 -3.5z" />
    <glyph glyph-name="onequarter" unicode="&#xbc;" horiz-adv-x="933" 
d="M36 269q-4 0 -6.5 6t-2.5 11q0 8 13 15t30 12.5t27 7.5q17 29 43.5 78.5t57.5 106.5t58 107q-20 -12 -42 -22.5t-47 -19.5q-1 -1 -4 -1q-6 0 -6 7t6 8q34 14 63.5 34.5t57.5 42.5l4 7q3 5 11.5 8t16.5 3q7 0 12.5 -2t5.5 -7q0 -4 -1 -5l-206 -339q23 4 45.5 5.5t46.5 1.5
q6 0 6 -7q0 -9 -9 -9q-48 0 -91 -15.5t-87 -32.5q-1 0 -1 -0.5t-1 -0.5zM236 128q-17 0 -17 15q0 17 20 44.5t53 62t73 70.5t80 69.5t74.5 60.5t57 43t25.5 16q2 0 6.5 -0.5t7.5 -2.5q1 -1 2 -2.5t1 -3.5q0 -3 -6 -8q-36 -27 -84 -66.5t-98 -82.5t-92.5 -83t-69 -70
t-26.5 -42q0 -6 4.5 -8.5t4.5 -4.5q0 -3 -7 -5t-9 -2zM538 -20q-4 0 -6.5 5.5t-2.5 11.5q0 8 16 16t36.5 14t32.5 8l13 2v7q0 21 11 46t24.5 47t19.5 32q-19 5 -39 9t-41 4q-24 0 -59.5 -9.5t-59.5 -18.5h-5q-6 0 -9.5 5t-3.5 12q0 14 15 19t34 9q25 12 61.5 31t77.5 42
t80 46.5t68 45t42 38.5q2 2 4.5 3t6.5 1q8 0 15 -3t7 -8q0 -1 -1 -2q-40 -52 -81 -104t-79 -108q19 -7 37.5 -11t38.5 -4q14 0 32 10t18 33q0 4 -1 7.5t-1 7.5q0 5 6 5q7 0 11.5 -8.5t7 -18t2.5 -12.5q0 -18 -14.5 -26t-32.5 -10.5t-31 -2.5q-22 0 -42.5 4t-40.5 8
q-7 -13 -22 -36t-27 -46.5t-12 -38.5v-2q42 5 77 5q6 0 6 -7q0 -9 -9 -9q-48 0 -91 -15.5t-87 -33.5h-2zM691 189q17 24 39 60t50 70l15 19q-32 -21 -73.5 -45.5t-84 -47t-77.5 -40.5q12 1 23 1.5t20 0.5q25 0 46 -5.5t42 -12.5z" />
    <glyph glyph-name="onehalf" unicode="&#xbd;" horiz-adv-x="1015" 
d="M36 269q-4 0 -6.5 6t-2.5 11q0 8 13 15t30 12.5t27 7.5q17 29 43.5 78.5t57.5 106.5t58 107q-20 -12 -42 -22.5t-47 -19.5q-1 -1 -4 -1q-6 0 -6 7t6 8q34 14 63.5 34.5t57.5 42.5l4 7q3 5 11.5 8t16.5 3q7 0 12.5 -2t5.5 -7q0 -4 -1 -5l-206 -339q23 4 45.5 5.5t46.5 1.5
q6 0 6 -7q0 -9 -9 -9q-48 0 -91 -15.5t-87 -32.5q-1 0 -1 -0.5t-1 -0.5zM338 128q-17 0 -17 15q0 17 20 44.5t53 62t73 70.5t80 69.5t74.5 60.5t57 43t25.5 16q2 0 6.5 -0.5t7.5 -2.5q1 -1 2 -2.5t1 -3.5q0 -3 -6 -8q-36 -27 -84 -66.5t-98 -82.5t-92.5 -83t-69 -70
t-26.5 -42q0 -6 4.5 -8.5t4.5 -4.5q0 -3 -7 -5t-9 -2zM815 -13q-40 0 -75.5 13.5t-70 27.5t-73.5 15q-14 -4 -29.5 -15.5t-31.5 -21.5t-34 -10q-13 0 -13 10q0 15 16.5 27t41.5 19.5t52 7.5h5q31 17 66.5 38t68 41.5t53.5 36.5q24 19 47.5 41.5t39 49t15.5 57.5
q0 19 -11.5 26.5t-31.5 7.5q-25 0 -61.5 -11t-73 -30t-62.5 -43q-2 -3 -6 -3q-6 0 -6 8q0 4 4 7q32 27 72.5 50.5t85 38t87.5 14.5q25 0 40.5 -11t15.5 -36q0 -28 -19 -57t-40 -51q-33 -34 -70 -63t-84.5 -57t-113.5 -61q34 -3 65.5 -13.5t64 -20t69.5 -9.5q34 0 52 11.5
t18 26.5q0 10 -8.5 18.5t-28.5 15.5q-4 1 -4 5t7 4q19 0 31 -9t17.5 -20t5.5 -17q0 -27 -29 -42.5t-64 -15.5z" />
    <glyph glyph-name="threequarters" unicode="&#xbe;" horiz-adv-x="1029" 
d="M142 277q-60 0 -100 20t-40 63q0 33 22 56t54.5 34.5t63.5 11.5q7 0 7 -6t-9 -6q-21 0 -44 -11t-39.5 -30.5t-16.5 -47.5q0 -34 29.5 -51t74.5 -17q40 0 81.5 10t76.5 30.5t56.5 50.5t21.5 69q0 34 -27.5 47t-61.5 13q-22 0 -43.5 -6t-32.5 -6q-12 0 -12 12q0 6 5 12
t13 6q23 0 52.5 5t56.5 15.5t45 28.5t18 44q0 12 -10 20.5t-31 8.5t-48 -8t-52.5 -20t-42.5 -23q-2 -2 -5 -2q-4 0 -4 7q0 6 3 13.5t9 9.5q5 3 16.5 12t22.5 17.5t13 8.5q4 0 4 -5q0 -4 -3 -7t-5 -6q18 8 52 18t65 10q24 0 40.5 -9.5t16.5 -35.5q0 -23 -19 -44.5t-45.5 -37
t-49.5 -20.5q23 -2 45 -9.5t36.5 -23t14.5 -43.5q0 -42 -26.5 -75t-68 -56t-89.5 -35t-90 -12zM364 128q-17 0 -17 15q0 17 20 44.5t53 62t73 70.5t80 69.5t74.5 60.5t57 43t25.5 16q2 0 6.5 -0.5t7.5 -2.5q1 -1 2 -2.5t1 -3.5q0 -3 -6 -8q-36 -27 -84 -66.5t-98 -82.5
t-92.5 -83t-69 -70t-26.5 -42q0 -6 4.5 -8.5t4.5 -4.5q0 -3 -7 -5t-9 -2zM638 -20q-4 0 -6.5 5.5t-2.5 11.5q0 8 16 16t36.5 14t32.5 8l13 2v7q0 21 11 46t24.5 47t19.5 32q-19 5 -39 9t-41 4q-24 0 -59.5 -9.5t-59.5 -18.5h-5q-6 0 -9.5 5t-3.5 12q0 14 15 19t34 9
q25 12 61.5 31t77.5 42t80 46.5t68 45t42 38.5q2 2 4.5 3t6.5 1q8 0 15 -3t7 -8q0 -1 -1 -2q-40 -52 -81 -104t-79 -108q19 -7 37.5 -11t38.5 -4q14 0 32 10t18 33q0 4 -1 7.5t-1 7.5q0 5 6 5q7 0 11.5 -8.5t7 -18t2.5 -12.5q0 -18 -14.5 -26t-32.5 -10.5t-31 -2.5
q-22 0 -42.5 4t-40.5 8q-7 -13 -22 -36t-27 -46.5t-12 -38.5v-2q42 5 77 5q6 0 6 -7q0 -9 -9 -9q-48 0 -91 -15.5t-87 -33.5h-2zM791 189q17 24 39 60t50 70l15 19q-32 -21 -73.5 -45.5t-84 -47t-77.5 -40.5q12 1 23 1.5t20 0.5q25 0 46 -5.5t42 -12.5z" />
    <glyph glyph-name="questiondown" unicode="&#xbf;" horiz-adv-x="464" 
d="M328 345q-3 0 -3 2q9 47 15.5 67.5t31.5 20.5q11 0 13.5 -13.5t2.5 -24.5v-1q0 -12 -12.5 -24t-26.5 -19.5t-21 -7.5zM67 -250q-36 0 -67 10.5t-50 34t-19 61.5q0 49 41 95t109 93t148 98q25 16 37.5 35.5t19.5 38.5t15 35h1q5 7 11 7q7 0 12.5 -9t5.5 -23
q0 -12 -5 -27.5t-19 -32.5q-14 -18 -49.5 -40.5t-80 -49.5t-86 -60t-68.5 -70.5t-27 -81.5q0 -32 25 -53.5t83 -21.5q51 0 99 16.5t78.5 47t30.5 71.5q0 24 -5 34.5t-11 13.5t-11 4t-5 5q0 8 8 12t15 4q20 0 40 -20t20 -50q0 -26 -19 -52q-26 -36 -72.5 -64t-100.5 -44.5
t-104 -16.5z" />
    <glyph glyph-name="Agrave" unicode="&#xc0;" horiz-adv-x="619" 
d="M59 -7h-10q-9 0 -9 7q0 2 0.5 6t1.5 10q12 68 40.5 133t60.5 121q-13 0 -23 -0.5t-27 -0.5q-10 0 -10 7t8.5 15.5t18.5 8.5h50q33 54 74 110.5t85 111.5t87 102q-6 8 -6 16t9.5 19.5t34.5 11.5q12 0 17.5 -6.5t5.5 -14.5q0 -6 -3 -14q8 -21 19.5 -60t23 -86.5t21 -97
t15.5 -91.5q33 -1 33 -11t-30 -15q-1 0 2 -21t8 -53.5t9.5 -68t8 -65t3.5 -44.5q0 -10 -15 -18.5t-27 -8.5t-12 8v12q0 21 -2.5 58.5t-6 78.5t-6.5 74t-5 46q-76 -1 -159.5 -2t-160.5 -1q-34 -61 -64 -129t-40 -137q-1 -7 -7 -9t-13 -2zM197 298l303 2q-6 47 -16.5 95.5
t-21.5 92t-20 75t-13 42.5q-38 -40 -82 -93t-83.5 -109t-66.5 -105zM514.877 698.035q3.08984 0 3.08984 3.09082q0 6.17969 -20.6006 23.6904t-52.0166 41.2012t-64.377 45.3213q-5.14941 3.08984 -9.26953 3.08984q-9.27051 0 -14.9355 -8.75488
q-5.66504 -8.75586 -4.63477 -16.9961v-2.05957q0 -7.20996 7.20996 -11.3301q13.3896 -8.24023 41.2012 -22.1455q27.8105 -13.9062 57.6816 -28.3262q29.8701 -14.4199 51.501 -25.751q2.06055 -1.03027 5.15039 -1.03027z" />
    <glyph glyph-name="Aacute" unicode="&#xc1;" horiz-adv-x="619" 
d="M59 -7h-10q-9 0 -9 7q0 2 0.5 6t1.5 10q12 68 40.5 133t60.5 121q-13 0 -23 -0.5t-27 -0.5q-10 0 -10 7t8.5 15.5t18.5 8.5h50q33 54 74 110.5t85 111.5t87 102q-6 8 -6 16t9.5 19.5t34.5 11.5q12 0 17.5 -6.5t5.5 -14.5q0 -6 -3 -14q8 -21 19.5 -60t23 -86.5t21 -97
t15.5 -91.5q33 -1 33 -11t-30 -15q-1 0 2 -21t8 -53.5t9.5 -68t8 -65t3.5 -44.5q0 -10 -15 -18.5t-27 -8.5t-12 8v12q0 21 -2.5 58.5t-6 78.5t-6.5 74t-5 46q-76 -1 -159.5 -2t-160.5 -1q-34 -61 -64 -129t-40 -137q-1 -7 -7 -9t-13 -2zM197 298l303 2q-6 47 -16.5 95.5
t-21.5 92t-20 75t-13 42.5q-38 -40 -82 -93t-83.5 -109t-66.5 -105zM355.123 702.035q-3.08984 0 -3.08984 3.09082q0 6.17969 20.6006 23.6904t52.0166 41.2012t64.377 45.3213q5.14941 3.08984 9.26953 3.08984q9.27051 0 14.9355 -8.75488
q5.66504 -8.75586 4.63477 -16.9961v-2.05957q0 -7.20996 -7.20996 -11.3301q-13.3896 -8.24023 -41.2012 -22.1455q-27.8105 -13.9062 -57.6816 -28.3262q-29.8701 -14.4199 -51.501 -25.751q-2.06055 -1.03027 -5.15039 -1.03027z" />
    <glyph glyph-name="Acircumflex" unicode="&#xc2;" horiz-adv-x="619" 
d="M59 -7h-10q-9 0 -9 7q0 2 0.5 6t1.5 10q12 68 40.5 133t60.5 121q-13 0 -23 -0.5t-27 -0.5q-10 0 -10 7t8.5 15.5t18.5 8.5h50q33 54 74 110.5t85 111.5t87 102q-6 8 -6 16t9.5 19.5t34.5 11.5q12 0 17.5 -6.5t5.5 -14.5q0 -6 -3 -14q8 -21 19.5 -60t23 -86.5t21 -97
t15.5 -91.5q33 -1 33 -11t-30 -15q-1 0 2 -21t8 -53.5t9.5 -68t8 -65t3.5 -44.5q0 -10 -15 -18.5t-27 -8.5t-12 8v12q0 21 -2.5 58.5t-6 78.5t-6.5 74t-5 46q-76 -1 -159.5 -2t-160.5 -1q-34 -61 -64 -129t-40 -137q-1 -7 -7 -9t-13 -2zM197 298l303 2q-6 47 -16.5 95.5
t-21.5 92t-20 75t-13 42.5q-38 -40 -82 -93t-83.5 -109t-66.5 -105zM332 727q-2 0 -1 1q18 18 43 38t71 47l6 3h2q3 0 6 -3q32 -25 49 -44.5t32 -38.5q3 -3 -3 -3q-1 0 -2 1q-19 14 -41.5 25t-48.5 17q-25 -7 -55 -21t-54 -21q-2 -1 -4 -1z" />
    <glyph glyph-name="Atilde" unicode="&#xc3;" horiz-adv-x="619" 
d="M59 -7h-10q-9 0 -9 7q0 2 0.5 6t1.5 10q12 68 40.5 133t60.5 121q-13 0 -23 -0.5t-27 -0.5q-10 0 -10 7t8.5 15.5t18.5 8.5h50q33 54 74 110.5t85 111.5t87 102q-6 8 -6 16t9.5 19.5t34.5 11.5q12 0 17.5 -6.5t5.5 -14.5q0 -6 -3 -14q8 -21 19.5 -60t23 -86.5t21 -97
t15.5 -91.5q33 -1 33 -11t-30 -15q-1 0 2 -21t8 -53.5t9.5 -68t8 -65t3.5 -44.5q0 -10 -15 -18.5t-27 -8.5t-12 8v12q0 21 -2.5 58.5t-6 78.5t-6.5 74t-5 46q-76 -1 -159.5 -2t-160.5 -1q-34 -61 -64 -129t-40 -137q-1 -7 -7 -9t-13 -2zM197 298l303 2q-6 47 -16.5 95.5
t-21.5 92t-20 75t-13 42.5q-38 -40 -82 -93t-83.5 -109t-66.5 -105zM478.089 702.359q-16.7998 0 -33.1055 7.00586q-16.3057 7.00488 -32.1172 13.5098q-15.8115 6.50391 -32.6113 6.50391q-14.8232 0 -24.2109 -6.50391q-9.3877 -6.50488 -15.8115 -13.0098
t-13.3408 -6.50488q-1.97656 0 -1.97656 2.00098q0 5.00391 8.89355 14.0107q8.89453 9.00684 19.2705 17.0127t14.3291 10.0068q15.8115 10.0078 35.5762 10.0078q24.7051 0 47.4346 -10.5078t46.4463 -10.5078q13.835 0 23.7178 5.50391q9.88184 5.50391 17.7871 15.5117
q5.92969 0 5.92969 -4.00293q0 -15.0117 -15.3174 -26.0195t-31.1289 -17.5127t-19.7646 -6.50488z" />
    <glyph glyph-name="Adieresis" unicode="&#xc4;" horiz-adv-x="619" 
d="M59 -7h-10q-9 0 -9 7q0 2 0.5 6t1.5 10q12 68 40.5 133t60.5 121q-13 0 -23 -0.5t-27 -0.5q-10 0 -10 7t8.5 15.5t18.5 8.5h50q33 54 74 110.5t85 111.5t87 102q-6 8 -6 16t9.5 19.5t34.5 11.5q12 0 17.5 -6.5t5.5 -14.5q0 -6 -3 -14q8 -21 19.5 -60t23 -86.5t21 -97
t15.5 -91.5q33 -1 33 -11t-30 -15q-1 0 2 -21t8 -53.5t9.5 -68t8 -65t3.5 -44.5q0 -10 -15 -18.5t-27 -8.5t-12 8v12q0 21 -2.5 58.5t-6 78.5t-6.5 74t-5 46q-76 -1 -159.5 -2t-160.5 -1q-34 -61 -64 -129t-40 -137q-1 -7 -7 -9t-13 -2zM197 298l303 2q-6 47 -16.5 95.5
t-21.5 92t-20 75t-13 42.5q-38 -40 -82 -93t-83.5 -109t-66.5 -105zM478 715q-12 0 -15 8.5t-3 18.5q0 18 17.5 35t33.5 17q5 0 6 -3q0 -13 -6 -31.5t-6 -23.5q0 -10 -9.5 -14.5t-17.5 -6.5zM370 715q-10 0 -13.5 8.5t-3.5 18.5q0 18 17 35t34 17q4 0 5 -3q0 -13 -6 -31.5
t-6 -23.5q0 -10 -9.5 -14.5t-17.5 -6.5z" />
    <glyph glyph-name="Aring" unicode="&#xc5;" horiz-adv-x="619" 
d="M59 -7h-10q-9 0 -9 7q0 2 0.5 6t1.5 10q12 68 40.5 133t60.5 121q-13 0 -23 -0.5t-27 -0.5q-10 0 -10 7t8.5 15.5t18.5 8.5h50q33 54 74 110.5t85 111.5t87 102q-6 8 -6 16t9.5 19.5t34.5 11.5q12 0 17.5 -6.5t5.5 -14.5q0 -6 -3 -14q8 -21 19.5 -60t23 -86.5t21 -97
t15.5 -91.5q33 -1 33 -11t-30 -15q-1 0 2 -21t8 -53.5t9.5 -68t8 -65t3.5 -44.5q0 -10 -15 -18.5t-27 -8.5t-12 8v12q0 21 -2.5 58.5t-6 78.5t-6.5 74t-5 46q-76 -1 -159.5 -2t-160.5 -1q-34 -61 -64 -129t-40 -137q-1 -7 -7 -9t-13 -2zM197 298l303 2q-6 47 -16.5 95.5
t-21.5 92t-20 75t-13 42.5q-38 -40 -82 -93t-83.5 -109t-66.5 -105zM436 715q-22 0 -37.5 11t-15.5 29q0 16 16.5 36.5t41.5 36t51 15.5t41 -16t15 -36q0 -38 -32.5 -57t-79.5 -19zM451 735q29 0 45 13t16 43q0 36 -28 36q-13 0 -28 -10.5t-26 -25t-11 -26.5q0 -30 32 -30z
" />
    <glyph glyph-name="AE" unicode="&#xc6;" horiz-adv-x="960" 
d="M35 -7h-9q-8 0 -8 3q0 5 7 20q30 68 76 133t93 121q-13 0 -23 -0.5t-27 -0.5q-8 0 -8 5q0 7 11 16.5t22 9.5h50q47 53 101.5 110.5t111.5 113.5t112 101h-13q-22 0 -22 8q0 11 20.5 12.5t48.5 4.5q12 1 18 9t14 16t26 8q8 0 14 -3.5t6 -11.5q-4 -9 -4 -8t-5 -10
q10 0 35.5 -0.5t88.5 -0.5q31 0 73.5 0.5t97.5 0.5q15 0 15 -15q0 -10 -10 -27t-21 -17q-7 0 -13.5 12.5t-20.5 13.5q-13 2 -40.5 2h-44.5q-13 0 -24.5 -0.5t-22.5 -0.5q-26 0 -52.5 0.5t-70.5 1.5q-3 -8 -9 -37.5t-13 -69.5t-14 -82t-12 -77t-7 -52h55t80 0.5t80 1t54 1.5
q6 0 6 -6t-9 -15.5t-29 -12.5h-242q-2 -9 -5.5 -37t-7 -64t-6 -70t-2.5 -55q0 -11 1 -14q36 0 106 -0.5t170 -0.5q22 0 55.5 4t59.5 12h1q4 0 4 -10t-7 -23t-23 -13q-100 0 -199 -0.5t-206 -0.5q-17 0 -17 12l3 28.5t7 70.5t9.5 86.5t10.5 76.5q-75 -1 -148 -2t-149 -1
q-50 -61 -99 -129t-78 -137q-2 -7 -8.5 -9t-13.5 -2zM258 300h276q5 39 12.5 84.5t15.5 90.5t16 84.5t15 66.5q-21 -11 -53.5 -39t-71.5 -65t-78.5 -77.5t-74 -78t-57.5 -66.5zM501 11v0v0z" />
    <glyph glyph-name="Ccedilla" unicode="&#xc7;" horiz-adv-x="684" 
d="M348 -13q-95 0 -159.5 36t-97 101.5t-32.5 152.5q0 77 25 146t73.5 122.5t119.5 84.5t163 31q29 0 60 -4.5t57 -17t42 -37t16 -63.5q0 -31 -11.5 -46.5t-28.5 -15.5q-21 0 -21 19q0 17 10 32t10 28q0 25 -20.5 42.5t-51 27.5t-60.5 10q-78 0 -140 -30.5t-105 -82
t-66 -116t-23 -133.5t25 -129t76.5 -97.5t129.5 -37.5q69 0 121 18.5t88.5 45t58.5 52t32 39.5q5 5 7 5q5 0 5 -15q0 -33 -20.5 -59.5t-54.5 -47t-74.5 -34t-80.5 -20.5t-73 -7zM230 -280q-4 0 -6.5 3.5t-2.5 7.5q0 9 11.5 11t29 3t35 5.5t29 17.5t11.5 40q0 15 -13 32.5
t-26 36.5t-13 38q0 31 18 59t52 28q4 0 7.5 -1t4.5 -6q-22 -4 -34 -23t-12 -40q0 -14 14.5 -31t29 -37t14.5 -45q0 -35 -25.5 -57t-60 -32t-63.5 -10z" />
    <glyph glyph-name="Egrave" unicode="&#xc8;" horiz-adv-x="577" 
d="M356 -1h-129q-41 0 -81 0.5t-65.5 2t-25.5 3.5q0 8 12 20t23 14q-1 4 -1 9v11q0 26 3 66.5t8.5 89.5t10.5 99h-13q-10 0 -10 7t8 15t18 9q10 80 22 155.5t25 123.5h-53q-22 0 -22 8q0 5 12.5 10.5t29.5 5.5h39q5 28 20.5 36t36.5 8q15 0 15 -10q0 -7 -5.5 -15.5
t-9.5 -17.5q10 0 35.5 -0.5t88.5 -0.5q31 0 73.5 0.5t97.5 0.5q15 0 15 -15q0 -10 -10 -27t-21 -17q-7 0 -13.5 12.5t-20.5 13.5q-13 2 -40.5 2h-44.5q-13 0 -24.5 -0.5t-22.5 -0.5q-26 0 -52.5 0.5t-70.5 1.5q-10 -35 -21 -86t-19.5 -101.5t-13.5 -86.5h72t85.5 0.5t78.5 1
t50 1.5q6 0 6 -6t-9 -15.5t-29 -12.5h-258q-2 -26 -6 -64t-6.5 -79t-2.5 -78q0 -18 1 -34t3 -28q36 0 98 -0.5t162 -0.5q22 0 55.5 4t59.5 12h1q4 0 4 -10t-7 -23t-23 -13q-33 0 -68 -0.5t-71 -0.5zM447.877 698.035q3.08984 0 3.08984 3.09082q0 6.17969 -20.6006 23.6904
t-52.0166 41.2012t-64.377 45.3213q-5.14941 3.08984 -9.26953 3.08984q-9.27051 0 -14.9355 -8.75488q-5.66504 -8.75586 -4.63477 -16.9961v-2.05957q0 -7.20996 7.20996 -11.3301q13.3896 -8.24023 41.2012 -22.1455q27.8105 -13.9062 57.6816 -28.3262
q29.8701 -14.4199 51.501 -25.751q2.06055 -1.03027 5.15039 -1.03027z" />
    <glyph glyph-name="Eacute" unicode="&#xc9;" horiz-adv-x="577" 
d="M356 -1h-129q-41 0 -81 0.5t-65.5 2t-25.5 3.5q0 8 12 20t23 14q-1 4 -1 9v11q0 26 3 66.5t8.5 89.5t10.5 99h-13q-10 0 -10 7t8 15t18 9q10 80 22 155.5t25 123.5h-53q-22 0 -22 8q0 5 12.5 10.5t29.5 5.5h39q5 28 20.5 36t36.5 8q15 0 15 -10q0 -7 -5.5 -15.5
t-9.5 -17.5q10 0 35.5 -0.5t88.5 -0.5q31 0 73.5 0.5t97.5 0.5q15 0 15 -15q0 -10 -10 -27t-21 -17q-7 0 -13.5 12.5t-20.5 13.5q-13 2 -40.5 2h-44.5q-13 0 -24.5 -0.5t-22.5 -0.5q-26 0 -52.5 0.5t-70.5 1.5q-10 -35 -21 -86t-19.5 -101.5t-13.5 -86.5h72t85.5 0.5t78.5 1
t50 1.5q6 0 6 -6t-9 -15.5t-29 -12.5h-258q-2 -26 -6 -64t-6.5 -79t-2.5 -78q0 -18 1 -34t3 -28q36 0 98 -0.5t162 -0.5q22 0 55.5 4t59.5 12h1q4 0 4 -10t-7 -23t-23 -13q-33 0 -68 -0.5t-71 -0.5zM288.123 702.035q-3.08984 0 -3.08984 3.09082q0 6.17969 20.6006 23.6904
t52.0166 41.2012t64.377 45.3213q5.14941 3.08984 9.26953 3.08984q9.27051 0 14.9355 -8.75488q5.66504 -8.75586 4.63477 -16.9961v-2.05957q0 -7.20996 -7.20996 -11.3301q-13.3896 -8.24023 -41.2012 -22.1455q-27.8105 -13.9062 -57.6816 -28.3262
q-29.8701 -14.4199 -51.501 -25.751q-2.06055 -1.03027 -5.15039 -1.03027z" />
    <glyph glyph-name="Ecircumflex" unicode="&#xca;" horiz-adv-x="577" 
d="M356 -1h-129q-41 0 -81 0.5t-65.5 2t-25.5 3.5q0 8 12 20t23 14q-1 4 -1 9v11q0 26 3 66.5t8.5 89.5t10.5 99h-13q-10 0 -10 7t8 15t18 9q10 80 22 155.5t25 123.5h-53q-22 0 -22 8q0 5 12.5 10.5t29.5 5.5h39q5 28 20.5 36t36.5 8q15 0 15 -10q0 -7 -5.5 -15.5
t-9.5 -17.5q10 0 35.5 -0.5t88.5 -0.5q31 0 73.5 0.5t97.5 0.5q15 0 15 -15q0 -10 -10 -27t-21 -17q-7 0 -13.5 12.5t-20.5 13.5q-13 2 -40.5 2h-44.5q-13 0 -24.5 -0.5t-22.5 -0.5q-26 0 -52.5 0.5t-70.5 1.5q-10 -35 -21 -86t-19.5 -101.5t-13.5 -86.5h72t85.5 0.5t78.5 1
t50 1.5q6 0 6 -6t-9 -15.5t-29 -12.5h-258q-2 -26 -6 -64t-6.5 -79t-2.5 -78q0 -18 1 -34t3 -28q36 0 98 -0.5t162 -0.5q22 0 55.5 4t59.5 12h1q4 0 4 -10t-7 -23t-23 -13q-33 0 -68 -0.5t-71 -0.5zM265 727q-2 0 -1 1q18 18 43 38t71 47l6 3h2q3 0 6 -3q32 -25 49 -44.5
t32 -38.5q3 -3 -3 -3q-1 0 -2 1q-19 14 -41.5 25t-48.5 17q-25 -7 -55 -21t-54 -21q-2 -1 -4 -1z" />
    <glyph glyph-name="Edieresis" unicode="&#xcb;" horiz-adv-x="577" 
d="M356 -1h-129q-41 0 -81 0.5t-65.5 2t-25.5 3.5q0 8 12 20t23 14q-1 4 -1 9v11q0 26 3 66.5t8.5 89.5t10.5 99h-13q-10 0 -10 7t8 15t18 9q10 80 22 155.5t25 123.5h-53q-22 0 -22 8q0 5 12.5 10.5t29.5 5.5h39q5 28 20.5 36t36.5 8q15 0 15 -10q0 -7 -5.5 -15.5
t-9.5 -17.5q10 0 35.5 -0.5t88.5 -0.5q31 0 73.5 0.5t97.5 0.5q15 0 15 -15q0 -10 -10 -27t-21 -17q-7 0 -13.5 12.5t-20.5 13.5q-13 2 -40.5 2h-44.5q-13 0 -24.5 -0.5t-22.5 -0.5q-26 0 -52.5 0.5t-70.5 1.5q-10 -35 -21 -86t-19.5 -101.5t-13.5 -86.5h72t85.5 0.5t78.5 1
t50 1.5q6 0 6 -6t-9 -15.5t-29 -12.5h-258q-2 -26 -6 -64t-6.5 -79t-2.5 -78q0 -18 1 -34t3 -28q36 0 98 -0.5t162 -0.5q22 0 55.5 4t59.5 12h1q4 0 4 -10t-7 -23t-23 -13q-33 0 -68 -0.5t-71 -0.5zM411 715q-12 0 -15 8.5t-3 18.5q0 18 17.5 35t33.5 17q5 0 6 -3
q0 -13 -6 -31.5t-6 -23.5q0 -10 -9.5 -14.5t-17.5 -6.5zM303 715q-10 0 -13.5 8.5t-3.5 18.5q0 18 17 35t34 17q4 0 5 -3q0 -13 -6 -31.5t-6 -23.5q0 -10 -9.5 -14.5t-17.5 -6.5z" />
    <glyph glyph-name="Igrave" unicode="&#xcc;" horiz-adv-x="458" 
d="M206 -8q-13 0 -19 8h-131q-10 0 -10 7t8.5 15.5t18.5 8.5h111q13 135 28.5 272t40.5 265v30q0 6 1 10t1 10h-116q-10 0 -10 7t8.5 15.5t18.5 8.5h109q5 11 18.5 16.5t39.5 5.5q15 0 15 -10v-2l-6 -9q42 0 77.5 0.5t51.5 1.5q6 0 6 -6t-9 -15.5t-29 -12.5h-109v-2
q-17 -48 -31 -112.5t-25 -134.5t-18 -134.5t-11 -114.5t-4 -73q0 -11 3 -16q46 1 86.5 1.5t57.5 1.5q6 0 6 -6t-9 -15.5t-29 -12.5h-118q-10 -8 -22 -8zM388.877 698.035q3.08984 0 3.08984 3.09082q0 6.17969 -20.6006 23.6904t-52.0166 41.2012t-64.377 45.3213
q-5.14941 3.08984 -9.26953 3.08984q-9.27051 0 -14.9355 -8.75488q-5.66504 -8.75586 -4.63477 -16.9961v-2.05957q0 -7.20996 7.20996 -11.3301q13.3896 -8.24023 41.2012 -22.1455q27.8105 -13.9062 57.6816 -28.3262q29.8701 -14.4199 51.501 -25.751
q2.06055 -1.03027 5.15039 -1.03027z" />
    <glyph glyph-name="Iacute" unicode="&#xcd;" horiz-adv-x="458" 
d="M206 -8q-13 0 -19 8h-131q-10 0 -10 7t8.5 15.5t18.5 8.5h111q13 135 28.5 272t40.5 265v30q0 6 1 10t1 10h-116q-10 0 -10 7t8.5 15.5t18.5 8.5h109q5 11 18.5 16.5t39.5 5.5q15 0 15 -10v-2l-6 -9q42 0 77.5 0.5t51.5 1.5q6 0 6 -6t-9 -15.5t-29 -12.5h-109v-2
q-17 -48 -31 -112.5t-25 -134.5t-18 -134.5t-11 -114.5t-4 -73q0 -11 3 -16q46 1 86.5 1.5t57.5 1.5q6 0 6 -6t-9 -15.5t-29 -12.5h-118q-10 -8 -22 -8zM229.123 702.035q-3.08984 0 -3.08984 3.09082q0 6.17969 20.6006 23.6904t52.0166 41.2012t64.377 45.3213
q5.14941 3.08984 9.26953 3.08984q9.27051 0 14.9355 -8.75488q5.66504 -8.75586 4.63477 -16.9961v-2.05957q0 -7.20996 -7.20996 -11.3301q-13.3896 -8.24023 -41.2012 -22.1455q-27.8105 -13.9062 -57.6816 -28.3262q-29.8701 -14.4199 -51.501 -25.751
q-2.06055 -1.03027 -5.15039 -1.03027z" />
    <glyph glyph-name="Icircumflex" unicode="&#xce;" horiz-adv-x="458" 
d="M206 -8q-13 0 -19 8h-131q-10 0 -10 7t8.5 15.5t18.5 8.5h111q13 135 28.5 272t40.5 265v30q0 6 1 10t1 10h-116q-10 0 -10 7t8.5 15.5t18.5 8.5h109q5 11 18.5 16.5t39.5 5.5q15 0 15 -10v-2l-6 -9q42 0 77.5 0.5t51.5 1.5q6 0 6 -6t-9 -15.5t-29 -12.5h-109v-2
q-17 -48 -31 -112.5t-25 -134.5t-18 -134.5t-11 -114.5t-4 -73q0 -11 3 -16q46 1 86.5 1.5t57.5 1.5q6 0 6 -6t-9 -15.5t-29 -12.5h-118q-10 -8 -22 -8zM206 727q-2 0 -1 1q18 18 43 38t71 47l6 3h2q3 0 6 -3q32 -25 49 -44.5t32 -38.5q3 -3 -3 -3q-1 0 -2 1
q-19 14 -41.5 25t-48.5 17q-25 -7 -55 -21t-54 -21q-2 -1 -4 -1z" />
    <glyph glyph-name="Idieresis" unicode="&#xcf;" horiz-adv-x="458" 
d="M206 -8q-13 0 -19 8h-131q-10 0 -10 7t8.5 15.5t18.5 8.5h111q13 135 28.5 272t40.5 265v30q0 6 1 10t1 10h-116q-10 0 -10 7t8.5 15.5t18.5 8.5h109q5 11 18.5 16.5t39.5 5.5q15 0 15 -10v-2l-6 -9q42 0 77.5 0.5t51.5 1.5q6 0 6 -6t-9 -15.5t-29 -12.5h-109v-2
q-17 -48 -31 -112.5t-25 -134.5t-18 -134.5t-11 -114.5t-4 -73q0 -11 3 -16q46 1 86.5 1.5t57.5 1.5q6 0 6 -6t-9 -15.5t-29 -12.5h-118q-10 -8 -22 -8zM352 715q-12 0 -15 8.5t-3 18.5q0 18 17.5 35t33.5 17q5 0 6 -3q0 -13 -6 -31.5t-6 -23.5q0 -10 -9.5 -14.5t-17.5 -6.5
zM244 715q-10 0 -13.5 8.5t-3.5 18.5q0 18 17 35t34 17q4 0 5 -3q0 -13 -6 -31.5t-6 -23.5q0 -10 -9.5 -14.5t-17.5 -6.5z" />
    <glyph glyph-name="Eth" unicode="&#xd0;" horiz-adv-x="775" 
d="M204 -9q-52 0 -81.5 12t-29.5 30q0 8 7 8q3 0 6 -1q-4 20 -6 46t-2 56q0 41 3 86q-14 -1 -27.5 -1h-25.5q-13 0 -24.5 5.5t-11.5 14.5q0 8 9 12.5t34 4.5q12 0 25 -0.5t23 -1.5q5 62 13.5 125t19 119t20.5 97h-8q-13 0 -30 -3t-22 -3q-7 0 -7 10q0 9 9 21t27 12h39
q5 26 16.5 39t38.5 13q14 0 14 -11q-3 -7 -6.5 -15t-8.5 -23q11 1 22 1h22q60 0 124 -10.5t124.5 -33.5t109 -58t77 -84.5t28.5 -113.5q0 -59 -26 -108t-69.5 -88t-98 -68.5t-113.5 -49t-114 -29.5t-100 -10zM234 18q46 0 100.5 15t108.5 40t99 57.5t72 66.5q40 51 57 93.5
t17 86.5q0 60 -39 103.5t-103.5 71t-142.5 41t-156 13.5h-18.5t-20.5 -1q-24 -82 -40 -169t-22 -174h30.5t39.5 -0.5t33.5 -1.5t13.5 -4q0 -8 -36 -14t-83 -11q-1 -16 -1.5 -32t-0.5 -32t0.5 -31.5t1.5 -30.5q2 -45 18 -66t72 -21z" />
    <glyph glyph-name="Ntilde" unicode="&#xd1;" horiz-adv-x="680" 
d="M531 -9q-18 0 -18 22l7 82q-13 41 -31 67q-18 24 -48 56.5t-64.5 67.5t-66 67.5t-52.5 56.5q-40 46 -51 77t-12 60q-16 -52 -28.5 -117.5t-21.5 -131.5t-13.5 -122t-4.5 -89q0 -10 0.5 -23t0.5 -25q0 -39 -14 -39q-10 0 -19 12t-9 26q2 37 8 90t14.5 112.5t18 118.5
t18 109t14.5 83q-1 5 -1 9.5v8.5q0 46 16.5 66.5t43.5 20.5q10 0 16.5 -2t6.5 -7q0 -10 -6.5 -24.5t-13 -27.5t-6.5 -19q0 -30 21 -64t55 -71.5t75 -77t81.5 -81.5t72.5 -85l9 -12l16 147q6 53 13 104t16 102v30q0 22 4 42t17 33t41 13q15 0 15 -10v-2q-27 -62 -46.5 -147
t-32.5 -178.5t-19 -179.5q6 -16 8.5 -32.5t2.5 -30.5q0 -17 -3 -31.5t-7 -24.5v-6q-2 -11 -9 -17t-14 -6zM455.089 702.359q-16.7998 0 -33.1055 7.00586q-16.3057 7.00488 -32.1172 13.5098q-15.8115 6.50391 -32.6113 6.50391q-14.8232 0 -24.2109 -6.50391
q-9.3877 -6.50488 -15.8115 -13.0098t-13.3408 -6.50488q-1.97656 0 -1.97656 2.00098q0 5.00391 8.89355 14.0107q8.89453 9.00684 19.2705 17.0127t14.3291 10.0068q15.8115 10.0078 35.5762 10.0078q24.7051 0 47.4346 -10.5078t46.4463 -10.5078
q13.835 0 23.7178 5.50391q9.88184 5.50391 17.7871 15.5117q5.92969 0 5.92969 -4.00293q0 -15.0117 -15.3174 -26.0195t-31.1289 -17.5127t-19.7646 -6.50488z" />
    <glyph glyph-name="Ograve" unicode="&#xd2;" horiz-adv-x="796" 
d="M348 -18q-97 0 -160.5 36t-94.5 96.5t-31 133.5q0 78 32.5 158t100.5 143q-23 -10 -44 -21.5t-25 -11.5q-9 0 -9 9q0 6 13.5 15t33 18.5t39 17.5t30.5 12q32 31 72 57.5t86 43t93 16.5q23 0 46.5 -7.5t23.5 -30.5q0 -14 -8 -29t-15 -24q98 -14 158 -72t60 -171
q0 -91 -34.5 -163.5t-92 -122.5t-129 -76.5t-145.5 -26.5zM285 603q29 9 68 13.5t79 4.5q21 0 42 -1t40 -3q9 21 9 34q0 24 -38 24q-32 0 -69.5 -10t-71.5 -26t-59 -36zM355 6q59 0 120 24.5t112.5 71t83.5 113.5t32 153q0 59 -23 107.5t-64 80t-95 38.5q-9 -10 -15.5 -14
t-9.5 -4q-5 0 -5 4q0 9 9 16q-10 1 -20 1h-21q-56 0 -110.5 -8.5t-95.5 -19.5q-51 -38 -82.5 -89t-46 -107t-14.5 -111q0 -68 26 -126.5t80 -94t139 -35.5zM526.877 733.035q3.08984 0 3.08984 3.09082q0 6.17969 -20.6006 23.6904t-52.0166 41.2012t-64.377 45.3213
q-5.14941 3.08984 -9.26953 3.08984q-9.27051 0 -14.9355 -8.75488q-5.66504 -8.75586 -4.63477 -16.9961v-2.05957q0 -7.20996 7.20996 -11.3301q13.3896 -8.24023 41.2012 -22.1455q27.8105 -13.9062 57.6816 -28.3262q29.8701 -14.4199 51.501 -25.751
q2.06055 -1.03027 5.15039 -1.03027z" />
    <glyph glyph-name="Oacute" unicode="&#xd3;" horiz-adv-x="796" 
d="M348 -18q-97 0 -160.5 36t-94.5 96.5t-31 133.5q0 78 32.5 158t100.5 143q-23 -10 -44 -21.5t-25 -11.5q-9 0 -9 9q0 6 13.5 15t33 18.5t39 17.5t30.5 12q32 31 72 57.5t86 43t93 16.5q23 0 46.5 -7.5t23.5 -30.5q0 -14 -8 -29t-15 -24q98 -14 158 -72t60 -171
q0 -91 -34.5 -163.5t-92 -122.5t-129 -76.5t-145.5 -26.5zM285 603q29 9 68 13.5t79 4.5q21 0 42 -1t40 -3q9 21 9 34q0 24 -38 24q-32 0 -69.5 -10t-71.5 -26t-59 -36zM355 6q59 0 120 24.5t112.5 71t83.5 113.5t32 153q0 59 -23 107.5t-64 80t-95 38.5q-9 -10 -15.5 -14
t-9.5 -4q-5 0 -5 4q0 9 9 16q-10 1 -20 1h-21q-56 0 -110.5 -8.5t-95.5 -19.5q-51 -38 -82.5 -89t-46 -107t-14.5 -111q0 -68 26 -126.5t80 -94t139 -35.5zM367.123 737.035q-3.08984 0 -3.08984 3.09082q0 6.17969 20.6006 23.6904t52.0166 41.2012t64.377 45.3213
q5.14941 3.08984 9.26953 3.08984q9.27051 0 14.9355 -8.75488q5.66504 -8.75586 4.63477 -16.9961v-2.05957q0 -7.20996 -7.20996 -11.3301q-13.3896 -8.24023 -41.2012 -22.1455q-27.8105 -13.9062 -57.6816 -28.3262q-29.8701 -14.4199 -51.501 -25.751
q-2.06055 -1.03027 -5.15039 -1.03027z" />
    <glyph glyph-name="Ocircumflex" unicode="&#xd4;" horiz-adv-x="796" 
d="M348 -18q-97 0 -160.5 36t-94.5 96.5t-31 133.5q0 78 32.5 158t100.5 143q-23 -10 -44 -21.5t-25 -11.5q-9 0 -9 9q0 6 13.5 15t33 18.5t39 17.5t30.5 12q32 31 72 57.5t86 43t93 16.5q23 0 46.5 -7.5t23.5 -30.5q0 -14 -8 -29t-15 -24q98 -14 158 -72t60 -171
q0 -91 -34.5 -163.5t-92 -122.5t-129 -76.5t-145.5 -26.5zM285 603q29 9 68 13.5t79 4.5q21 0 42 -1t40 -3q9 21 9 34q0 24 -38 24q-32 0 -69.5 -10t-71.5 -26t-59 -36zM355 6q59 0 120 24.5t112.5 71t83.5 113.5t32 153q0 59 -23 107.5t-64 80t-95 38.5q-9 -10 -15.5 -14
t-9.5 -4q-5 0 -5 4q0 9 9 16q-10 1 -20 1h-21q-56 0 -110.5 -8.5t-95.5 -19.5q-51 -38 -82.5 -89t-46 -107t-14.5 -111q0 -68 26 -126.5t80 -94t139 -35.5zM344 762q-2 0 -1 1q18 18 43 38t71 47l6 3h2q3 0 6 -3q32 -25 49 -44.5t32 -38.5q3 -3 -3 -3q-1 0 -2 1
q-19 14 -41.5 25t-48.5 17q-25 -7 -55 -21t-54 -21q-2 -1 -4 -1z" />
    <glyph glyph-name="Otilde" unicode="&#xd5;" horiz-adv-x="796" 
d="M348 -18q-97 0 -160.5 36t-94.5 96.5t-31 133.5q0 78 32.5 158t100.5 143q-23 -10 -44 -21.5t-25 -11.5q-9 0 -9 9q0 6 13.5 15t33 18.5t39 17.5t30.5 12q32 31 72 57.5t86 43t93 16.5q23 0 46.5 -7.5t23.5 -30.5q0 -14 -8 -29t-15 -24q98 -14 158 -72t60 -171
q0 -91 -34.5 -163.5t-92 -122.5t-129 -76.5t-145.5 -26.5zM285 603q29 9 68 13.5t79 4.5q21 0 42 -1t40 -3q9 21 9 34q0 24 -38 24q-32 0 -69.5 -10t-71.5 -26t-59 -36zM355 6q59 0 120 24.5t112.5 71t83.5 113.5t32 153q0 59 -23 107.5t-64 80t-95 38.5q-9 -10 -15.5 -14
t-9.5 -4q-5 0 -5 4q0 9 9 16q-10 1 -20 1h-21q-56 0 -110.5 -8.5t-95.5 -19.5q-51 -38 -82.5 -89t-46 -107t-14.5 -111q0 -68 26 -126.5t80 -94t139 -35.5zM490.089 737.359q-16.7998 0 -33.1055 7.00586q-16.3057 7.00488 -32.1172 13.5098
q-15.8115 6.50391 -32.6113 6.50391q-14.8232 0 -24.2109 -6.50391q-9.3877 -6.50488 -15.8115 -13.0098t-13.3408 -6.50488q-1.97656 0 -1.97656 2.00098q0 5.00391 8.89355 14.0107q8.89453 9.00684 19.2705 17.0127t14.3291 10.0068q15.8115 10.0078 35.5762 10.0078
q24.7051 0 47.4346 -10.5078t46.4463 -10.5078q13.835 0 23.7178 5.50391q9.88184 5.50391 17.7871 15.5117q5.92969 0 5.92969 -4.00293q0 -15.0117 -15.3174 -26.0195t-31.1289 -17.5127t-19.7646 -6.50488z" />
    <glyph glyph-name="Odieresis" unicode="&#xd6;" horiz-adv-x="796" 
d="M348 -18q-97 0 -160.5 36t-94.5 96.5t-31 133.5q0 78 32.5 158t100.5 143q-23 -10 -44 -21.5t-25 -11.5q-9 0 -9 9q0 6 13.5 15t33 18.5t39 17.5t30.5 12q32 31 72 57.5t86 43t93 16.5q23 0 46.5 -7.5t23.5 -30.5q0 -14 -8 -29t-15 -24q98 -14 158 -72t60 -171
q0 -91 -34.5 -163.5t-92 -122.5t-129 -76.5t-145.5 -26.5zM285 603q29 9 68 13.5t79 4.5q21 0 42 -1t40 -3q9 21 9 34q0 24 -38 24q-32 0 -69.5 -10t-71.5 -26t-59 -36zM355 6q59 0 120 24.5t112.5 71t83.5 113.5t32 153q0 59 -23 107.5t-64 80t-95 38.5q-9 -10 -15.5 -14
t-9.5 -4q-5 0 -5 4q0 9 9 16q-10 1 -20 1h-21q-56 0 -110.5 -8.5t-95.5 -19.5q-51 -38 -82.5 -89t-46 -107t-14.5 -111q0 -68 26 -126.5t80 -94t139 -35.5zM490 750q-12 0 -15 8.5t-3 18.5q0 18 17.5 35t33.5 17q5 0 6 -3q0 -13 -6 -31.5t-6 -23.5q0 -10 -9.5 -14.5
t-17.5 -6.5zM382 750q-10 0 -13.5 8.5t-3.5 18.5q0 18 17 35t34 17q4 0 5 -3q0 -13 -6 -31.5t-6 -23.5q0 -10 -9.5 -14.5t-17.5 -6.5z" />
    <glyph glyph-name="multiply" unicode="&#xd7;" horiz-adv-x="440" 
d="M376 85q-4 0 -5 1q-16 5 -33.5 23t-31.5 32l-26.5 26.5t-47.5 46.5l-117 -123q-4 -4 -9 -4q-6 0 -10.5 6t-4.5 13t12.5 20t26.5 26.5t19 18.5l62 64q-19 19 -35.5 36.5t-26.5 27.5q-5 5 -19 18t-26.5 27t-12.5 20q0 7 4.5 13t10.5 6q5 0 9 -4l117 -124l47.5 47.5
l26.5 26.5q9 9 23 23.5t29 26t24 11.5q4 0 4 -4t-6 -15t-19 -24l-110 -112q29 -29 60 -57.5t52.5 -50.5t21.5 -33q0 -9 -9 -9z" />
    <glyph glyph-name="Oslash" unicode="&#xd8;" horiz-adv-x="782" 
d="M151 -119q-12 0 -18 9t-6 23q0 23 10 53.5t28 64.5q-52 37 -77.5 93.5t-25.5 123.5q0 78 32.5 158t100.5 143q-23 -10 -44 -21.5t-25 -11.5q-9 0 -9 9q0 6 13.5 15t33 18.5t39 17.5t30.5 12q32 31 72 57.5t86 43t93 16.5q23 0 46.5 -7.5t23.5 -30.5q0 -14 -8 -29t-15 -24
q12 -2 23.5 -4t21.5 -5q39 44 66.5 73t34.5 29q6 0 10 -5.5t4 -12.5q0 -8 -14 -25.5t-32.5 -37t-31.5 -34.5q63 -26 99.5 -80t36.5 -141q0 -91 -34.5 -163.5t-92 -122.5t-129 -76.5t-145.5 -26.5q-46 0 -84.5 8.5t-69.5 24.5q-34 -60 -34 -90q0 -13 7 -19.5t7 -9.5
q0 -5 -9 -10t-14 -5zM285 603q29 9 68 13.5t79 4.5q21 0 42 -1t40 -3q9 21 9 34q0 24 -38 24q-32 0 -69.5 -10t-71.5 -26t-59 -36zM184 66q35 60 82.5 131t100.5 143.5t103 136t89 108.5q-18 6 -38 9q-9 -10 -15.5 -14t-9.5 -4q-5 0 -5 4q0 9 9 16q-10 1 -20 1h-21
q-56 0 -110.5 -8.5t-95.5 -19.5q-51 -38 -82.5 -89t-46 -107t-14.5 -111q0 -58 18 -109t56 -87zM355 6q59 0 120 24.5t112.5 71t83.5 113.5t32 153q0 66 -29.5 119.5t-79.5 81.5q-52 -61 -106.5 -131t-106.5 -140.5t-96 -135.5t-74 -117q28 -19 64 -29t80 -10z" />
    <glyph glyph-name="Ugrave" unicode="&#xd9;" horiz-adv-x="646" 
d="M478 -8q-24 0 -24 22q8 86 15.5 168.5t17.5 162.5q-52 -101 -102.5 -168t-95.5 -106t-80.5 -55.5t-57.5 -16.5q-34 0 -55 26t-30.5 70t-9.5 98q0 58 8.5 121.5t23 123.5t31.5 109q-6 2 -6 11q0 13 8.5 33t19 37.5t16.5 22.5q11 8 21.5 11.5t19.5 3.5q12 0 19.5 -5
t7.5 -12q0 -5 -4 -9q-20 -18 -37.5 -58t-31.5 -89t-23.5 -95.5t-12.5 -77.5q-4 -39 -7.5 -74t-3.5 -66q0 -64 15.5 -102.5t54.5 -38.5q32 0 81.5 39t121.5 136q41 55 71.5 115t48 117t17.5 101v22q0 33 17 60.5t58 27.5q15 0 15 -10v-2q-20 -47 -36.5 -110t-29 -131.5
t-20.5 -133.5t-12 -117t-4 -81q8 -11 8 -29q0 -51 -33 -51zM457.877 698.035q3.08984 0 3.08984 3.09082q0 6.17969 -20.6006 23.6904t-52.0166 41.2012t-64.377 45.3213q-5.14941 3.08984 -9.26953 3.08984q-9.27051 0 -14.9355 -8.75488
q-5.66504 -8.75586 -4.63477 -16.9961v-2.05957q0 -7.20996 7.20996 -11.3301q13.3896 -8.24023 41.2012 -22.1455q27.8105 -13.9062 57.6816 -28.3262q29.8701 -14.4199 51.501 -25.751q2.06055 -1.03027 5.15039 -1.03027z" />
    <glyph glyph-name="Uacute" unicode="&#xda;" horiz-adv-x="646" 
d="M478 -8q-24 0 -24 22q8 86 15.5 168.5t17.5 162.5q-52 -101 -102.5 -168t-95.5 -106t-80.5 -55.5t-57.5 -16.5q-34 0 -55 26t-30.5 70t-9.5 98q0 58 8.5 121.5t23 123.5t31.5 109q-6 2 -6 11q0 13 8.5 33t19 37.5t16.5 22.5q11 8 21.5 11.5t19.5 3.5q12 0 19.5 -5
t7.5 -12q0 -5 -4 -9q-20 -18 -37.5 -58t-31.5 -89t-23.5 -95.5t-12.5 -77.5q-4 -39 -7.5 -74t-3.5 -66q0 -64 15.5 -102.5t54.5 -38.5q32 0 81.5 39t121.5 136q41 55 71.5 115t48 117t17.5 101v22q0 33 17 60.5t58 27.5q15 0 15 -10v-2q-20 -47 -36.5 -110t-29 -131.5
t-20.5 -133.5t-12 -117t-4 -81q8 -11 8 -29q0 -51 -33 -51zM298.123 702.035q-3.08984 0 -3.08984 3.09082q0 6.17969 20.6006 23.6904t52.0166 41.2012t64.377 45.3213q5.14941 3.08984 9.26953 3.08984q9.27051 0 14.9355 -8.75488q5.66504 -8.75586 4.63477 -16.9961
v-2.05957q0 -7.20996 -7.20996 -11.3301q-13.3896 -8.24023 -41.2012 -22.1455q-27.8105 -13.9062 -57.6816 -28.3262q-29.8701 -14.4199 -51.501 -25.751q-2.06055 -1.03027 -5.15039 -1.03027z" />
    <glyph glyph-name="Ucircumflex" unicode="&#xdb;" horiz-adv-x="646" 
d="M478 -8q-24 0 -24 22q8 86 15.5 168.5t17.5 162.5q-52 -101 -102.5 -168t-95.5 -106t-80.5 -55.5t-57.5 -16.5q-34 0 -55 26t-30.5 70t-9.5 98q0 58 8.5 121.5t23 123.5t31.5 109q-6 2 -6 11q0 13 8.5 33t19 37.5t16.5 22.5q11 8 21.5 11.5t19.5 3.5q12 0 19.5 -5
t7.5 -12q0 -5 -4 -9q-20 -18 -37.5 -58t-31.5 -89t-23.5 -95.5t-12.5 -77.5q-4 -39 -7.5 -74t-3.5 -66q0 -64 15.5 -102.5t54.5 -38.5q32 0 81.5 39t121.5 136q41 55 71.5 115t48 117t17.5 101v22q0 33 17 60.5t58 27.5q15 0 15 -10v-2q-20 -47 -36.5 -110t-29 -131.5
t-20.5 -133.5t-12 -117t-4 -81q8 -11 8 -29q0 -51 -33 -51zM275 727q-2 0 -1 1q18 18 43 38t71 47l6 3h2q3 0 6 -3q32 -25 49 -44.5t32 -38.5q3 -3 -3 -3q-1 0 -2 1q-19 14 -41.5 25t-48.5 17q-25 -7 -55 -21t-54 -21q-2 -1 -4 -1z" />
    <glyph glyph-name="Udieresis" unicode="&#xdc;" horiz-adv-x="646" 
d="M478 -8q-24 0 -24 22q8 86 15.5 168.5t17.5 162.5q-52 -101 -102.5 -168t-95.5 -106t-80.5 -55.5t-57.5 -16.5q-34 0 -55 26t-30.5 70t-9.5 98q0 58 8.5 121.5t23 123.5t31.5 109q-6 2 -6 11q0 13 8.5 33t19 37.5t16.5 22.5q11 8 21.5 11.5t19.5 3.5q12 0 19.5 -5
t7.5 -12q0 -5 -4 -9q-20 -18 -37.5 -58t-31.5 -89t-23.5 -95.5t-12.5 -77.5q-4 -39 -7.5 -74t-3.5 -66q0 -64 15.5 -102.5t54.5 -38.5q32 0 81.5 39t121.5 136q41 55 71.5 115t48 117t17.5 101v22q0 33 17 60.5t58 27.5q15 0 15 -10v-2q-20 -47 -36.5 -110t-29 -131.5
t-20.5 -133.5t-12 -117t-4 -81q8 -11 8 -29q0 -51 -33 -51zM421 715q-12 0 -15 8.5t-3 18.5q0 18 17.5 35t33.5 17q5 0 6 -3q0 -13 -6 -31.5t-6 -23.5q0 -10 -9.5 -14.5t-17.5 -6.5zM313 715q-10 0 -13.5 8.5t-3.5 18.5q0 18 17 35t34 17q4 0 5 -3q0 -13 -6 -31.5t-6 -23.5
q0 -10 -9.5 -14.5t-17.5 -6.5z" />
    <glyph glyph-name="Yacute" unicode="&#xdd;" horiz-adv-x="484" 
d="M84 0q-6 0 -11.5 2t-5.5 8q0 5 6 17t12.5 24t9.5 18q15 32 32.5 84.5t17.5 107.5v8.5t-1 6.5q-28 74 -54 149t-53 159q-4 11 -5.5 21.5t-1.5 17.5q0 20 16 25.5t29 5.5q10 0 26 -3.5t16 -10.5q0 -5 -6 -9.5t-5 -4.5q-13 -3 -13 -28t10.5 -64.5t26 -82.5t31 -81t24.5 -61
q9 8 36 32.5t62 60t70 75.5t61.5 78.5t33.5 69.5q5 19 12.5 30.5t24.5 11.5q7 0 15 -3.5t8 -16.5t-16.5 -39t-41 -56.5t-47.5 -58.5q-50 -61 -101 -110t-105 -99q-6 -19 -13.5 -51t-12.5 -65t-7 -55q-2 -33 -7.5 -58.5t-21.5 -40t-51 -14.5zM199.123 702.035
q-3.08984 0 -3.08984 3.09082q0 6.17969 20.6006 23.6904t52.0166 41.2012t64.377 45.3213q5.14941 3.08984 9.26953 3.08984q9.27051 0 14.9355 -8.75488q5.66504 -8.75586 4.63477 -16.9961v-2.05957q0 -7.20996 -7.20996 -11.3301q-13.3896 -8.24023 -41.2012 -22.1455
q-27.8105 -13.9062 -57.6816 -28.3262q-29.8701 -14.4199 -51.501 -25.751q-2.06055 -1.03027 -5.15039 -1.03027z" />
    <glyph glyph-name="Thorn" unicode="&#xde;" horiz-adv-x="298" 
d="M-36 -253q-10 0 -19 8t-9 27q0 14 8 45t20.5 71.5t27 84t28.5 82.5t24 67q-5 12 -5 23q0 14 7 27t23 23q13 39 29.5 90.5t33 102.5t28.5 90t15 52q0 2 -7.5 2.5t-15 2.5t-7.5 7q0 10 10.5 15t21 8t10.5 5q17 45 26.5 69t14 34.5t8 14.5t7.5 8q11 11 23 11q18 0 18 -20
q0 -9 -6 -23l-38 -91q38 -24 72.5 -70.5t56 -109t21.5 -134.5q0 -61 -25 -108t-69.5 -73.5t-105.5 -26.5q-30 0 -60.5 7.5t-52.5 25.5q-14 -28 -27.5 -67.5t-24.5 -80t-17.5 -71t-6.5 -40.5q0 -11 3.5 -18.5t3.5 -17.5q0 -6 -4 -18.5t-13.5 -23t-26.5 -10.5zM189 87
q52 0 83.5 27.5t46 70.5t14.5 90q0 14 -1 27.5t-3 26.5q-9 64 -29.5 105t-41 64.5t-31.5 32.5q-15 -34 -48 -134.5t-85 -272.5q20 -20 45 -28.5t50 -8.5z" />
    <glyph glyph-name="germandbls" unicode="&#xdf;" horiz-adv-x="610" 
d="M-63 -206q-33 0 -50 11.5t-22.5 27t-5.5 27.5q0 19 6 28.5t13 9.5q6 0 6 -8q0 -3 -0.5 -6.5t-0.5 -8.5q0 -32 21.5 -47t43.5 -15q24 0 49 24.5t47 78.5q13 32 29 81.5t33 105t32.5 107t26 88.5t13.5 48h-65q-13 0 -13 6q0 5 7 10t14 5h64q3 9 11 37.5t19 63.5t20.5 65
t15.5 42q20 44 58.5 66.5t85.5 22.5q32 0 65.5 -7t58.5 -30q23 -20 33 -39t10 -36q0 -30 -23 -50.5t-57.5 -37t-68.5 -32t-57 -34.5t-23 -45q0 -28 23.5 -46.5t58 -33t68.5 -30t57.5 -36.5t23.5 -53q0 -33 -21 -62.5t-56 -52.5t-78 -36t-87 -13q-45 0 -60 17.5t-15 35.5
q0 7 4.5 19.5t26.5 12.5q5 0 5 -9.5t6 -19.5q11 -18 29 -23.5t44 -5.5q32 0 67.5 11.5t60.5 36t25 63.5q0 31 -22.5 51.5t-56 36.5t-67 32.5t-56 38.5t-22.5 55q0 31 26.5 60t99.5 53q25 8 49 21t40 31t16 40q0 19 -17 41.5t-45.5 38.5t-64.5 16q-33 0 -56.5 -14.5
t-41.5 -48.5t-36 -91t-41 -143q-2 -8 -10.5 -38t-20.5 -73t-25 -90t-26 -89.5t-22 -71.5q-24 -76 -55.5 -117.5t-64 -57t-59.5 -15.5z" />
    <glyph glyph-name="agrave" unicode="&#xe0;" horiz-adv-x="329" 
d="M30 -3q-24 0 -24 36q0 28 11 69.5t29 86.5t39.5 84.5t44 64.5t41.5 25h3l11 8q5 6 12.5 8t15.5 2q20 0 42 -8t30 -8q7 0 10.5 8t15.5 8q14 0 19.5 -6t5.5 -16q0 -14 -8 -32.5t-13 -30.5q-1 -4 -9 -6.5t-10 -6.5q-16 -46 -29 -93.5t-20 -82.5t-7 -43q0 -25 14 -25
q12 0 26 10.5t27.5 23.5t22.5 23.5t10 10.5q2 0 2 -4t-3 -12t-7 -11q-10 -9 -31 -27.5t-45 -34.5t-42 -16q-21 0 -25 25q0 18 6 46.5t13.5 58.5t13.5 50q-15 -20 -38.5 -51t-51 -61.5t-54.5 -51.5t-48 -21zM62 44q10 0 26.5 13.5t36 34.5t37 42t30 37.5t15.5 20.5
q16 26 31.5 56.5t25.5 56t10 35.5q0 6 -5 6h-3q-10 0 -20.5 2t-24.5 2t-30 -4q-9 -2 -25.5 -24.5t-36 -56.5t-37 -72.5t-29 -73.5t-11.5 -58q0 -17 10 -17zM339 430q3 0 3 3q0 6 -20 23t-50.5 40t-62.5 44q-5 3 -9 3q-9 0 -14.5 -8.5t-4.5 -16.5v-2q0 -7 7 -11
q13 -8 40 -21.5t56 -27.5t50 -25q2 -1 5 -1z" />
    <glyph glyph-name="aacute" unicode="&#xe1;" horiz-adv-x="329" 
d="M30 -3q-24 0 -24 36q0 28 11 69.5t29 86.5t39.5 84.5t44 64.5t41.5 25h3l11 8q5 6 12.5 8t15.5 2q20 0 42 -8t30 -8q7 0 10.5 8t15.5 8q14 0 19.5 -6t5.5 -16q0 -14 -8 -32.5t-13 -30.5q-1 -4 -9 -6.5t-10 -6.5q-16 -46 -29 -93.5t-20 -82.5t-7 -43q0 -25 14 -25
q12 0 26 10.5t27.5 23.5t22.5 23.5t10 10.5q2 0 2 -4t-3 -12t-7 -11q-10 -9 -31 -27.5t-45 -34.5t-42 -16q-21 0 -25 25q0 18 6 46.5t13.5 58.5t13.5 50q-15 -20 -38.5 -51t-51 -61.5t-54.5 -51.5t-48 -21zM62 44q10 0 26.5 13.5t36 34.5t37 42t30 37.5t15.5 20.5
q16 26 31.5 56.5t25.5 56t10 35.5q0 6 -5 6h-3q-10 0 -20.5 2t-24.5 2t-30 -4q-9 -2 -25.5 -24.5t-36 -56.5t-37 -72.5t-29 -73.5t-11.5 -58q0 -17 10 -17zM183 431q-3 0 -3 3q0 6 20 23t50.5 40t62.5 44q5 3 9 3q9 0 14.5 -8.5t4.5 -16.5v-2q0 -7 -7 -11q-13 -8 -40 -21.5
t-56 -27.5t-50 -25q-2 -1 -5 -1z" />
    <glyph glyph-name="acircumflex" unicode="&#xe2;" horiz-adv-x="329" 
d="M30 -3q-24 0 -24 36q0 28 11 69.5t29 86.5t39.5 84.5t44 64.5t41.5 25h3l11 8q5 6 12.5 8t15.5 2q20 0 42 -8t30 -8q7 0 10.5 8t15.5 8q14 0 19.5 -6t5.5 -16q0 -14 -8 -32.5t-13 -30.5q-1 -4 -9 -6.5t-10 -6.5q-16 -46 -29 -93.5t-20 -82.5t-7 -43q0 -25 14 -25
q12 0 26 10.5t27.5 23.5t22.5 23.5t10 10.5q2 0 2 -4t-3 -12t-7 -11q-10 -9 -31 -27.5t-45 -34.5t-42 -16q-21 0 -25 25q0 18 6 46.5t13.5 58.5t13.5 50q-15 -20 -38.5 -51t-51 -61.5t-54.5 -51.5t-48 -21zM62 44q10 0 26.5 13.5t36 34.5t37 42t30 37.5t15.5 20.5
q16 26 31.5 56.5t25.5 56t10 35.5q0 6 -5 6h-3q-10 0 -20.5 2t-24.5 2t-30 -4q-9 -2 -25.5 -24.5t-36 -56.5t-37 -72.5t-29 -73.5t-11.5 -58q0 -17 10 -17zM161 430q-2 0 -1 3q2 5 19.5 22.5t44.5 40.5t55 44q3 3 6 3h2q3 0 6 -3q21 -16 37.5 -39.5t25.5 -43t7 -24.5
q-1 -3 -3 -3q-1 0 -2 1q-14 17 -39 36.5t-40 31.5q-14 -9 -35 -21.5l-42 -25t-37 -21.5q-2 -1 -4 -1z" />
    <glyph glyph-name="atilde" unicode="&#xe3;" horiz-adv-x="329" 
d="M30 -3q-24 0 -24 36q0 28 11 69.5t29 86.5t39.5 84.5t44 64.5t41.5 25h3l11 8q5 6 12.5 8t15.5 2q20 0 42 -8t30 -8q7 0 10.5 8t15.5 8q14 0 19.5 -6t5.5 -16q0 -14 -8 -32.5t-13 -30.5q-1 -4 -9 -6.5t-10 -6.5q-16 -46 -29 -93.5t-20 -82.5t-7 -43q0 -25 14 -25
q12 0 26 10.5t27.5 23.5t22.5 23.5t10 10.5q2 0 2 -4t-3 -12t-7 -11q-10 -9 -31 -27.5t-45 -34.5t-42 -16q-21 0 -25 25q0 18 6 46.5t13.5 58.5t13.5 50q-15 -20 -38.5 -51t-51 -61.5t-54.5 -51.5t-48 -21zM62 44q10 0 26.5 13.5t36 34.5t37 42t30 37.5t15.5 20.5
q16 26 31.5 56.5t25.5 56t10 35.5q0 6 -5 6h-3q-10 0 -20.5 2t-24.5 2t-30 -4q-9 -2 -25.5 -24.5t-36 -56.5t-37 -72.5t-29 -73.5t-11.5 -58q0 -17 10 -17zM304.089 425.359q-16.7998 0 -33.1055 7.00586q-16.3057 7.00488 -32.1172 13.5098
q-15.8115 6.50391 -32.6113 6.50391q-14.8232 0 -24.2109 -6.50391q-9.3877 -6.50488 -15.8115 -13.0098t-13.3408 -6.50488q-1.97656 0 -1.97656 2.00098q0 5.00391 8.89355 14.0107q8.89453 9.00684 19.2705 17.0127t14.3291 10.0068q15.8115 10.0078 35.5762 10.0078
q24.7051 0 47.4346 -10.5078t46.4463 -10.5078q13.835 0 23.7178 5.50391q9.88184 5.50391 17.7871 15.5117q5.92969 0 5.92969 -4.00293q0 -15.0117 -15.3174 -26.0195t-31.1289 -17.5127t-19.7646 -6.50488z" />
    <glyph glyph-name="adieresis" unicode="&#xe4;" horiz-adv-x="329" 
d="M30 -3q-24 0 -24 36q0 28 11 69.5t29 86.5t39.5 84.5t44 64.5t41.5 25h3l11 8q5 6 12.5 8t15.5 2q20 0 42 -8t30 -8q7 0 10.5 8t15.5 8q14 0 19.5 -6t5.5 -16q0 -14 -8 -32.5t-13 -30.5q-1 -4 -9 -6.5t-10 -6.5q-16 -46 -29 -93.5t-20 -82.5t-7 -43q0 -25 14 -25
q12 0 26 10.5t27.5 23.5t22.5 23.5t10 10.5q2 0 2 -4t-3 -12t-7 -11q-10 -9 -31 -27.5t-45 -34.5t-42 -16q-21 0 -25 25q0 18 6 46.5t13.5 58.5t13.5 50q-15 -20 -38.5 -51t-51 -61.5t-54.5 -51.5t-48 -21zM62 44q10 0 26.5 13.5t36 34.5t37 42t30 37.5t15.5 20.5
q16 26 31.5 56.5t25.5 56t10 35.5q0 6 -5 6h-3q-10 0 -20.5 2t-24.5 2t-30 -4q-9 -2 -25.5 -24.5t-36 -56.5t-37 -72.5t-29 -73.5t-11.5 -58q0 -17 10 -17zM304 434q-12 0 -15 8.5t-3 18.5q0 18 17.5 35t33.5 17q5 0 6 -3q0 -13 -6 -31.5t-6 -23.5q0 -10 -9.5 -14.5
t-17.5 -6.5zM196 434q-10 0 -13.5 8.5t-3.5 18.5q0 18 17 35t34 17q4 0 5 -3q0 -13 -6 -31.5t-6 -23.5q0 -10 -9.5 -14.5t-17.5 -6.5z" />
    <glyph glyph-name="aring" unicode="&#xe5;" horiz-adv-x="329" 
d="M30 -3q-24 0 -24 36q0 28 11 69.5t29 86.5t39.5 84.5t44 64.5t41.5 25h3l11 8q5 6 12.5 8t15.5 2q20 0 42 -8t30 -8q7 0 10.5 8t15.5 8q14 0 19.5 -6t5.5 -16q0 -14 -8 -32.5t-13 -30.5q-1 -4 -9 -6.5t-10 -6.5q-16 -46 -29 -93.5t-20 -82.5t-7 -43q0 -25 14 -25
q12 0 26 10.5t27.5 23.5t22.5 23.5t10 10.5q2 0 2 -4t-3 -12t-7 -11q-10 -9 -31 -27.5t-45 -34.5t-42 -16q-21 0 -25 25q0 18 6 46.5t13.5 58.5t13.5 50q-15 -20 -38.5 -51t-51 -61.5t-54.5 -51.5t-48 -21zM62 44q10 0 26.5 13.5t36 34.5t37 42t30 37.5t15.5 20.5
q16 26 31.5 56.5t25.5 56t10 35.5q0 6 -5 6h-3q-10 0 -20.5 2t-24.5 2t-30 -4q-9 -2 -25.5 -24.5t-36 -56.5t-37 -72.5t-29 -73.5t-11.5 -58q0 -17 10 -17zM262 440q-22 0 -37.5 11t-15.5 29q0 28 18 54t45 42.5t53 16.5t41 -16t15 -36q0 -25 -17 -48.5t-44 -38t-58 -14.5z
M277 460q29 0 48.5 25.5t19.5 55.5q0 36 -28 36q-13 0 -30 -11.5t-29.5 -31.5t-12.5 -44q0 -30 32 -30z" />
    <glyph glyph-name="ae" unicode="&#xe6;" horiz-adv-x="470" 
d="M259 -10q-12 0 -27.5 5.5t-27 20t-11.5 41.5t9 60.5t19 63.5q-15 -21 -38 -51.5t-50.5 -61t-54.5 -51t-48 -20.5q-24 0 -24 36q0 28 11 69.5t29 86.5t39.5 84.5t44 64.5t41.5 25h3l11 8q5 6 12.5 8t15.5 2q20 0 42 -8t30 -8q7 0 10.5 8t15.5 8q22 0 24 -17q10 3 28 5.5
t26 2.5q34 0 47 -61q6 -31 6 -50q0 -24 -15.5 -38t-38 -21t-44.5 -9.5t-35 -2.5t-22.5 0.5t-13.5 0.5q-15 -38 -24 -73t-9 -59q0 -40 30 -40q18 0 37.5 16t37.5 37t31 37t17 16q7 0 7 -8q0 -14 -16 -35.5t-39.5 -42.5t-47 -35t-38.5 -14zM62 44q10 0 26.5 13.5t36 34.5
t37 42t30 37.5t15.5 20.5q16 26 31.5 56.5t25.5 56t10 35.5q0 6 -5 6h-3q-10 0 -20.5 2t-24.5 2t-30 -4q-9 -2 -25.5 -24.5t-36 -56.5t-37 -72.5t-29 -73.5t-11.5 -58q0 -17 10 -17zM322 217q38 0 57.5 8.5t20.5 37.5q0 41 -10.5 58t-19.5 17q-12 0 -25.5 -14.5t-26 -34.5
t-22.5 -39.5t-14 -30.5q5 0 16 -1t24 -1z" />
    <glyph glyph-name="ccedilla" unicode="&#xe7;" horiz-adv-x="231" 
d="M65 -8q-26 0 -43.5 17t-17.5 54q0 36 13 80.5t33 87t40.5 73t36.5 37.5q31 11 48 22.5t42 11.5q20 0 33.5 -10t13.5 -37v-7.5t-1 -8.5q-3 -18 -12 -28t-17 -10q-12 0 -12 18q0 10 4 22.5t4 22.5q0 16 -17 16q-9 0 -24.5 -8.5t-30 -19.5t-21.5 -18q-8 -8 -23 -37
t-30.5 -68t-26.5 -77.5t-11 -65.5q0 -37 29 -37q32 0 59 17.5t48.5 40t34.5 40t16 18.5q5 -2 5 -7q0 -10 -14.5 -32.5t-39 -47t-55.5 -42t-64 -17.5zM-50 -280q-4 0 -6.5 3.5t-2.5 7.5q0 9 11.5 11t29 3t35 5.5t29 17.5t11.5 40q0 15 -13 32.5t-26 36.5t-13 38q0 31 18 59
t52 28q4 0 7.5 -1t4.5 -6q-22 -4 -34 -23t-12 -40q0 -14 14.5 -31t29 -37t14.5 -45q0 -35 -25.5 -57t-60 -32t-63.5 -10z" />
    <glyph glyph-name="egrave" unicode="&#xe8;" horiz-adv-x="253" 
d="M86 -10q-12 0 -27.5 5.5t-27 20t-11.5 41.5q0 11 3 26q10 50 19.5 76t11.5 42q-3 1 -9 5t-6 11t6 9t11 2h7q8 17 17.5 37t28.5 54q17 32 44.5 42.5t62.5 10.5q34 0 47 -61q6 -31 6 -50q0 -24 -15.5 -38t-38 -21t-44.5 -9.5t-35 -2.5t-22.5 0.5t-13.5 0.5q-15 -38 -24 -73
t-9 -59q0 -40 30 -40q18 0 37.5 16t37.5 37t31 37t17 16q7 0 7 -8q0 -14 -16 -35.5t-39.5 -42.5t-47 -35t-38.5 -14zM149 217q38 0 57.5 8.5t20.5 37.5q0 41 -10.5 58t-19.5 17q-12 0 -25.5 -14.5t-26 -34.5t-22.5 -39.5t-14 -30.5q5 0 16 -1t24 -1zM275 430q3 0 3 3
q0 6 -20 23t-50.5 40t-62.5 44q-5 3 -9 3q-9 0 -14.5 -8.5t-4.5 -16.5v-2q0 -7 7 -11q13 -8 40 -21.5t56 -27.5t50 -25q2 -1 5 -1z" />
    <glyph glyph-name="eacute" unicode="&#xe9;" horiz-adv-x="253" 
d="M86 -10q-12 0 -27.5 5.5t-27 20t-11.5 41.5q0 11 3 26q10 50 19.5 76t11.5 42q-3 1 -9 5t-6 11t6 9t11 2h7q8 17 17.5 37t28.5 54q17 32 44.5 42.5t62.5 10.5q34 0 47 -61q6 -31 6 -50q0 -24 -15.5 -38t-38 -21t-44.5 -9.5t-35 -2.5t-22.5 0.5t-13.5 0.5q-15 -38 -24 -73
t-9 -59q0 -40 30 -40q18 0 37.5 16t37.5 37t31 37t17 16q7 0 7 -8q0 -14 -16 -35.5t-39.5 -42.5t-47 -35t-38.5 -14zM149 217q38 0 57.5 8.5t20.5 37.5q0 41 -10.5 58t-19.5 17q-12 0 -25.5 -14.5t-26 -34.5t-22.5 -39.5t-14 -30.5q5 0 16 -1t24 -1zM119 431q-3 0 -3 3
q0 6 20 23t50.5 40t62.5 44q5 3 9 3q9 0 14.5 -8.5t4.5 -16.5v-2q0 -7 -7 -11q-13 -8 -40 -21.5t-56 -27.5t-50 -25q-2 -1 -5 -1z" />
    <glyph glyph-name="ecircumflex" unicode="&#xea;" horiz-adv-x="253" 
d="M86 -10q-12 0 -27.5 5.5t-27 20t-11.5 41.5q0 11 3 26q10 50 19.5 76t11.5 42q-3 1 -9 5t-6 11t6 9t11 2h7q8 17 17.5 37t28.5 54q17 32 44.5 42.5t62.5 10.5q34 0 47 -61q6 -31 6 -50q0 -24 -15.5 -38t-38 -21t-44.5 -9.5t-35 -2.5t-22.5 0.5t-13.5 0.5q-15 -38 -24 -73
t-9 -59q0 -40 30 -40q18 0 37.5 16t37.5 37t31 37t17 16q7 0 7 -8q0 -14 -16 -35.5t-39.5 -42.5t-47 -35t-38.5 -14zM149 217q38 0 57.5 8.5t20.5 37.5q0 41 -10.5 58t-19.5 17q-12 0 -25.5 -14.5t-26 -34.5t-22.5 -39.5t-14 -30.5q5 0 16 -1t24 -1zM97 430q-2 0 -1 3
q2 5 19.5 22.5t44.5 40.5t55 44q3 3 6 3h2q3 0 6 -3q21 -16 37.5 -39.5t25.5 -43t7 -24.5q-1 -3 -3 -3q-1 0 -2 1q-14 17 -39 36.5t-40 31.5q-14 -9 -35 -21.5l-42 -25t-37 -21.5q-2 -1 -4 -1z" />
    <glyph glyph-name="edieresis" unicode="&#xeb;" horiz-adv-x="253" 
d="M86 -10q-12 0 -27.5 5.5t-27 20t-11.5 41.5q0 11 3 26q10 50 19.5 76t11.5 42q-3 1 -9 5t-6 11t6 9t11 2h7q8 17 17.5 37t28.5 54q17 32 44.5 42.5t62.5 10.5q34 0 47 -61q6 -31 6 -50q0 -24 -15.5 -38t-38 -21t-44.5 -9.5t-35 -2.5t-22.5 0.5t-13.5 0.5q-15 -38 -24 -73
t-9 -59q0 -40 30 -40q18 0 37.5 16t37.5 37t31 37t17 16q7 0 7 -8q0 -14 -16 -35.5t-39.5 -42.5t-47 -35t-38.5 -14zM149 217q38 0 57.5 8.5t20.5 37.5q0 41 -10.5 58t-19.5 17q-12 0 -25.5 -14.5t-26 -34.5t-22.5 -39.5t-14 -30.5q5 0 16 -1t24 -1zM240 434q-12 0 -15 8.5
t-3 18.5q0 18 17.5 35t33.5 17q5 0 6 -3q0 -13 -6 -31.5t-6 -23.5q0 -10 -9.5 -14.5t-17.5 -6.5zM132 434q-10 0 -13.5 8.5t-3.5 18.5q0 18 17 35t34 17q4 0 5 -3q0 -13 -6 -31.5t-6 -23.5q0 -10 -9.5 -14.5t-17.5 -6.5z" />
    <glyph glyph-name="igrave" unicode="&#xec;" horiz-adv-x="168" 
d="M37 -6q-19 0 -19 18q0 9 4 21q22 63 36 103.5t22 64t11 36t3 20.5q0 5 -1.5 7t-1.5 6t3 13q21 61 38 83t51 22q14 0 15 -9q-10 -19 -32.5 -62t-47.5 -106.5t-44 -145.5q-1 -3 -1 -8q0 -12 10 -12q6 0 19 7.5t27 15t21 7.5t8 -4q0 -6 -15 -18.5t-36 -26t-40.5 -23
t-29.5 -9.5zM265 433q-3 0 -5 1q-20 11 -49 26t-55.5 28.5t-41.5 19.5q-7 3 -7 13q0 8 5.5 16.5t13.5 8.5q5 0 9 -3q32 -21 62.5 -44t50.5 -40t20 -23q0 -3 -3 -3z" />
    <glyph glyph-name="iacute" unicode="&#xed;" horiz-adv-x="168" 
d="M37 -6q-19 0 -19 18q0 9 4 21q22 63 36 103.5t22 64t11 36t3 20.5q0 5 -1.5 7t-1.5 6t3 13q21 61 38 83t51 22q14 0 15 -9q-10 -19 -32.5 -62t-47.5 -106.5t-44 -145.5q-1 -3 -1 -8q0 -12 10 -12q6 0 19 7.5t27 15t21 7.5t8 -4q0 -6 -15 -18.5t-36 -26t-40.5 -23
t-29.5 -9.5zM119 434q-3 0 -3 3q0 6 20 23t50.5 40t62.5 44q5 3 9 3q9 0 14.5 -8.5t4.5 -16.5v-2q0 -7 -7 -11q-13 -8 -40 -21.5t-56 -27.5t-50 -25q-2 -1 -5 -1z" />
    <glyph glyph-name="icircumflex" unicode="&#xee;" horiz-adv-x="168" 
d="M37 -6q-19 0 -19 18q0 9 4 21q22 63 36 103.5t22 64t11 36t3 20.5q0 5 -1.5 7t-1.5 6t3 13q21 61 38 83t51 22q14 0 15 -9q-10 -19 -32.5 -62t-47.5 -106.5t-44 -145.5q-1 -3 -1 -8q0 -12 10 -12q6 0 19 7.5t27 15t21 7.5t8 -4q0 -6 -15 -18.5t-36 -26t-40.5 -23
t-29.5 -9.5zM78 430q-2 0 -1 3q2 5 19.5 22.5t44.5 40.5t55 44q3 3 6 3h2q3 0 6 -3q21 -16 37.5 -39.5t25.5 -43t7 -24.5q-1 -3 -3 -3q-1 0 -2 1q-14 17 -39 36.5t-40 31.5q-14 -9 -35 -21.5l-42 -25t-37 -21.5q-2 -1 -4 -1z" />
    <glyph glyph-name="idieresis" unicode="&#xef;" horiz-adv-x="168" 
d="M37 -6q-19 0 -19 18q0 9 4 21q22 63 36 103.5t22 64t11 36t3 20.5q0 5 -1.5 7t-1.5 6t3 13q21 61 38 83t51 22q14 0 15 -9q-10 -19 -32.5 -62t-47.5 -106.5t-44 -145.5q-1 -3 -1 -8q0 -12 10 -12q6 0 19 7.5t27 15t21 7.5t8 -4q0 -6 -15 -18.5t-36 -26t-40.5 -23
t-29.5 -9.5zM221 434q-12 0 -15 8.5t-3 18.5q0 18 17.5 35t33.5 17q5 0 6 -3q0 -13 -6 -31.5t-6 -23.5q0 -10 -9.5 -14.5t-17.5 -6.5zM113 434q-10 0 -13.5 8.5t-3.5 18.5q0 18 17 35t34 17q4 0 5 -3q0 -13 -6 -31.5t-6 -23.5q0 -10 -9.5 -14.5t-17.5 -6.5z" />
    <glyph glyph-name="eth" unicode="&#xf0;" horiz-adv-x="310" 
d="M75 -13q-24 0 -39 19t-15 59q0 10 1 21.5t3 24.5q4 21 13.5 55t25.5 71.5t36.5 70.5t46 54t55.5 21q12 0 22 -3q-1 20 -18 60.5t-40 81.5q-22 -11 -49 -25t-40 -14q-10 0 -10 10q0 11 13 20q11 8 30 16.5t41 18.5q-13 22 -29 40t-27 31.5t-11 19.5q0 10 7.5 18.5
t17.5 8.5q12 0 27.5 -17.5t30.5 -41t24 -41.5q37 16 65 27t32 11t4 -2q0 -7 -26 -24t-63 -37q27 -54 43.5 -120t16.5 -133q0 -52 -15 -105t-41.5 -97.5t-60.5 -71.5t-71 -27zM94 11q18 0 41.5 20.5t45.5 57t37 83.5t15 100v18q0 20 -4.5 33.5t-21.5 13.5h-7q-2 1 -7 1
q-14 0 -30 -19.5t-31 -49t-28 -62.5t-22 -61.5t-12 -43.5q-2 -13 -3 -23.5t-1 -18.5q0 -49 28 -49z" />
    <glyph glyph-name="ntilde" unicode="&#xf1;" horiz-adv-x="326" 
d="M208 -34q-14 0 -21.5 9.5t-7.5 33.5q0 33 11.5 74t28 84t33.5 82t27 66q5 13 5 20q0 5 -3 5q-5 0 -22 -18q-14 -16 -38.5 -47.5t-52.5 -71t-54 -78t-42.5 -68.5t-17.5 -42q0 -4 -9 -12t-20.5 -14t-19.5 -6q-7 0 -8 7q1 -1 9 19.5t19.5 53.5t23.5 68.5t22 65t14 42.5
q4 12 4 18q0 5 -1.5 7t-1.5 6t3 13q15 41 26 64t25 32t37 9q14 0 15 -9q-7 -15 -20.5 -43t-29 -63t-29 -70t-19.5 -64q12 20 33.5 52.5t49 69.5t57 69.5t59 53.5t54.5 21q8 0 14 -2.5t6 -10.5q0 -9 -7 -20q-24 -39 -48.5 -89t-45 -101t-33 -96t-12.5 -74q0 -18 8 -18
q3 0 11 5t16.5 10t11.5 5q6 0 6 -6q0 -8 -10.5 -18t-25.5 -17t-30 -7zM329 466q-17 0 -33.5 7t-32.5 13.5t-33 6.5q-15 0 -24.5 -6.5t-16 -13t-13.5 -6.5q-2 0 -2 2q0 5 9 14t19.5 17t14.5 10q16 10 36 10q25 0 48 -10.5t47 -10.5q14 0 24 5.5t18 15.5q6 0 6 -4
q0 -15 -15.5 -26t-31.5 -17.5t-20 -6.5z" />
    <glyph glyph-name="ograve" unicode="&#xf2;" horiz-adv-x="261" 
d="M79 -19q-25 0 -41.5 20.5t-16.5 63.5q0 10 1 21.5t3 24.5q3 17 12.5 49.5t24.5 70.5t34.5 72.5t43 56.5t50.5 22h7q0 13 8 23.5t22 10.5q11 -1 16 -18.5t8.5 -40t10.5 -40t22 -19.5q19 -3 19 -11t-19 -18q-7 -3 -13 -4t-10 -1q0 -63 -18 -115t-46.5 -89.5t-59.5 -58
t-58 -20.5zM94 11q18 0 41.5 20.5t45.5 57t37 83.5t15 100q-8 5 -15.5 21t-13.5 30.5t-11 14.5q-14 0 -30 -19.5t-31 -49t-28 -62.5t-22 -61.5t-12 -43.5q-2 -13 -3 -23.5t-1 -18.5q0 -49 28 -49zM294 450q3 0 3 3q0 6 -20 23t-50.5 40t-62.5 44q-5 3 -9 3q-9 0 -14.5 -8.5
t-4.5 -16.5v-2q0 -7 7 -11q13 -8 40 -21.5t56 -27.5t50 -25q2 -1 5 -1z" />
    <glyph glyph-name="oacute" unicode="&#xf3;" horiz-adv-x="261" 
d="M79 -19q-25 0 -41.5 20.5t-16.5 63.5q0 10 1 21.5t3 24.5q3 17 12.5 49.5t24.5 70.5t34.5 72.5t43 56.5t50.5 22h7q0 13 8 23.5t22 10.5q11 -1 16 -18.5t8.5 -40t10.5 -40t22 -19.5q19 -3 19 -11t-19 -18q-7 -3 -13 -4t-10 -1q0 -63 -18 -115t-46.5 -89.5t-59.5 -58
t-58 -20.5zM94 11q18 0 41.5 20.5t45.5 57t37 83.5t15 100q-8 5 -15.5 21t-13.5 30.5t-11 14.5q-14 0 -30 -19.5t-31 -49t-28 -62.5t-22 -61.5t-12 -43.5q-2 -13 -3 -23.5t-1 -18.5q0 -49 28 -49zM138 451q-3 0 -3 3q0 6 20 23t50.5 40t62.5 44q5 3 9 3q9 0 14.5 -8.5
t4.5 -16.5v-2q0 -7 -7 -11q-13 -8 -40 -21.5t-56 -27.5t-50 -25q-2 -1 -5 -1z" />
    <glyph glyph-name="ocircumflex" unicode="&#xf4;" horiz-adv-x="261" 
d="M79 -19q-25 0 -41.5 20.5t-16.5 63.5q0 10 1 21.5t3 24.5q3 17 12.5 49.5t24.5 70.5t34.5 72.5t43 56.5t50.5 22h7q0 13 8 23.5t22 10.5q11 -1 16 -18.5t8.5 -40t10.5 -40t22 -19.5q19 -3 19 -11t-19 -18q-7 -3 -13 -4t-10 -1q0 -63 -18 -115t-46.5 -89.5t-59.5 -58
t-58 -20.5zM94 11q18 0 41.5 20.5t45.5 57t37 83.5t15 100q-8 5 -15.5 21t-13.5 30.5t-11 14.5q-14 0 -30 -19.5t-31 -49t-28 -62.5t-22 -61.5t-12 -43.5q-2 -13 -3 -23.5t-1 -18.5q0 -49 28 -49zM116 450q-2 0 -1 3q2 5 19.5 22.5t44.5 40.5t55 44q3 3 6 3h2q3 0 6 -3
q21 -16 37.5 -39.5t25.5 -43t7 -24.5q-1 -3 -3 -3q-1 0 -2 1q-14 17 -39 36.5t-40 31.5q-14 -9 -35 -21.5l-42 -25t-37 -21.5q-2 -1 -4 -1z" />
    <glyph glyph-name="otilde" unicode="&#xf5;" horiz-adv-x="261" 
d="M79 -19q-25 0 -41.5 20.5t-16.5 63.5q0 10 1 21.5t3 24.5q3 17 12.5 49.5t24.5 70.5t34.5 72.5t43 56.5t50.5 22h7q0 13 8 23.5t22 10.5q11 -1 16 -18.5t8.5 -40t10.5 -40t22 -19.5q19 -3 19 -11t-19 -18q-7 -3 -13 -4t-10 -1q0 -63 -18 -115t-46.5 -89.5t-59.5 -58
t-58 -20.5zM94 11q18 0 41.5 20.5t45.5 57t37 83.5t15 100q-8 5 -15.5 21t-13.5 30.5t-11 14.5q-14 0 -30 -19.5t-31 -49t-28 -62.5t-22 -61.5t-12 -43.5q-2 -13 -3 -23.5t-1 -18.5q0 -49 28 -49zM259.089 445.359q-16.7998 0 -33.1055 7.00586
q-16.3057 7.00488 -32.1172 13.5098q-15.8115 6.50391 -32.6113 6.50391q-14.8232 0 -24.2109 -6.50391q-9.3877 -6.50488 -15.8115 -13.0098t-13.3408 -6.50488q-1.97656 0 -1.97656 2.00098q0 5.00391 8.89355 14.0107q8.89453 9.00684 19.2705 17.0127t14.3291 10.0068
q15.8115 10.0078 35.5762 10.0078q24.7051 0 47.4346 -10.5078t46.4463 -10.5078q13.835 0 23.7178 5.50391q9.88184 5.50391 17.7871 15.5117q5.92969 0 5.92969 -4.00293q0 -15.0117 -15.3174 -26.0195t-31.1289 -17.5127t-19.7646 -6.50488z" />
    <glyph glyph-name="odieresis" unicode="&#xf6;" horiz-adv-x="261" 
d="M79 -19q-25 0 -41.5 20.5t-16.5 63.5q0 10 1 21.5t3 24.5q3 17 12.5 49.5t24.5 70.5t34.5 72.5t43 56.5t50.5 22h7q0 13 8 23.5t22 10.5q11 -1 16 -18.5t8.5 -40t10.5 -40t22 -19.5q19 -3 19 -11t-19 -18q-7 -3 -13 -4t-10 -1q0 -63 -18 -115t-46.5 -89.5t-59.5 -58
t-58 -20.5zM94 11q18 0 41.5 20.5t45.5 57t37 83.5t15 100q-8 5 -15.5 21t-13.5 30.5t-11 14.5q-14 0 -30 -19.5t-31 -49t-28 -62.5t-22 -61.5t-12 -43.5q-2 -13 -3 -23.5t-1 -18.5q0 -49 28 -49zM259 454q-12 0 -15 8.5t-3 18.5q0 18 17.5 35t33.5 17q5 0 6 -3
q0 -13 -6 -31.5t-6 -23.5q0 -10 -9.5 -14.5t-17.5 -6.5zM151 454q-10 0 -13.5 8.5t-3.5 18.5q0 18 17 35t34 17q4 0 5 -3q0 -13 -6 -31.5t-6 -23.5q0 -10 -9.5 -14.5t-17.5 -6.5z" />
    <glyph glyph-name="divide" unicode="&#xf7;" horiz-adv-x="406" 
d="M230 305q-17 0 -29.5 10.5t-12.5 24.5q0 19 14 24t24 5q13 0 27.5 -9t14.5 -25q0 -13 -13.5 -21.5t-24.5 -8.5zM174 211q-20 0 -46.5 1t-51.5 4t-41 7.5t-16 11.5q0 17 11 21.5t51 4.5q20 0 48.5 -0.5t68.5 -0.5q27 0 47.5 -0.5t54.5 -0.5q26 0 52.5 1t43.5 2
q0 -1 0.5 -1.5t0.5 -1.5q0 -7 -16.5 -13.5t-41.5 -11.5t-51.5 -8.5t-48.5 -7t-32 -5.5q-8 -2 -33 -2zM184 105q-17 0 -29.5 10.5t-12.5 24.5q0 19 14 24t24 5q13 0 27.5 -9t14.5 -25q0 -13 -13.5 -21.5t-24.5 -8.5z" />
    <glyph glyph-name="oslash" unicode="&#xf8;" horiz-adv-x="261" 
d="M35 -101q-13 0 -13 21q0 16 5 35.5t14 41.5q-20 20 -20 67q0 11 1 22.5t3 24.5q3 17 12.5 49.5t24.5 70.5t34.5 72.5t43 56.5t50.5 22h7q0 13 8 23.5t22 10.5q8 -1 12.5 -12t8.5 -27q22 34 37 54.5t18 20.5q6 0 10 -6q2 -4 2 -8q0 -6 -10 -22.5t-24 -37t-26 -38.5
q6 -25 17.5 -34t21 -11t9.5 -8q0 -8 -15.5 -15.5t-26.5 -7.5q0 -63 -18 -115t-46.5 -89.5t-60 -58t-58.5 -20.5q-10 0 -22 5q-8 -19 -12.5 -33t-4.5 -25q0 -9 4 -13t4 -6q0 -4 -5 -7t-7 -3zM66 53q29 60 68 129.5t74 129.5q-6 11 -6.5 18.5t-8.5 7.5q-14 0 -30 -19.5
t-31 -49t-28 -62.5t-22 -61.5t-12 -43.5q-2 -11 -3 -21t-1 -18v-10zM93 11q18 0 42 20.5t46 56.5t37 83.5t15 100.5q-6 3 -12 14q-40 -67 -80.5 -138t-67.5 -126q7 -11 20 -11z" />
    <glyph glyph-name="ugrave" unicode="&#xf9;" horiz-adv-x="333" 
d="M170 -63q-13 0 -13 11q0 10 15 20.5t22 26.5q3 8 12 38.5t20.5 70t21 75.5t14.5 55q-11 -17 -33.5 -46.5t-50.5 -63t-57.5 -64t-55.5 -50t-44 -19.5q-14 0 -14 18q0 15 11 43q6 14 18.5 41t26 58.5t23 59t9.5 42.5q0 7 -2 9.5t-2 7.5q0 2 0.5 4.5t1.5 6.5q11 41 20.5 64
t23.5 32t38 9q14 0 17 -9q-4 -10 -17 -41.5t-30.5 -74t-34 -84t-27.5 -72t-11 -37.5q0 -4 3 -4q4 0 10.5 5t13.5 11q59 45 102 101.5t74 114.5q1 15 7.5 38t22.5 41t42 18q11 0 12 -9q-5 -16 -20.5 -57t-32.5 -89q-8 -24 -18 -56.5t-19.5 -65.5t-15.5 -58t-6 -33q0 -3 2 -3
q9 1 24.5 13t32.5 24.5t28 12.5q2 0 5 -1t3 -4q0 -6 -14 -17t-33.5 -23t-36 -22t-22.5 -14q-10 -8 -21.5 -21t-22.5 -23t-22 -10zM329 430q3 0 3 3q0 6 -20 23t-50.5 40t-62.5 44q-5 3 -9 3q-9 0 -14.5 -8.5t-4.5 -16.5v-2q0 -7 7 -11q13 -8 40 -21.5t56 -27.5t50 -25
q2 -1 5 -1z" />
    <glyph glyph-name="uacute" unicode="&#xfa;" horiz-adv-x="333" 
d="M170 -63q-13 0 -13 11q0 10 15 20.5t22 26.5q3 8 12 38.5t20.5 70t21 75.5t14.5 55q-11 -17 -33.5 -46.5t-50.5 -63t-57.5 -64t-55.5 -50t-44 -19.5q-14 0 -14 18q0 15 11 43q6 14 18.5 41t26 58.5t23 59t9.5 42.5q0 7 -2 9.5t-2 7.5q0 2 0.5 4.5t1.5 6.5q11 41 20.5 64
t23.5 32t38 9q14 0 17 -9q-4 -10 -17 -41.5t-30.5 -74t-34 -84t-27.5 -72t-11 -37.5q0 -4 3 -4q4 0 10.5 5t13.5 11q59 45 102 101.5t74 114.5q1 15 7.5 38t22.5 41t42 18q11 0 12 -9q-5 -16 -20.5 -57t-32.5 -89q-8 -24 -18 -56.5t-19.5 -65.5t-15.5 -58t-6 -33q0 -3 2 -3
q9 1 24.5 13t32.5 24.5t28 12.5q2 0 5 -1t3 -4q0 -6 -14 -17t-33.5 -23t-36 -22t-22.5 -14q-10 -8 -21.5 -21t-22.5 -23t-22 -10zM173 431q-3 0 -3 3q0 6 20 23t50.5 40t62.5 44q5 3 9 3q9 0 14.5 -8.5t4.5 -16.5v-2q0 -7 -7 -11q-13 -8 -40 -21.5t-56 -27.5t-50 -25
q-2 -1 -5 -1z" />
    <glyph glyph-name="ucircumflex" unicode="&#xfb;" horiz-adv-x="333" 
d="M170 -63q-13 0 -13 11q0 10 15 20.5t22 26.5q3 8 12 38.5t20.5 70t21 75.5t14.5 55q-11 -17 -33.5 -46.5t-50.5 -63t-57.5 -64t-55.5 -50t-44 -19.5q-14 0 -14 18q0 15 11 43q6 14 18.5 41t26 58.5t23 59t9.5 42.5q0 7 -2 9.5t-2 7.5q0 2 0.5 4.5t1.5 6.5q11 41 20.5 64
t23.5 32t38 9q14 0 17 -9q-4 -10 -17 -41.5t-30.5 -74t-34 -84t-27.5 -72t-11 -37.5q0 -4 3 -4q4 0 10.5 5t13.5 11q59 45 102 101.5t74 114.5q1 15 7.5 38t22.5 41t42 18q11 0 12 -9q-5 -16 -20.5 -57t-32.5 -89q-8 -24 -18 -56.5t-19.5 -65.5t-15.5 -58t-6 -33q0 -3 2 -3
q9 1 24.5 13t32.5 24.5t28 12.5q2 0 5 -1t3 -4q0 -6 -14 -17t-33.5 -23t-36 -22t-22.5 -14q-10 -8 -21.5 -21t-22.5 -23t-22 -10zM151 430q-2 0 -1 3q2 5 19.5 22.5t44.5 40.5t55 44q3 3 6 3h2q3 0 6 -3q21 -16 37.5 -39.5t25.5 -43t7 -24.5q-1 -3 -3 -3q-1 0 -2 1
q-14 17 -39 36.5t-40 31.5q-14 -9 -35 -21.5l-42 -25t-37 -21.5q-2 -1 -4 -1z" />
    <glyph glyph-name="udieresis" unicode="&#xfc;" horiz-adv-x="333" 
d="M170 -63q-13 0 -13 11q0 10 15 20.5t22 26.5q3 8 12 38.5t20.5 70t21 75.5t14.5 55q-11 -17 -33.5 -46.5t-50.5 -63t-57.5 -64t-55.5 -50t-44 -19.5q-14 0 -14 18q0 15 11 43q6 14 18.5 41t26 58.5t23 59t9.5 42.5q0 7 -2 9.5t-2 7.5q0 2 0.5 4.5t1.5 6.5q11 41 20.5 64
t23.5 32t38 9q14 0 17 -9q-4 -10 -17 -41.5t-30.5 -74t-34 -84t-27.5 -72t-11 -37.5q0 -4 3 -4q4 0 10.5 5t13.5 11q59 45 102 101.5t74 114.5q1 15 7.5 38t22.5 41t42 18q11 0 12 -9q-5 -16 -20.5 -57t-32.5 -89q-8 -24 -18 -56.5t-19.5 -65.5t-15.5 -58t-6 -33q0 -3 2 -3
q9 1 24.5 13t32.5 24.5t28 12.5q2 0 5 -1t3 -4q0 -6 -14 -17t-33.5 -23t-36 -22t-22.5 -14q-10 -8 -21.5 -21t-22.5 -23t-22 -10zM294 434q-12 0 -15 8.5t-3 18.5q0 18 17.5 35t33.5 17q5 0 6 -3q0 -13 -6 -31.5t-6 -23.5q0 -10 -9.5 -14.5t-17.5 -6.5zM186 434
q-10 0 -13.5 8.5t-3.5 18.5q0 18 17 35t34 17q4 0 5 -3q0 -13 -6 -31.5t-6 -23.5q0 -10 -9.5 -14.5t-17.5 -6.5z" />
    <glyph glyph-name="yacute" unicode="&#xfd;" horiz-adv-x="317" 
d="M-71 -330q-16 0 -16 19q0 25 17.5 62t43.5 78t52 78.5t44.5 63.5t20.5 31q6 18 8.5 41t2.5 49q0 50 -6.5 97t-19 78t-32.5 31q-4 0 -8 -0.5t-6 -0.5q-4 0 -4 5q0 3 4.5 9t17.5 15q5 4 11.5 14t13.5 19t13 9q15 0 27 -30.5t19.5 -78t7.5 -99.5q0 -12 -0.5 -24t-0.5 -24
q0 -16 8 -16q10 0 29 21t41.5 53t43.5 66.5t34.5 62t13.5 38.5q0 6 -5 6q-3 0 -7 -2t-8 -2q-5 0 -8 5q0 9 14.5 19.5t32.5 18t29 7.5q5 0 7 -1q3 -4 3 -11q0 -15 -14.5 -44t-37.5 -64.5t-50 -73t-53 -71t-45.5 -58t-27.5 -33.5q0 7 -2.5 -3.5t-6 -28t-9 -32t-11.5 -14.5
q-5 0 -10.5 2.5t-7.5 2.5q-74 -100 -104.5 -154t-30.5 -78q0 -12 4 -18.5t4 -12.5q0 -11 -12.5 -19t-23.5 -8zM139 431q-3 0 -3 3q0 6 20 23t50.5 40t62.5 44q5 3 9 3q9 0 14.5 -8.5t4.5 -16.5v-2q0 -7 -7 -11q-13 -8 -40 -21.5t-56 -27.5t-50 -25q-2 -1 -5 -1z" />
    <glyph glyph-name="thorn" unicode="&#xfe;" horiz-adv-x="219" 
d="M-56 -276q-12 0 -12 25q0 14 7.5 41.5t19.5 62.5t25.5 71.5t25.5 68.5t19 52q-3 8 -3 17q0 10 5 20t17 17q9 29 21.5 67t24.5 75.5t20.5 66t11.5 38.5q0 2 -11 2.5t-11 6.5q0 7 7.5 11t15.5 6t8 4q32 85 51.5 146t36 94t37.5 33q7 0 7 -8q0 -6 -6 -20q-1 -3 -10 -27.5
t-21.5 -60t-25 -70.5t-21 -59t-9.5 -26q25 -17 42.5 -40.5t29.5 -50.5q12 -28 21 -66.5t9 -77.5q0 -38 -12 -73t-40.5 -57t-79.5 -22q-23 0 -48 6.5t-42 19.5q-19 -55 -37.5 -107.5t-32.5 -95.5q-1 -2 -1 -4q0 -5 3.5 -9t3.5 -12q0 -5 -6.5 -21t-17 -30t-22.5 -14zM134 16
q37 0 59 17t31.5 43.5t9.5 54.5q0 13 -1.5 26t-3.5 26q-8 39 -21 72.5t-25 53.5t-19 20q-2 0 -10 -24t-19.5 -60t-23.5 -74.5t-23 -68.5l-22 -63q20 -13 36.5 -18t31.5 -5z" />
    <glyph glyph-name="ydieresis" unicode="&#xff;" horiz-adv-x="317" 
d="M-71 -330q-16 0 -16 19q0 25 17.5 62t43.5 78t52 78.5t44.5 63.5t20.5 31q6 18 8.5 41t2.5 49q0 50 -6.5 97t-19 78t-32.5 31q-4 0 -8 -0.5t-6 -0.5q-4 0 -4 5q0 3 4.5 9t17.5 15q5 4 11.5 14t13.5 19t13 9q15 0 27 -30.5t19.5 -78t7.5 -99.5q0 -12 -0.5 -24t-0.5 -24
q0 -16 8 -16q10 0 29 21t41.5 53t43.5 66.5t34.5 62t13.5 38.5q0 6 -5 6q-3 0 -7 -2t-8 -2q-5 0 -8 5q0 9 14.5 19.5t32.5 18t29 7.5q5 0 7 -1q3 -4 3 -11q0 -15 -14.5 -44t-37.5 -64.5t-50 -73t-53 -71t-45.5 -58t-27.5 -33.5q0 7 -2.5 -3.5t-6 -28t-9 -32t-11.5 -14.5
q-5 0 -10.5 2.5t-7.5 2.5q-74 -100 -104.5 -154t-30.5 -78q0 -12 4 -18.5t4 -12.5q0 -11 -12.5 -19t-23.5 -8zM260 434q-12 0 -15 8.5t-3 18.5q0 18 17.5 35t33.5 17q5 0 6 -3q0 -13 -6 -31.5t-6 -23.5q0 -10 -9.5 -14.5t-17.5 -6.5zM152 434q-10 0 -13.5 8.5t-3.5 18.5
q0 18 17 35t34 17q4 0 5 -3q0 -13 -6 -31.5t-6 -23.5q0 -10 -9.5 -14.5t-17.5 -6.5z" />
    <glyph glyph-name="Amacron" unicode="&#x100;" horiz-adv-x="619" 
d="M59 -7h-10q-9 0 -9 7q0 2 0.5 6t1.5 10q12 68 40.5 133t60.5 121q-13 0 -23 -0.5t-27 -0.5q-10 0 -10 7t8.5 15.5t18.5 8.5h50q33 54 74 110.5t85 111.5t87 102q-6 8 -6 16t9.5 19.5t34.5 11.5q12 0 17.5 -6.5t5.5 -14.5q0 -6 -3 -14q8 -21 19.5 -60t23 -86.5t21 -97
t15.5 -91.5q33 -1 33 -11t-30 -15q-1 0 2 -21t8 -53.5t9.5 -68t8 -65t3.5 -44.5q0 -10 -15 -18.5t-27 -8.5t-12 8v12q0 21 -2.5 58.5t-6 78.5t-6.5 74t-5 46q-76 -1 -159.5 -2t-160.5 -1q-34 -61 -64 -129t-40 -137q-1 -7 -7 -9t-13 -2zM197 298l303 2q-6 47 -16.5 95.5
t-21.5 92t-20 75t-13 42.5q-38 -40 -82 -93t-83.5 -109t-66.5 -105zM362 719q-14 0 -19.5 2t-5.5 4q0 7 13 11.5t31 7.5t33 3q19 0 47 -2t50 -6t22 -10q0 -5 -11.5 -7.5t-14.5 -2.5h-145z" />
    <glyph glyph-name="amacron" unicode="&#x101;" horiz-adv-x="329" 
d="M30 -3q-24 0 -24 36q0 28 11 69.5t29 86.5t39.5 84.5t44 64.5t41.5 25h3l11 8q5 6 12.5 8t15.5 2q20 0 42 -8t30 -8q7 0 10.5 8t15.5 8q14 0 19.5 -6t5.5 -16q0 -14 -8 -32.5t-13 -30.5q-1 -4 -9 -6.5t-10 -6.5q-16 -46 -29 -93.5t-20 -82.5t-7 -43q0 -25 14 -25
q12 0 26 10.5t27.5 23.5t22.5 23.5t10 10.5q2 0 2 -4t-3 -12t-7 -11q-10 -9 -31 -27.5t-45 -34.5t-42 -16q-21 0 -25 25q0 18 6 46.5t13.5 58.5t13.5 50q-15 -20 -38.5 -51t-51 -61.5t-54.5 -51.5t-48 -21zM62 44q10 0 26.5 13.5t36 34.5t37 42t30 37.5t15.5 20.5
q16 26 31.5 56.5t25.5 56t10 35.5q0 6 -5 6h-3q-10 0 -20.5 2t-24.5 2t-30 -4q-9 -2 -25.5 -24.5t-36 -56.5t-37 -72.5t-29 -73.5t-11.5 -58q0 -17 10 -17zM188 442q-14 0 -19.5 2t-5.5 4q0 7 13 11.5t31 7.5t33 3q19 0 47 -2t50 -6t22 -10q0 -5 -11.5 -7.5t-14.5 -2.5h-145
z" />
    <glyph glyph-name="Abreve" unicode="&#x102;" horiz-adv-x="619" 
d="M59 -7h-10q-9 0 -9 7q0 2 0.5 6t1.5 10q12 68 40.5 133t60.5 121q-13 0 -23 -0.5t-27 -0.5q-10 0 -10 7t8.5 15.5t18.5 8.5h50q33 54 74 110.5t85 111.5t87 102q-6 8 -6 16t9.5 19.5t34.5 11.5q12 0 17.5 -6.5t5.5 -14.5q0 -6 -3 -14q8 -21 19.5 -60t23 -86.5t21 -97
t15.5 -91.5q33 -1 33 -11t-30 -15q-1 0 2 -21t8 -53.5t9.5 -68t8 -65t3.5 -44.5q0 -10 -15 -18.5t-27 -8.5t-12 8v12q0 21 -2.5 58.5t-6 78.5t-6.5 74t-5 46q-76 -1 -159.5 -2t-160.5 -1q-34 -61 -64 -129t-40 -137q-1 -7 -7 -9t-13 -2zM197 298l303 2q-6 47 -16.5 95.5
t-21.5 92t-20 75t-13 42.5q-38 -40 -82 -93t-83.5 -109t-66.5 -105zM435 709q-12 0 -28 6t-28 19.5t-12 36.5q0 3 2 8.5t9 5.5q2 0 5.5 -1.5t5.5 -7.5q5 -13 17.5 -25.5t34.5 -12.5q20 0 38.5 8.5t31.5 28.5q4 9 12 9q5 0 8.5 -1.5t0.5 -8.5q-16 -34 -42 -49.5t-55 -15.5z
" />
    <glyph glyph-name="abreve" unicode="&#x103;" horiz-adv-x="329" 
d="M30 -3q-24 0 -24 36q0 28 11 69.5t29 86.5t39.5 84.5t44 64.5t41.5 25h3l11 8q5 6 12.5 8t15.5 2q20 0 42 -8t30 -8q7 0 10.5 8t15.5 8q14 0 19.5 -6t5.5 -16q0 -14 -8 -32.5t-13 -30.5q-1 -4 -9 -6.5t-10 -6.5q-16 -46 -29 -93.5t-20 -82.5t-7 -43q0 -25 14 -25
q12 0 26 10.5t27.5 23.5t22.5 23.5t10 10.5q2 0 2 -4t-3 -12t-7 -11q-10 -9 -31 -27.5t-45 -34.5t-42 -16q-21 0 -25 25q0 18 6 46.5t13.5 58.5t13.5 50q-15 -20 -38.5 -51t-51 -61.5t-54.5 -51.5t-48 -21zM62 44q10 0 26.5 13.5t36 34.5t37 42t30 37.5t15.5 20.5
q16 26 31.5 56.5t25.5 56t10 35.5q0 6 -5 6h-3q-10 0 -20.5 2t-24.5 2t-30 -4q-9 -2 -25.5 -24.5t-36 -56.5t-37 -72.5t-29 -73.5t-11.5 -58q0 -17 10 -17zM261 423q-27 0 -52 22t-25 53q0 3 1.5 8t8.5 5q2 0 5 -1.5t5 -6.5q5 -12 18.5 -29.5t44.5 -17.5q29 0 49.5 17
t33.5 36q4 8 11 8q13 0 8 -9q-10 -20 -22.5 -40t-32.5 -32.5t-53 -12.5z" />
    <glyph glyph-name="Aogonek" unicode="&#x104;" horiz-adv-x="619" 
d="M59 -7h-10q-9 0 -9 7q0 2 0.5 6t1.5 10q12 68 40.5 133t60.5 121q-13 0 -23 -0.5t-27 -0.5q-10 0 -10 7t8.5 15.5t18.5 8.5h50q33 54 74 110.5t85 111.5t87 102q-6 8 -6 16t9.5 19.5t34.5 11.5q12 0 17.5 -6.5t5.5 -14.5q0 -6 -3 -14q8 -21 19.5 -60t23 -86.5t21 -97
t15.5 -91.5q33 -1 33 -11t-30 -15q-1 0 2 -21t8 -53.5t9.5 -68t8 -65t3.5 -44.5q0 -10 -15 -18.5t-27 -8.5t-12 8v12q0 21 -2.5 58.5t-6 78.5t-6.5 74t-5 46q-76 -1 -159.5 -2t-160.5 -1q-34 -61 -64 -129t-40 -137q-1 -7 -7 -9t-13 -2zM197 298l303 2q-6 47 -16.5 95.5
t-21.5 92t-20 75t-13 42.5q-38 -40 -82 -93t-83.5 -109t-66.5 -105zM460 -151q-31 0 -48.5 9.5t-17.5 32.5q0 10 5 28.5t13.5 38t19 34t22.5 17.5q3 1 7 1q5 0 8 -4q-11 -16 -23.5 -42t-12.5 -46q0 -41 38 -41q14 0 30 6t29 11.5t16 5.5q11 0 11 -9q0 -11 -12.5 -19
t-29.5 -13t-32.5 -7.5t-22.5 -2.5z" />
    <glyph glyph-name="aogonek" unicode="&#x105;" horiz-adv-x="329" 
d="M30 -3q-24 0 -24 36q0 28 11 69.5t29 86.5t39.5 84.5t44 64.5t41.5 25h3l11 8q5 6 12.5 8t15.5 2q20 0 42 -8t30 -8q7 0 10.5 8t15.5 8q14 0 19.5 -6t5.5 -16q0 -14 -8 -32.5t-13 -30.5q-1 -4 -9 -6.5t-10 -6.5q-16 -46 -29 -93.5t-20 -82.5t-7 -43q0 -25 14 -25
q12 0 26 10.5t27.5 23.5t22.5 23.5t10 10.5q2 0 2 -4t-3 -12t-7 -11q-10 -9 -31 -27.5t-45 -34.5t-42 -16q-21 0 -25 25q0 18 6 46.5t13.5 58.5t13.5 50q-15 -20 -38.5 -51t-51 -61.5t-54.5 -51.5t-48 -21zM62 44q10 0 26.5 13.5t36 34.5t37 42t30 37.5t15.5 20.5
q16 26 31.5 56.5t25.5 56t10 35.5q0 6 -5 6h-3q-10 0 -20.5 2t-24.5 2t-30 -4q-9 -2 -25.5 -24.5t-36 -56.5t-37 -72.5t-29 -73.5t-11.5 -58q0 -17 10 -17zM214 -151q-31 0 -48.5 9.5t-17.5 32.5q0 10 5 28.5t13.5 38t19 34t22.5 17.5q3 1 7 1q5 0 8 -4q-11 -16 -23.5 -42
t-12.5 -46q0 -41 38 -41q14 0 30 6t29 11.5t16 5.5q11 0 11 -9q0 -11 -12.5 -19t-29.5 -13t-32.5 -7.5t-22.5 -2.5z" />
    <glyph glyph-name="Cacute" unicode="&#x106;" horiz-adv-x="684" 
d="M348 -13q-95 0 -159.5 36t-97 101.5t-32.5 152.5q0 77 25 146t73.5 122.5t119.5 84.5t163 31q29 0 60 -4.5t57 -17t42 -37t16 -63.5q0 -31 -11.5 -46.5t-28.5 -15.5q-21 0 -21 19q0 17 10 32t10 28q0 25 -20.5 42.5t-51 27.5t-60.5 10q-78 0 -140 -30.5t-105 -82
t-66 -116t-23 -133.5t25 -129t76.5 -97.5t129.5 -37.5q69 0 121 18.5t88.5 45t58.5 52t32 39.5q5 5 7 5q5 0 5 -15q0 -33 -20.5 -59.5t-54.5 -47t-74.5 -34t-80.5 -20.5t-73 -7zM360.123 702.035q-3.08984 0 -3.08984 3.09082q0 6.17969 20.6006 23.6904t52.0166 41.2012
t64.377 45.3213q5.14941 3.08984 9.26953 3.08984q9.27051 0 14.9355 -8.75488q5.66504 -8.75586 4.63477 -16.9961v-2.05957q0 -7.20996 -7.20996 -11.3301q-13.3896 -8.24023 -41.2012 -22.1455q-27.8105 -13.9062 -57.6816 -28.3262q-29.8701 -14.4199 -51.501 -25.751
q-2.06055 -1.03027 -5.15039 -1.03027z" />
    <glyph glyph-name="cacute" unicode="&#x107;" horiz-adv-x="231" 
d="M65 -8q-26 0 -43.5 17t-17.5 54q0 36 13 80.5t33 87t40.5 73t36.5 37.5q31 11 48 22.5t42 11.5q20 0 33.5 -10t13.5 -37v-7.5t-1 -8.5q-3 -18 -12 -28t-17 -10q-12 0 -12 18q0 10 4 22.5t4 22.5q0 16 -17 16q-9 0 -24.5 -8.5t-30 -19.5t-21.5 -18q-8 -8 -23 -37
t-30.5 -68t-26.5 -77.5t-11 -65.5q0 -37 29 -37q32 0 59 17.5t48.5 40t34.5 40t16 18.5q5 -2 5 -7q0 -10 -14.5 -32.5t-39 -47t-55.5 -42t-64 -17.5zM139 431q-3 0 -3 3q0 6 20 23t50.5 40t62.5 44q5 3 9 3q9 0 14.5 -8.5t4.5 -16.5v-2q0 -7 -7 -11q-13 -8 -40 -21.5
t-56 -27.5t-50 -25q-2 -1 -5 -1z" />
    <glyph glyph-name="Ccaron" unicode="&#x10c;" horiz-adv-x="684" 
d="M348 -13q-95 0 -159.5 36t-97 101.5t-32.5 152.5q0 77 25 146t73.5 122.5t119.5 84.5t163 31q29 0 60 -4.5t57 -17t42 -37t16 -63.5q0 -31 -11.5 -46.5t-28.5 -15.5q-21 0 -21 19q0 17 10 32t10 28q0 25 -20.5 42.5t-51 27.5t-60.5 10q-78 0 -140 -30.5t-105 -82
t-66 -116t-23 -133.5t25 -129t76.5 -97.5t129.5 -37.5q69 0 121 18.5t88.5 45t58.5 52t32 39.5q5 5 7 5q5 0 5 -15q0 -33 -20.5 -59.5t-54.5 -47t-74.5 -34t-80.5 -20.5t-73 -7zM566.009 797.517q2.06055 0 1.03027 -1.03027q-18.541 -18.54 -44.291 -39.1406
q-25.751 -20.6006 -73.1328 -48.4111l-6.17969 -3.09082h-2.06055q-3.08984 0 -6.17969 3.09082q-32.9609 25.751 -50.4717 45.8359q-17.5107 20.0859 -32.9609 39.6562q-3.08984 3.08984 3.09082 3.08984q1.0293 0 2.05957 -1.03027q19.5703 -14.4199 42.7461 -25.75
t49.9561 -17.5107q25.751 7.20996 56.6523 21.6309q30.9004 14.4199 55.6211 21.6299q2.06055 1.03027 4.12012 1.03027z" />
    <glyph glyph-name="ccaron" unicode="&#x10d;" horiz-adv-x="231" 
d="M65 -8q-26 0 -43.5 17t-17.5 54q0 36 13 80.5t33 87t40.5 73t36.5 37.5q31 11 48 22.5t42 11.5q20 0 33.5 -10t13.5 -37v-7.5t-1 -8.5q-3 -18 -12 -28t-17 -10q-12 0 -12 18q0 10 4 22.5t4 22.5q0 16 -17 16q-9 0 -24.5 -8.5t-30 -19.5t-21.5 -18q-8 -8 -23 -37
t-30.5 -68t-26.5 -77.5t-11 -65.5q0 -37 29 -37q32 0 59 17.5t48.5 40t34.5 40t16 18.5q5 -2 5 -7q0 -10 -14.5 -32.5t-39 -47t-55.5 -42t-64 -17.5zM217 432q-2 0 -5 3q-20 16 -36.5 39.5t-25.5 43t-7 24.5q2 3 3 3q2 0 3 -1q14 -16 38 -36t39 -32q14 9 34.5 21.5l41 25
t35.5 21.5q2 1 3 1q2 0 2 -2q0 -3 -17 -20.5t-43.5 -41t-55.5 -46.5q-4 -3 -7 -3h-2z" />
    <glyph glyph-name="Dcaron" unicode="&#x10e;" horiz-adv-x="775" 
d="M204 -9q-52 0 -81.5 12t-29.5 30q0 8 7 8q3 0 6 -1q-4 19 -5.5 44t-1.5 53q0 55 5 119.5t14 130t19.5 124t21.5 100.5h-8q-13 0 -30 -3t-22 -3q-7 0 -7 10q0 9 9 21t27 12h39q4 22 15.5 33t36.5 11q14 0 14 -11q-3 -7 -5 -11t-7 -19h26q66 0 133.5 -11t129 -33.5
t110.5 -59t77 -87t28 -116.5q0 -59 -26 -108t-69.5 -88t-98 -68.5t-113.5 -49t-114 -29.5t-100 -10zM234 18q46 0 100.5 15t108.5 40t99 57.5t72 66.5q40 51 57 93.5t17 86.5q0 55 -26.5 94.5t-69.5 65t-94 41t-101 23t-90 10t-61 2.5h-35q-31 -106 -49.5 -225t-18.5 -231
v-26t1 -26q2 -45 18 -66t72 -21zM514.009 797.517q2.06055 0 1.03027 -1.03027q-18.541 -18.54 -44.291 -39.1406q-25.751 -20.6006 -73.1328 -48.4111l-6.17969 -3.09082h-2.06055q-3.08984 0 -6.17969 3.09082q-32.9609 25.751 -50.4717 45.8359
q-17.5107 20.0859 -32.9609 39.6562q-3.08984 3.08984 3.09082 3.08984q1.0293 0 2.05957 -1.03027q19.5703 -14.4199 42.7461 -25.75t49.9561 -17.5107q25.751 7.20996 56.6523 21.6309q30.9004 14.4199 55.6211 21.6299q2.06055 1.03027 4.12012 1.03027z" />
    <glyph glyph-name="dcaron" unicode="&#x10f;" horiz-adv-x="339" 
d="M26 -7q-21 0 -21 30q0 26 12 67.5t31 88.5t42 88.5t45.5 68t40.5 26.5h4q11 0 16.5 7.5t20.5 7.5q20 0 43 -8t29 -8h0.5t0.5 1q8 22 19.5 51t22.5 59t20 54t12 36q-11 0 -11 12q0 11 6.5 27t14 29.5t9.5 16.5q4 8 16 8q8 0 15.5 -2.5t11.5 -4.5q3 -1 3 -9q0 -13 -10 -43
t-25.5 -69.5t-33 -84.5t-32.5 -89q1 1 2 1q4 0 8.5 -7t4.5 -13q0 -4 -3.5 -5t-6.5 -1q-4 0 -8.5 1t-5.5 2q-7 -17 -17.5 -46.5t-21.5 -64t-20.5 -67.5t-15.5 -57.5t-6 -34.5q0 -23 13 -23t27 10.5t27 25t22.5 25t12.5 10.5t3 -5t-3 -12.5t-4 -7.5q-7 -7 -22.5 -20t-35 -27.5
t-38 -24.5t-32.5 -10q-7 0 -13 5t-6 16q0 20 7 51.5t16 63t15 50.5q-10 -14 -28 -38t-41 -51t-47.5 -51t-46.5 -39.5t-38 -15.5zM62 43q11 0 28.5 15t36.5 36t34 38.5t20 23.5q31 34 51.5 73.5t33 70.5t17.5 39q0 5 -20 8t-39 3q-17 0 -25 -2t-25 -25t-38 -58t-40 -74
t-31.5 -74t-12.5 -58q0 -16 10 -16zM462 498q-1 0 -1 3q0 11 1.5 18.5t4.5 15.5q10 24 17.5 43.5t14.5 42.5q-1 -1 -4 -2.5t-5 -1.5q-4 0 -3 7q2 5 13.5 18t30.5 14h2q11 0 6 -9q1 -1 -0.5 -3t-2.5 -4q0 -4 -1.5 -9t-3.5 -11q-4 -11 -14 -31t-21.5 -40.5t-21 -35.5
t-12.5 -15z" />
    <glyph glyph-name="Dcroat" unicode="&#x110;" horiz-adv-x="775" 
d="M204 -9q-52 0 -81.5 12t-29.5 30q0 8 7 8q3 0 6 -1q-4 20 -6 46t-2 56q0 41 3 86q-14 -1 -27.5 -1h-25.5q-13 0 -24.5 5.5t-11.5 14.5q0 8 9 12.5t34 4.5q12 0 25 -0.5t23 -1.5q5 62 13.5 125t19 119t20.5 97h-8q-13 0 -30 -3t-22 -3q-7 0 -7 10q0 9 9 21t27 12h39
q5 26 16.5 39t38.5 13q14 0 14 -11q-3 -7 -6.5 -15t-8.5 -23q11 1 22 1h22q60 0 124 -10.5t124.5 -33.5t109 -58t77 -84.5t28.5 -113.5q0 -59 -26 -108t-69.5 -88t-98 -68.5t-113.5 -49t-114 -29.5t-100 -10zM234 18q46 0 100.5 15t108.5 40t99 57.5t72 66.5q40 51 57 93.5
t17 86.5q0 60 -39 103.5t-103.5 71t-142.5 41t-156 13.5h-18.5t-20.5 -1q-24 -82 -40 -169t-22 -174h30.5t39.5 -0.5t33.5 -1.5t13.5 -4q0 -8 -36 -14t-83 -11q-1 -16 -1.5 -32t-0.5 -32t0.5 -31.5t1.5 -30.5q2 -45 18 -66t72 -21z" />
    <glyph glyph-name="dcroat" unicode="&#x111;" horiz-adv-x="339" 
d="M26 -7q-21 0 -21 30q0 26 12 67.5t31 88.5t42 88.5t45.5 68t40.5 26.5h4q11 0 16.5 7.5t20.5 7.5q20 0 43 -8t29 -8h0.5t0.5 1q8 22 19.5 51t22.5 59t20 54t12 36q-11 0 -11 12q0 11 6.5 27t14 29.5t9.5 16.5q4 8 16 8q8 0 15.5 -2.5t11.5 -4.5q3 -1 3 -9q0 -13 -10 -43
t-25.5 -69.5t-33 -84.5t-32.5 -89q1 1 2 1q4 0 8.5 -7t4.5 -13q0 -4 -3.5 -5t-6.5 -1q-4 0 -8.5 1t-5.5 2q-7 -17 -17.5 -46.5t-21.5 -64t-20.5 -67.5t-15.5 -57.5t-6 -34.5q0 -23 13 -23t27 10.5t27 25t22.5 25t12.5 10.5t3 -5t-3 -12.5t-4 -7.5q-7 -7 -22.5 -20t-35 -27.5
t-38 -24.5t-32.5 -10q-7 0 -13 5t-6 16q0 20 7 51.5t16 63t15 50.5q-10 -14 -28 -38t-41 -51t-47.5 -51t-46.5 -39.5t-38 -15.5zM62 43q11 0 28.5 15t36.5 36t34 38.5t20 23.5q31 34 51.5 73.5t33 70.5t17.5 39q0 5 -20 8t-39 3q-17 0 -25 -2t-25 -25t-38 -58t-40 -74
t-31.5 -74t-12.5 -58q0 -16 10 -16zM257 476q-15 0 -15 13q0 16 12.5 24t25 11.5t11.5 3.5q7 0 7 -5q0 -6 -5 -11q20 -1 39.5 -2.5t44.5 -1.5h15.5t16.5 1l9.5 0.5t22 1t19.5 0.5q18 0 18 -6q0 -5 -19.5 -10.5t-50 -9.5t-63.5 -6.5t-59 -2.5q-5 0 -10 0.5t-10 0.5
q-2 0 -4.5 -0.5t-4.5 -0.5z" />
    <glyph glyph-name="Emacron" unicode="&#x112;" horiz-adv-x="577" 
d="M356 -1h-129q-41 0 -81 0.5t-65.5 2t-25.5 3.5q0 8 12 20t23 14q-1 4 -1 9v11q0 26 3 66.5t8.5 89.5t10.5 99h-13q-10 0 -10 7t8 15t18 9q10 80 22 155.5t25 123.5h-53q-22 0 -22 8q0 5 12.5 10.5t29.5 5.5h39q5 28 20.5 36t36.5 8q15 0 15 -10q0 -7 -5.5 -15.5
t-9.5 -17.5q10 0 35.5 -0.5t88.5 -0.5q31 0 73.5 0.5t97.5 0.5q15 0 15 -15q0 -10 -10 -27t-21 -17q-7 0 -13.5 12.5t-20.5 13.5q-13 2 -40.5 2h-44.5q-13 0 -24.5 -0.5t-22.5 -0.5q-26 0 -52.5 0.5t-70.5 1.5q-10 -35 -21 -86t-19.5 -101.5t-13.5 -86.5h72t85.5 0.5t78.5 1
t50 1.5q6 0 6 -6t-9 -15.5t-29 -12.5h-258q-2 -26 -6 -64t-6.5 -79t-2.5 -78q0 -18 1 -34t3 -28q36 0 98 -0.5t162 -0.5q22 0 55.5 4t59.5 12h1q4 0 4 -10t-7 -23t-23 -13q-33 0 -68 -0.5t-71 -0.5zM295 719q-14 0 -19.5 2t-5.5 4q0 7 13 11.5t31 7.5t33 3q19 0 47 -2t50 -6
t22 -10q0 -5 -11.5 -7.5t-14.5 -2.5h-145z" />
    <glyph glyph-name="emacron" unicode="&#x113;" horiz-adv-x="253" 
d="M86 -10q-12 0 -27.5 5.5t-27 20t-11.5 41.5q0 11 3 26q10 50 19.5 76t11.5 42q-3 1 -9 5t-6 11t6 9t11 2h7q8 17 17.5 37t28.5 54q17 32 44.5 42.5t62.5 10.5q34 0 47 -61q6 -31 6 -50q0 -24 -15.5 -38t-38 -21t-44.5 -9.5t-35 -2.5t-22.5 0.5t-13.5 0.5q-15 -38 -24 -73
t-9 -59q0 -40 30 -40q18 0 37.5 16t37.5 37t31 37t17 16q7 0 7 -8q0 -14 -16 -35.5t-39.5 -42.5t-47 -35t-38.5 -14zM149 217q38 0 57.5 8.5t20.5 37.5q0 41 -10.5 58t-19.5 17q-12 0 -25.5 -14.5t-26 -34.5t-22.5 -39.5t-14 -30.5q5 0 16 -1t24 -1zM159 435q-14 0 -19.5 2
t-5.5 4q0 7 13 11.5t31 7.5t33 3q19 0 47 -2t50 -6t22 -10q0 -5 -11.5 -7.5t-14.5 -2.5h-145z" />
    <glyph glyph-name="Edotaccent" unicode="&#x116;" horiz-adv-x="577" 
d="M356 -1h-129q-41 0 -81 0.5t-65.5 2t-25.5 3.5q0 8 12 20t23 14q-1 4 -1 9v11q0 26 3 66.5t8.5 89.5t10.5 99h-13q-10 0 -10 7t8 15t18 9q10 80 22 155.5t25 123.5h-53q-22 0 -22 8q0 5 12.5 10.5t29.5 5.5h39q5 28 20.5 36t36.5 8q15 0 15 -10q0 -7 -5.5 -15.5
t-9.5 -17.5q10 0 35.5 -0.5t88.5 -0.5q31 0 73.5 0.5t97.5 0.5q15 0 15 -15q0 -10 -10 -27t-21 -17q-7 0 -13.5 12.5t-20.5 13.5q-13 2 -40.5 2h-44.5q-13 0 -24.5 -0.5t-22.5 -0.5q-26 0 -52.5 0.5t-70.5 1.5q-10 -35 -21 -86t-19.5 -101.5t-13.5 -86.5h72t85.5 0.5t78.5 1
t50 1.5q6 0 6 -6t-9 -15.5t-29 -12.5h-258q-2 -26 -6 -64t-6.5 -79t-2.5 -78q0 -18 1 -34t3 -28q36 0 98 -0.5t162 -0.5q22 0 55.5 4t59.5 12h1q4 0 4 -10t-7 -23t-23 -13q-33 0 -68 -0.5t-71 -0.5zM366 707q-7 0 -14 11t-7 18q0 11 15 24t33 23t28 10q2 0 3 -1v1
q0 -1 0.5 -1.5l0.5 -0.5q0 -1 -6.5 -8t-8.5 -9q-6 -8 -11 -24.5t-12.5 -29.5t-20.5 -13z" />
    <glyph glyph-name="edotaccent" unicode="&#x117;" horiz-adv-x="253" 
d="M86 -10q-12 0 -27.5 5.5t-27 20t-11.5 41.5q0 11 3 26q10 50 19.5 76t11.5 42q-3 1 -9 5t-6 11t6 9t11 2h7q8 17 17.5 37t28.5 54q17 32 44.5 42.5t62.5 10.5q34 0 47 -61q6 -31 6 -50q0 -24 -15.5 -38t-38 -21t-44.5 -9.5t-35 -2.5t-22.5 0.5t-13.5 0.5q-15 -38 -24 -73
t-9 -59q0 -40 30 -40q18 0 37.5 16t37.5 37t31 37t17 16q7 0 7 -8q0 -14 -16 -35.5t-39.5 -42.5t-47 -35t-38.5 -14zM149 217q38 0 57.5 8.5t20.5 37.5q0 41 -10.5 58t-19.5 17q-12 0 -25.5 -14.5t-26 -34.5t-22.5 -39.5t-14 -30.5q5 0 16 -1t24 -1zM195 432q-7 0 -14 11
t-7 18q0 11 15 24t33 23t28 10q2 0 3 -1v1q0 -1 0.5 -1.5l0.5 -0.5q0 -1 -6.5 -8t-8.5 -9q-6 -8 -11 -24.5t-12.5 -29.5t-20.5 -13z" />
    <glyph glyph-name="Eogonek" unicode="&#x118;" horiz-adv-x="577" 
d="M356 -1h-129q-41 0 -81 0.5t-65.5 2t-25.5 3.5q0 8 12 20t23 14q-1 4 -1 9v11q0 26 3 66.5t8.5 89.5t10.5 99h-13q-10 0 -10 7t8 15t18 9q10 80 22 155.5t25 123.5h-53q-22 0 -22 8q0 5 12.5 10.5t29.5 5.5h39q5 28 20.5 36t36.5 8q15 0 15 -10q0 -7 -5.5 -15.5
t-9.5 -17.5q10 0 35.5 -0.5t88.5 -0.5q31 0 73.5 0.5t97.5 0.5q15 0 15 -15q0 -10 -10 -27t-21 -17q-7 0 -13.5 12.5t-20.5 13.5q-13 2 -40.5 2h-44.5q-13 0 -24.5 -0.5t-22.5 -0.5q-26 0 -52.5 0.5t-70.5 1.5q-10 -35 -21 -86t-19.5 -101.5t-13.5 -86.5h72t85.5 0.5t78.5 1
t50 1.5q6 0 6 -6t-9 -15.5t-29 -12.5h-258q-2 -26 -6 -64t-6.5 -79t-2.5 -78q0 -18 1 -34t3 -28q36 0 98 -0.5t162 -0.5q22 0 55.5 4t59.5 12h1q4 0 4 -10t-7 -23t-23 -13q-33 0 -68 -0.5t-71 -0.5zM296 -151q-31 0 -48.5 9.5t-17.5 32.5q0 10 5 28.5t13.5 38t19 34
t22.5 17.5q3 1 7 1q5 0 8 -4q-11 -16 -23.5 -42t-12.5 -46q0 -41 38 -41q14 0 30 6t29 11.5t16 5.5q11 0 11 -9q0 -11 -12.5 -19t-29.5 -13t-32.5 -7.5t-22.5 -2.5z" />
    <glyph glyph-name="eogonek" unicode="&#x119;" horiz-adv-x="253" 
d="M86 -10q-12 0 -27.5 5.5t-27 20t-11.5 41.5q0 11 3 26q10 50 19.5 76t11.5 42q-3 1 -9 5t-6 11t6 9t11 2h7q8 17 17.5 37t28.5 54q17 32 44.5 42.5t62.5 10.5q34 0 47 -61q6 -31 6 -50q0 -24 -15.5 -38t-38 -21t-44.5 -9.5t-35 -2.5t-22.5 0.5t-13.5 0.5q-15 -38 -24 -73
t-9 -59q0 -40 30 -40q18 0 37.5 16t37.5 37t31 37t17 16q7 0 7 -8q0 -14 -16 -35.5t-39.5 -42.5t-47 -35t-38.5 -14zM149 217q38 0 57.5 8.5t20.5 37.5q0 41 -10.5 58t-19.5 17q-12 0 -25.5 -14.5t-26 -34.5t-22.5 -39.5t-14 -30.5q5 0 16 -1t24 -1zM93 -151
q-31 0 -48.5 9.5t-17.5 32.5q0 10 5 28.5t13.5 38t19 34t22.5 17.5q3 1 7 1q5 0 8 -4q-11 -16 -23.5 -42t-12.5 -46q0 -41 38 -41q14 0 30 6t29 11.5t16 5.5q11 0 11 -9q0 -11 -12.5 -19t-29.5 -13t-32.5 -7.5t-22.5 -2.5z" />
    <glyph glyph-name="Ecaron" unicode="&#x11a;" horiz-adv-x="577" 
d="M356 -1h-129q-41 0 -81 0.5t-65.5 2t-25.5 3.5q0 8 12 20t23 14q-1 4 -1 9v11q0 26 3 66.5t8.5 89.5t10.5 99h-13q-10 0 -10 7t8 15t18 9q10 80 22 155.5t25 123.5h-53q-22 0 -22 8q0 5 12.5 10.5t29.5 5.5h39q5 28 20.5 36t36.5 8q15 0 15 -10q0 -7 -5.5 -15.5
t-9.5 -17.5q10 0 35.5 -0.5t88.5 -0.5q31 0 73.5 0.5t97.5 0.5q15 0 15 -15q0 -10 -10 -27t-21 -17q-7 0 -13.5 12.5t-20.5 13.5q-13 2 -40.5 2h-44.5q-13 0 -24.5 -0.5t-22.5 -0.5q-26 0 -52.5 0.5t-70.5 1.5q-10 -35 -21 -86t-19.5 -101.5t-13.5 -86.5h72t85.5 0.5t78.5 1
t50 1.5q6 0 6 -6t-9 -15.5t-29 -12.5h-258q-2 -26 -6 -64t-6.5 -79t-2.5 -78q0 -18 1 -34t3 -28q36 0 98 -0.5t162 -0.5q22 0 55.5 4t59.5 12h1q4 0 4 -10t-7 -23t-23 -13q-33 0 -68 -0.5t-71 -0.5zM494.009 797.517q2.06055 0 1.03027 -1.03027
q-18.541 -18.54 -44.291 -39.1406q-25.751 -20.6006 -73.1328 -48.4111l-6.17969 -3.09082h-2.06055q-3.08984 0 -6.17969 3.09082q-32.9609 25.751 -50.4717 45.8359q-17.5107 20.0859 -32.9609 39.6562q-3.08984 3.08984 3.09082 3.08984q1.0293 0 2.05957 -1.03027
q19.5703 -14.4199 42.7461 -25.75t49.9561 -17.5107q25.751 7.20996 56.6523 21.6309q30.9004 14.4199 55.6211 21.6299q2.06055 1.03027 4.12012 1.03027z" />
    <glyph glyph-name="ecaron" unicode="&#x11b;" horiz-adv-x="253" 
d="M86 -10q-12 0 -27.5 5.5t-27 20t-11.5 41.5q0 11 3 26q10 50 19.5 76t11.5 42q-3 1 -9 5t-6 11t6 9t11 2h7q8 17 17.5 37t28.5 54q17 32 44.5 42.5t62.5 10.5q34 0 47 -61q6 -31 6 -50q0 -24 -15.5 -38t-38 -21t-44.5 -9.5t-35 -2.5t-22.5 0.5t-13.5 0.5q-15 -38 -24 -73
t-9 -59q0 -40 30 -40q18 0 37.5 16t37.5 37t31 37t17 16q7 0 7 -8q0 -14 -16 -35.5t-39.5 -42.5t-47 -35t-38.5 -14zM149 217q38 0 57.5 8.5t20.5 37.5q0 41 -10.5 58t-19.5 17q-12 0 -25.5 -14.5t-26 -34.5t-22.5 -39.5t-14 -30.5q5 0 16 -1t24 -1zM197 432q-2 0 -5 3
q-20 16 -36.5 39.5t-25.5 43t-7 24.5q2 3 3 3q2 0 3 -1q14 -16 38 -36t39 -32q14 9 34.5 21.5l41 25t35.5 21.5q2 1 3 1q2 0 2 -2q0 -3 -17 -20.5t-43.5 -41t-55.5 -46.5q-4 -3 -7 -3h-2z" />
    <glyph glyph-name="uni0122" unicode="&#x122;" horiz-adv-x="780" 
d="M625 -20q-7 0 -13 6t-6 18q0 20 4 44t8 49q-29 -42 -74.5 -66.5t-97 -35.5t-98.5 -11q-94 0 -158.5 36t-97.5 101t-33 152q0 77 27 146t80 123t131 85t180 31q32 0 66 -4.5t63 -17t46.5 -37t17.5 -63.5q0 -31 -13 -46.5t-31 -15.5q-19 0 -19 11t10 28.5t10 33.5
q0 30 -20.5 49t-54.5 28t-73 9q-89 0 -158 -30t-116.5 -81.5t-72 -116t-24.5 -134.5q0 -69 25 -129t76.5 -97.5t129.5 -37.5q65 0 114.5 16.5t85.5 41.5t59 52t34 49q5 21 8 42t6 40h-231q-10 0 -10 7t8.5 15.5t18.5 8.5h35t67.5 0.5t80.5 0.5t74 0.5t48 1.5q6 0 6 -6
t-9 -15.5t-29 -12.5h-20q-5 -17 -12.5 -40t-13 -58t-5.5 -89q0 -11 1.5 -20.5t1.5 -18.5q0 -19 -10.5 -30.5t-21.5 -11.5zM325 -210q-3 0 -3 2v1q10 11 24 29t24 36t6 28q-1 5 -5 8q-11 8 -11 17q0 10 10 21t26 11q8 0 12 -5q5 -7 6.5 -12t2.5 -9v-3q0 -4 -1.5 -6t-2.5 -7
q-5 -35 -23 -60t-37 -38t-28 -13z" />
    <glyph glyph-name="uni0123" unicode="&#x123;" horiz-adv-x="293" 
d="M108 65q-28 0 -40.5 16.5t-12.5 50.5q0 42 14.5 85.5t38.5 80t53.5 58.5t59.5 22q4 0 7.5 -0.5t7.5 -1.5q0 14 4.5 25t21.5 11q18 0 23.5 -12.5t5.5 -33.5q0 -11 -1 -24t-1 -25q3 -2 12 -8.5t9 -14.5q0 -3 -1 -5q-2 -3 -6 -3.5t-8 -0.5h-9q-2 -9 -5 -25.5t-5.5 -32
t-5.5 -21.5q-25 -64 -70 -102.5t-92 -38.5zM122 94q16 0 37.5 14.5t42 41t34 62t13.5 77.5q-9 2 -11 11.5t-2.5 21t-2.5 20t-11 8.5q-18 0 -34 -13.5t-29 -34t-22.5 -40t-14.5 -31.5q-8 -22 -16.5 -52.5t-8.5 -53.5q0 -31 25 -31zM0 -350q-31 0 -52 11t-21 42q0 30 15.5 72
t37.5 84.5t44 76.5t34 48q2 2 7.5 5t12.5 5q-13 8 -26.5 14t-13.5 15q0 11 9.5 20.5t19.5 9.5h4q30 -11 60 -38t54.5 -62.5t39.5 -74t15 -72.5v-10t-1 -10q-4 -27 -29 -51t-61.5 -43.5t-76 -30.5t-72.5 -11zM2 -325q25 0 57 9.5t62.5 24.5t50.5 32t20 32v13q0 38 -14 74.5
t-36 67.5t-47 52q-10 -16 -33 -48t-47.5 -72t-42 -78t-17.5 -66q0 -41 47 -41zM226 433q-8 0 -12 5q-4 8 -5.5 12.5t-2.5 8.5v3q0 5 2 7t3 6q5 36 24.5 59.5t40 35.5t28.5 12q3 0 3 -2v-1q-9 -9 -23 -25.5t-25 -33.5t-11 -28q0 -7 5 -12q10 -7 10 -15q0 -10 -10 -21t-27 -11
z" />
    <glyph glyph-name="Itilde" unicode="&#x128;" horiz-adv-x="458" 
d="M206 -8q-13 0 -19 8h-131q-10 0 -10 7t8.5 15.5t18.5 8.5h111q13 135 28.5 272t40.5 265v30q0 6 1 10t1 10h-116q-10 0 -10 7t8.5 15.5t18.5 8.5h109q5 11 18.5 16.5t39.5 5.5q15 0 15 -10v-2l-6 -9q42 0 77.5 0.5t51.5 1.5q6 0 6 -6t-9 -15.5t-29 -12.5h-109v-2
q-17 -48 -31 -112.5t-25 -134.5t-18 -134.5t-11 -114.5t-4 -73q0 -11 3 -16q46 1 86.5 1.5t57.5 1.5q6 0 6 -6t-9 -15.5t-29 -12.5h-118q-10 -8 -22 -8zM352.089 702.359q-16.7998 0 -33.1055 7.00586q-16.3057 7.00488 -32.1172 13.5098q-15.8115 6.50391 -32.6113 6.50391
q-14.8232 0 -24.2109 -6.50391q-9.3877 -6.50488 -15.8115 -13.0098t-13.3408 -6.50488q-1.97656 0 -1.97656 2.00098q0 5.00391 8.89355 14.0107q8.89453 9.00684 19.2705 17.0127t14.3291 10.0068q15.8115 10.0078 35.5762 10.0078q24.7051 0 47.4346 -10.5078
t46.4463 -10.5078q13.835 0 23.7178 5.50391q9.88184 5.50391 17.7871 15.5117q5.92969 0 5.92969 -4.00293q0 -15.0117 -15.3174 -26.0195t-31.1289 -17.5127t-19.7646 -6.50488z" />
    <glyph glyph-name="itilde" unicode="&#x129;" horiz-adv-x="168" 
d="M37 -6q-19 0 -19 18q0 9 4 21q22 63 36 103.5t22 64t11 36t3 20.5q0 5 -1.5 7t-1.5 6t3 13q21 61 38 83t51 22q14 0 15 -9q-10 -19 -32.5 -62t-47.5 -106.5t-44 -145.5q-1 -3 -1 -8q0 -12 10 -12q6 0 19 7.5t27 15t21 7.5t8 -4q0 -6 -15 -18.5t-36 -26t-40.5 -23
t-29.5 -9.5zM221.089 425.359q-16.7998 0 -33.1055 7.00586q-16.3057 7.00488 -32.1172 13.5098q-15.8115 6.50391 -32.6113 6.50391q-14.8232 0 -24.2109 -6.50391q-9.3877 -6.50488 -15.8115 -13.0098t-13.3408 -6.50488q-1.97656 0 -1.97656 2.00098
q0 5.00391 8.89355 14.0107q8.89453 9.00684 19.2705 17.0127t14.3291 10.0068q15.8115 10.0078 35.5762 10.0078q24.7051 0 47.4346 -10.5078t46.4463 -10.5078q13.835 0 23.7178 5.50391q9.88184 5.50391 17.7871 15.5117q5.92969 0 5.92969 -4.00293
q0 -15.0117 -15.3174 -26.0195t-31.1289 -17.5127t-19.7646 -6.50488z" />
    <glyph glyph-name="Imacron" unicode="&#x12a;" horiz-adv-x="458" 
d="M206 -8q-13 0 -19 8h-131q-10 0 -10 7t8.5 15.5t18.5 8.5h111q13 135 28.5 272t40.5 265v30q0 6 1 10t1 10h-116q-10 0 -10 7t8.5 15.5t18.5 8.5h109q5 11 18.5 16.5t39.5 5.5q15 0 15 -10v-2l-6 -9q42 0 77.5 0.5t51.5 1.5q6 0 6 -6t-9 -15.5t-29 -12.5h-109v-2
q-17 -48 -31 -112.5t-25 -134.5t-18 -134.5t-11 -114.5t-4 -73q0 -11 3 -16q46 1 86.5 1.5t57.5 1.5q6 0 6 -6t-9 -15.5t-29 -12.5h-118q-10 -8 -22 -8zM236 719q-14 0 -19.5 2t-5.5 4q0 7 13 11.5t31 7.5t33 3q19 0 47 -2t50 -6t22 -10q0 -5 -11.5 -7.5t-14.5 -2.5h-145z
" />
    <glyph glyph-name="imacron" unicode="&#x12b;" horiz-adv-x="168" 
d="M37 -6q-19 0 -19 18q0 9 4 21q22 63 36 103.5t22 64t11 36t3 20.5q0 5 -1.5 7t-1.5 6t3 13q21 61 38 83t51 22q14 0 15 -9q-10 -19 -32.5 -62t-47.5 -106.5t-44 -145.5q-1 -3 -1 -8q0 -12 10 -12q6 0 19 7.5t27 15t21 7.5t8 -4q0 -6 -15 -18.5t-36 -26t-40.5 -23
t-29.5 -9.5zM105 442q-14 0 -19.5 2t-5.5 4q0 7 13 11.5t31 7.5t33 3q19 0 47 -2t50 -6t22 -10q0 -5 -11.5 -7.5t-14.5 -2.5h-145z" />
    <glyph glyph-name="Iogonek" unicode="&#x12e;" horiz-adv-x="458" 
d="M206 -8q-13 0 -19 8h-131q-10 0 -10 7t8.5 15.5t18.5 8.5h111q13 135 28.5 272t40.5 265v30q0 6 1 10t1 10h-116q-10 0 -10 7t8.5 15.5t18.5 8.5h109q5 11 18.5 16.5t39.5 5.5q15 0 15 -10v-2l-6 -9q42 0 77.5 0.5t51.5 1.5q6 0 6 -6t-9 -15.5t-29 -12.5h-109v-2
q-17 -48 -31 -112.5t-25 -134.5t-18 -134.5t-11 -114.5t-4 -73q0 -11 3 -16q46 1 86.5 1.5t57.5 1.5q6 0 6 -6t-9 -15.5t-29 -12.5h-118q-10 -8 -22 -8zM214 -151q-31 0 -48.5 9.5t-17.5 32.5q0 10 5 28.5t13.5 38t19 34t22.5 17.5q3 1 7 1q5 0 8 -4q-11 -16 -23.5 -42
t-12.5 -46q0 -41 38 -41q14 0 30 6t29 11.5t16 5.5q11 0 11 -9q0 -11 -12.5 -19t-29.5 -13t-32.5 -7.5t-22.5 -2.5z" />
    <glyph glyph-name="iogonek" unicode="&#x12f;" horiz-adv-x="168" 
d="M37 -6q-19 0 -19 18q0 9 4 21q22 63 36 103.5t22 64t11 36t3 20.5q0 5 -1.5 7t-1.5 6t3 13q21 61 38 83t51 22q14 0 15 -9q-10 -19 -32.5 -62t-47.5 -106.5t-44 -145.5q-1 -3 -1 -8q0 -12 10 -12q6 0 19 7.5t27 15t21 7.5t8 -4q0 -6 -15 -18.5t-36 -26t-40.5 -23
t-29.5 -9.5zM176 432q-7 0 -14 11t-7 18q0 11 15 24t33 23t28 10q2 0 3 -1v1q0 -1 0.5 -1.5l0.5 -0.5q0 -1 -6.5 -8t-8.5 -9q-6 -8 -11 -24.5t-12.5 -29.5t-20.5 -13zM54 -151q-31 0 -48.5 9.5t-17.5 32.5q0 10 5 28.5t13.5 38t19 34t22.5 17.5q3 1 7 1q5 0 8 -4
q-11 -16 -23.5 -42t-12.5 -46q0 -41 38 -41q14 0 30 6t29 11.5t16 5.5q11 0 11 -9q0 -11 -12.5 -19t-29.5 -13t-32.5 -7.5t-22.5 -2.5z" />
    <glyph glyph-name="dotlessi" unicode="&#x131;" horiz-adv-x="168" 
d="M37 -6q-19 0 -19 18q0 9 4 21q22 63 36 103.5t22 64t11 36t3 20.5q0 5 -1.5 7t-1.5 6t3 13q21 61 38 83t51 22q14 0 15 -9q-10 -19 -32.5 -62t-47.5 -106.5t-44 -145.5q-1 -3 -1 -8q0 -12 10 -12q6 0 19 7.5t27 15t21 7.5t8 -4q0 -6 -15 -18.5t-36 -26t-40.5 -23
t-29.5 -9.5z" />
    <glyph glyph-name="uni0136" unicode="&#x136;" horiz-adv-x="635" 
d="M497 -26q-28 0 -68 23.5t-86 62.5t-92 86t-87 94q-4 3 -8 7.5t-9 8.5q-8 -70 -11.5 -126.5t-3.5 -82.5q2 -13 4.5 -16.5t2.5 -9.5q0 -14 -10 -21.5t-21 -7.5q-24 0 -24 22q7 72 13.5 141.5t13.5 137.5q-15 17 -26.5 31.5t-11.5 21.5q0 5 7 5q7 -7 29 -7h8q6 50 13 98.5
t15 96.5v30q0 33 17 60.5t58 27.5q15 0 15 -10v-2q-25 -58 -44.5 -133.5t-31.5 -162.5q14 4 26.5 6t22.5 6q81 32 147 76.5t115.5 89t81.5 79t45 45.5q-2 2 -2 5q0 11 18 21t32 10t14 -11q0 -15 -25 -44t-67 -65.5t-93 -75t-103.5 -73t-98 -59.5t-76.5 -34q-28 -8 -28 -22
q0 -9 12 -21q38 -40 83 -87t91 -89t88 -69.5t74 -30.5q19 0 29.5 15.5t14.5 39.5t4 49q0 14 -1.5 25t-1.5 20q0 16 9 16q14 0 17 -20t3 -36q0 -51 -15 -82t-36.5 -45t-41.5 -14zM213 -210q-3 0 -3 2v1q10 11 24 29t24 36t6 28q-1 5 -5 8q-11 8 -11 17q0 10 10 21t26 11
q8 0 12 -5q5 -7 6.5 -12t2.5 -9v-3q0 -4 -1.5 -6t-2.5 -7q-5 -35 -23 -60t-37 -38t-28 -13z" />
    <glyph glyph-name="uni0137" unicode="&#x137;" horiz-adv-x="269" 
d="M6 -21q-7 0 -7 9q0 4 5 19q47 118 83.5 237t76.5 239q4 12 4 18q0 5 -1.5 7t-1.5 6t3 13q15 41 26 64t25.5 32t36.5 9q14 0 15 -9q-37 -75 -66.5 -142t-53 -136t-44.5 -151l19 16.5t46.5 41t56.5 50t50.5 44.5t26.5 23q14 11 25 15.5t16 4.5q6 0 6 -4q0 -11 -27 -32
q-34 -20 -65 -46.5t-55.5 -53t-38.5 -47.5t-14 -29q0 -20 9.5 -44.5t23.5 -49t28.5 -43.5t24.5 -27q19 -16 19 -26q0 -6 -9 -6q-17 0 -36 17t-37.5 42t-34 52t-27 47.5t-15.5 27.5q-3 -8 -10 -29.5t-15 -46.5t-14 -46t-6 -28q0 -4 -9 -13.5t-20 -17t-19 -7.5zM36 -210
q-3 0 -3 2v1q10 11 24 29t24 36t6 28q-1 5 -5 8q-11 8 -11 17q0 10 10 21t26 11q8 0 12 -5q5 -7 6.5 -12t2.5 -9v-3q0 -4 -1.5 -6t-2.5 -7q-5 -35 -23 -60t-37 -38t-28 -13z" />
    <glyph glyph-name="Lacute" unicode="&#x139;" horiz-adv-x="579" 
d="M111 -8q-13 0 -19 8h-29q-7 0 -7 5q0 8 11.5 19t22.5 15q12 131 25.5 256t33.5 244v30q0 33 17 60.5t58 27.5q15 0 15 -10q0 -6 -5 -18t-10.5 -23.5t-7.5 -18.5q-17 -48 -30 -110t-22.5 -127t-15.5 -125.5t-9 -107.5t-3 -70q0 -7 1 -10.5t2 -5.5q37 0 102.5 -0.5
t163.5 -0.5q22 0 55.5 4t59.5 12h1q4 0 4 -10q0 -25 -23.5 -32t-53.5 -7q-18 0 -36 1t-33 1q-60 0 -122 0.5t-124 0.5q-10 -8 -22 -8zM138.123 702.035q-3.08984 0 -3.08984 3.09082q0 6.17969 20.6006 23.6904t52.0166 41.2012t64.377 45.3213
q5.14941 3.08984 9.26953 3.08984q9.27051 0 14.9355 -8.75488q5.66504 -8.75586 4.63477 -16.9961v-2.05957q0 -7.20996 -7.20996 -11.3301q-13.3896 -8.24023 -41.2012 -22.1455q-27.8105 -13.9062 -57.6816 -28.3262q-29.8701 -14.4199 -51.501 -25.751
q-2.06055 -1.03027 -5.15039 -1.03027z" />
    <glyph glyph-name="lacute" unicode="&#x13a;" horiz-adv-x="179" 
d="M36 -6q-19 0 -19 18q0 10 4 21q29 79 51.5 151.5t44.5 145.5t47 153q2 7 2.5 11t0.5 7q0 5 -1.5 7.5t-1.5 6.5q0 3 3 12q20 62 36.5 83.5t50.5 21.5q14 0 15 -9q-27 -56 -55.5 -127t-55.5 -147t-49 -149.5t-36 -134.5q-1 -3 -1 -8q0 -12 10 -12q7 0 20 7.5l26 15t20 7.5
q6 0 9 -4q0 -6 -14.5 -18.5t-35.5 -26t-40.5 -23t-30.5 -9.5zM164 688q-3 0 -3 3q0 6 20 23t50.5 40t62.5 44q5 3 9 3q9 0 14.5 -8.5t4.5 -16.5v-2q0 -7 -7 -11q-13 -8 -40 -21.5t-56 -27.5t-50 -25q-2 -1 -5 -1z" />
    <glyph glyph-name="uni013B" unicode="&#x13b;" horiz-adv-x="579" 
d="M111 -8q-13 0 -19 8h-29q-7 0 -7 5q0 8 11.5 19t22.5 15q12 131 25.5 256t33.5 244v30q0 33 17 60.5t58 27.5q15 0 15 -10q0 -6 -5 -18t-10.5 -23.5t-7.5 -18.5q-17 -48 -30 -110t-22.5 -127t-15.5 -125.5t-9 -107.5t-3 -70q0 -7 1 -10.5t2 -5.5q37 0 102.5 -0.5
t163.5 -0.5q22 0 55.5 4t59.5 12h1q4 0 4 -10q0 -25 -23.5 -32t-53.5 -7q-18 0 -36 1t-33 1q-60 0 -122 0.5t-124 0.5q-10 -8 -22 -8zM225 -210q-3 0 -3 2v1q10 11 24 29t24 36t6 28q-1 5 -5 8q-11 8 -11 17q0 10 10 21t26 11q8 0 12 -5q5 -7 6.5 -12t2.5 -9v-3
q0 -4 -1.5 -6t-2.5 -7q-5 -35 -23 -60t-37 -38t-28 -13z" />
    <glyph glyph-name="uni013C" unicode="&#x13c;" horiz-adv-x="179" 
d="M36 -6q-19 0 -19 18q0 10 4 21q29 79 51.5 151.5t44.5 145.5t47 153q2 7 2.5 11t0.5 7q0 5 -1.5 7.5t-1.5 6.5q0 3 3 12q20 62 36.5 83.5t50.5 21.5q14 0 15 -9q-27 -56 -55.5 -127t-55.5 -147t-49 -149.5t-36 -134.5q-1 -3 -1 -8q0 -12 10 -12q7 0 20 7.5l26 15t20 7.5
q6 0 9 -4q0 -6 -14.5 -18.5t-35.5 -26t-40.5 -23t-30.5 -9.5zM-29 -210q-3 0 -3 2v1q10 11 24 29t24 36t6 28q-1 5 -5 8q-11 8 -11 17q0 10 10 21t26 11q8 0 12 -5q5 -7 6.5 -12t2.5 -9v-3q0 -4 -1.5 -6t-2.5 -7q-5 -35 -23 -60t-37 -38t-28 -13z" />
    <glyph glyph-name="Lcaron" unicode="&#x13d;" horiz-adv-x="579" 
d="M111 -8q-13 0 -19 8h-29q-7 0 -7 5q0 8 11.5 19t22.5 15q12 131 25.5 256t33.5 244v30q0 33 17 60.5t58 27.5q15 0 15 -10q0 -6 -5 -18t-10.5 -23.5t-7.5 -18.5q-17 -48 -30 -110t-22.5 -127t-15.5 -125.5t-9 -107.5t-3 -70q0 -7 1 -10.5t2 -5.5q37 0 102.5 -0.5
t163.5 -0.5q22 0 55.5 4t59.5 12h1q4 0 4 -10q0 -25 -23.5 -32t-53.5 -7q-18 0 -36 1t-33 1q-60 0 -122 0.5t-124 0.5q-10 -8 -22 -8zM340 498q-1 0 -1 3q0 11 1.5 18.5t4.5 15.5q10 24 17.5 43.5t14.5 42.5q-1 -1 -4 -2.5t-5 -1.5q-4 0 -3 7q2 5 13.5 18t30.5 14h2
q11 0 6 -9q1 -1 -0.5 -3t-2.5 -4q0 -4 -1.5 -9t-3.5 -11q-4 -11 -14 -31t-21.5 -40.5t-21 -35.5t-12.5 -15z" />
    <glyph glyph-name="lcaron" unicode="&#x13e;" horiz-adv-x="179" 
d="M36 -6q-19 0 -19 18q0 10 4 21q29 79 51.5 151.5t44.5 145.5t47 153q2 7 2.5 11t0.5 7q0 5 -1.5 7.5t-1.5 6.5q0 3 3 12q20 62 36.5 83.5t50.5 21.5q14 0 15 -9q-27 -56 -55.5 -127t-55.5 -147t-49 -149.5t-36 -134.5q-1 -3 -1 -8q0 -12 10 -12q7 0 20 7.5l26 15t20 7.5
q6 0 9 -4q0 -6 -14.5 -18.5t-35.5 -26t-40.5 -23t-30.5 -9.5zM302 477q-1 0 -1 3q0 11 1.5 18.5t4.5 15.5q10 24 17.5 43.5t14.5 42.5q-1 -1 -4 -2.5t-5 -1.5q-4 0 -3 7q2 5 13.5 18t30.5 14h2q11 0 6 -9q1 -1 -0.5 -3t-2.5 -4q0 -4 -1.5 -9t-3.5 -11q-4 -11 -14 -31
t-21.5 -40.5t-21 -35.5t-12.5 -15z" />
    <glyph glyph-name="Lslash" unicode="&#x141;" horiz-adv-x="579" 
d="M111 -8q-13 0 -19 8h-29q-7 0 -7 5q0 8 11.5 19t22.5 15q3 35 6 69.5t7 68.5l-55 -18q-9 -3 -16 -3q-8 0 -14 3t-6 9q0 11 14.5 19t36 14t43.5 11q9 84 19.5 166t23.5 161v30q0 33 17 60.5t58 27.5q15 0 15 -10q0 -6 -5 -18t-10.5 -23.5t-7.5 -18.5q-17 -48 -30.5 -110
t-23 -127.5t-15.5 -125.5q29 9 50 15t51 16q4 1 7 1.5t4 0.5q4 0 4 -2q0 -5 -17 -15.5t-44 -22.5t-58 -24q-4 -49 -6 -87.5t-2 -58.5q0 -7 1 -10.5t2 -5.5q37 0 102.5 -0.5t163.5 -0.5q22 0 55.5 4t59.5 12h1q4 0 4 -10q0 -25 -23.5 -32t-53.5 -7q-18 0 -36 1t-33 1
q-60 0 -122 0.5t-124 0.5q-10 -8 -22 -8z" />
    <glyph glyph-name="lslash" unicode="&#x142;" horiz-adv-x="179" 
d="M36 -6q-19 0 -19 18q0 10 4 21q14 38 26 74t23 71l-56 -19q-9 -3 -16 -3q-8 0 -14 3t-6 9q0 12 17.5 20t41.5 14.5t45 12.5q20 65 40 130.5t42 137.5q2 7 2.5 11t0.5 7q0 5 -1.5 7.5t-1.5 6.5q0 3 3 12q20 62 36.5 83.5t50.5 21.5q14 0 15 -9q-25 -53 -52 -119
t-52.5 -137.5t-47.5 -141.5l97 30q4 1 7 1.5t4 0.5q4 0 4 -2q0 -5 -17.5 -16t-45.5 -23.5t-60 -24.5q-10 -34 -22 -70.5t-12 -63.5q0 -12 10 -12q7 0 20 7.5l26 15t20 7.5q6 0 9 -4q0 -6 -14.5 -18.5t-35.5 -26t-40.5 -23t-30.5 -9.5z" />
    <glyph glyph-name="Nacute" unicode="&#x143;" horiz-adv-x="680" 
d="M531 -9q-18 0 -18 22l7 82q-13 41 -31 67q-18 24 -48 56.5t-64.5 67.5t-66 67.5t-52.5 56.5q-40 46 -51 77t-12 60q-16 -52 -28.5 -117.5t-21.5 -131.5t-13.5 -122t-4.5 -89q0 -10 0.5 -23t0.5 -25q0 -39 -14 -39q-10 0 -19 12t-9 26q2 37 8 90t14.5 112.5t18 118.5
t18 109t14.5 83q-1 5 -1 9.5v8.5q0 46 16.5 66.5t43.5 20.5q10 0 16.5 -2t6.5 -7q0 -10 -6.5 -24.5t-13 -27.5t-6.5 -19q0 -30 21 -64t55 -71.5t75 -77t81.5 -81.5t72.5 -85l9 -12l16 147q6 53 13 104t16 102v30q0 22 4 42t17 33t41 13q15 0 15 -10v-2q-27 -62 -46.5 -147
t-32.5 -178.5t-19 -179.5q6 -16 8.5 -32.5t2.5 -30.5q0 -17 -3 -31.5t-7 -24.5v-6q-2 -11 -9 -17t-14 -6zM332.123 702.035q-3.08984 0 -3.08984 3.09082q0 6.17969 20.6006 23.6904t52.0166 41.2012t64.377 45.3213q5.14941 3.08984 9.26953 3.08984
q9.27051 0 14.9355 -8.75488q5.66504 -8.75586 4.63477 -16.9961v-2.05957q0 -7.20996 -7.20996 -11.3301q-13.3896 -8.24023 -41.2012 -22.1455q-27.8105 -13.9062 -57.6816 -28.3262q-29.8701 -14.4199 -51.501 -25.751q-2.06055 -1.03027 -5.15039 -1.03027z" />
    <glyph glyph-name="nacute" unicode="&#x144;" horiz-adv-x="326" 
d="M208 -34q-14 0 -21.5 9.5t-7.5 33.5q0 33 11.5 74t28 84t33.5 82t27 66q5 13 5 20q0 5 -3 5q-5 0 -22 -18q-14 -16 -38.5 -47.5t-52.5 -71t-54 -78t-42.5 -68.5t-17.5 -42q0 -4 -9 -12t-20.5 -14t-19.5 -6q-7 0 -8 7q1 -1 9 19.5t19.5 53.5t23.5 68.5t22 65t14 42.5
q4 12 4 18q0 5 -1.5 7t-1.5 6t3 13q15 41 26 64t25 32t37 9q14 0 15 -9q-7 -15 -20.5 -43t-29 -63t-29 -70t-19.5 -64q12 20 33.5 52.5t49 69.5t57 69.5t59 53.5t54.5 21q8 0 14 -2.5t6 -10.5q0 -9 -7 -20q-24 -39 -48.5 -89t-45 -101t-33 -96t-12.5 -74q0 -18 8 -18
q3 0 11 5t16.5 10t11.5 5q6 0 6 -6q0 -8 -10.5 -18t-25.5 -17t-30 -7zM157 431q-3 0 -3 3q0 6 20 23t50.5 40t62.5 44q5 3 9 3q9 0 14.5 -8.5t4.5 -16.5v-2q0 -7 -7 -11q-13 -8 -40 -21.5t-56 -27.5t-50 -25q-2 -1 -5 -1z" />
    <glyph glyph-name="uni0145" unicode="&#x145;" horiz-adv-x="680" 
d="M531 -9q-18 0 -18 22l7 82q-13 41 -31 67q-18 24 -48 56.5t-64.5 67.5t-66 67.5t-52.5 56.5q-40 46 -51 77t-12 60q-16 -52 -28.5 -117.5t-21.5 -131.5t-13.5 -122t-4.5 -89q0 -10 0.5 -23t0.5 -25q0 -39 -14 -39q-10 0 -19 12t-9 26q2 37 8 90t14.5 112.5t18 118.5
t18 109t14.5 83q-1 5 -1 9.5v8.5q0 46 16.5 66.5t43.5 20.5q10 0 16.5 -2t6.5 -7q0 -10 -6.5 -24.5t-13 -27.5t-6.5 -19q0 -30 21 -64t55 -71.5t75 -77t81.5 -81.5t72.5 -85l9 -12l16 147q6 53 13 104t16 102v30q0 22 4 42t17 33t41 13q15 0 15 -10v-2q-27 -62 -46.5 -147
t-32.5 -178.5t-19 -179.5q6 -16 8.5 -32.5t2.5 -30.5q0 -17 -3 -31.5t-7 -24.5v-6q-2 -11 -9 -17t-14 -6zM275 -210q-3 0 -3 2v1q10 11 24 29t24 36t6 28q-1 5 -5 8q-11 8 -11 17q0 10 10 21t26 11q8 0 12 -5q5 -7 6.5 -12t2.5 -9v-3q0 -4 -1.5 -6t-2.5 -7q-5 -35 -23 -60
t-37 -38t-28 -13z" />
    <glyph glyph-name="uni0146" unicode="&#x146;" horiz-adv-x="326" 
d="M208 -34q-14 0 -21.5 9.5t-7.5 33.5q0 33 11.5 74t28 84t33.5 82t27 66q5 13 5 20q0 5 -3 5q-5 0 -22 -18q-14 -16 -38.5 -47.5t-52.5 -71t-54 -78t-42.5 -68.5t-17.5 -42q0 -4 -9 -12t-20.5 -14t-19.5 -6q-7 0 -8 7q1 -1 9 19.5t19.5 53.5t23.5 68.5t22 65t14 42.5
q4 12 4 18q0 5 -1.5 7t-1.5 6t3 13q15 41 26 64t25 32t37 9q14 0 15 -9q-7 -15 -20.5 -43t-29 -63t-29 -70t-19.5 -64q12 20 33.5 52.5t49 69.5t57 69.5t59 53.5t54.5 21q8 0 14 -2.5t6 -10.5q0 -9 -7 -20q-24 -39 -48.5 -89t-45 -101t-33 -96t-12.5 -74q0 -18 8 -18
q3 0 11 5t16.5 10t11.5 5q6 0 6 -6q0 -8 -10.5 -18t-25.5 -17t-30 -7zM47 -210q-3 0 -3 2v1q10 11 24 29t24 36t6 28q-1 5 -5 8q-11 8 -11 17q0 10 10 21t26 11q8 0 12 -5q5 -7 6.5 -12t2.5 -9v-3q0 -4 -1.5 -6t-2.5 -7q-5 -35 -23 -60t-37 -38t-28 -13z" />
    <glyph glyph-name="Ncaron" unicode="&#x147;" horiz-adv-x="680" 
d="M531 -9q-18 0 -18 22l7 82q-13 41 -31 67q-18 24 -48 56.5t-64.5 67.5t-66 67.5t-52.5 56.5q-40 46 -51 77t-12 60q-16 -52 -28.5 -117.5t-21.5 -131.5t-13.5 -122t-4.5 -89q0 -10 0.5 -23t0.5 -25q0 -39 -14 -39q-10 0 -19 12t-9 26q2 37 8 90t14.5 112.5t18 118.5
t18 109t14.5 83q-1 5 -1 9.5v8.5q0 46 16.5 66.5t43.5 20.5q10 0 16.5 -2t6.5 -7q0 -10 -6.5 -24.5t-13 -27.5t-6.5 -19q0 -30 21 -64t55 -71.5t75 -77t81.5 -81.5t72.5 -85l9 -12l16 147q6 53 13 104t16 102v30q0 22 4 42t17 33t41 13q15 0 15 -10v-2q-27 -62 -46.5 -147
t-32.5 -178.5t-19 -179.5q6 -16 8.5 -32.5t2.5 -30.5q0 -17 -3 -31.5t-7 -24.5v-6q-2 -11 -9 -17t-14 -6zM538.009 797.517q2.06055 0 1.03027 -1.03027q-18.541 -18.54 -44.291 -39.1406q-25.751 -20.6006 -73.1328 -48.4111l-6.17969 -3.09082h-2.06055
q-3.08984 0 -6.17969 3.09082q-32.9609 25.751 -50.4717 45.8359q-17.5107 20.0859 -32.9609 39.6562q-3.08984 3.08984 3.09082 3.08984q1.0293 0 2.05957 -1.03027q19.5703 -14.4199 42.7461 -25.75t49.9561 -17.5107q25.751 7.20996 56.6523 21.6309
q30.9004 14.4199 55.6211 21.6299q2.06055 1.03027 4.12012 1.03027z" />
    <glyph glyph-name="ncaron" unicode="&#x148;" horiz-adv-x="600" 
d="M208 -34q-14 0 -21.5 9.5t-7.5 33.5q0 33 11.5 74t28 84t33.5 82t27 66q5 13 5 20q0 5 -3 5q-5 0 -22 -18q-14 -16 -38.5 -47.5t-52.5 -71t-54 -78t-42.5 -68.5t-17.5 -42q0 -4 -9 -12t-20.5 -14t-19.5 -6q-7 0 -8 7q1 -1 9 19.5t19.5 53.5t23.5 68.5t22 65t14 42.5
q4 12 4 18q0 5 -1.5 7t-1.5 6t3 13q15 41 26 64t25 32t37 9q14 0 15 -9q-7 -15 -20.5 -43t-29 -63t-29 -70t-19.5 -64q12 20 33.5 52.5t49 69.5t57 69.5t59 53.5t54.5 21q8 0 14 -2.5t6 -10.5q0 -9 -7 -20q-24 -39 -48.5 -89t-45 -101t-33 -96t-12.5 -74q0 -18 8 -18
q3 0 11 5t16.5 10t11.5 5q6 0 6 -6q0 -8 -10.5 -18t-25.5 -17t-30 -7zM265 459q-2 0 -5 3q-20 16 -36.5 39.5t-25.5 43t-7 24.5q2 3 3 3q2 0 3 -1q14 -16 38 -36t39 -32q14 9 34.5 21.5l41 25t35.5 21.5q2 1 3 1q2 0 2 -2q0 -3 -17 -20.5t-43.5 -41t-55.5 -46.5q-4 -3 -7 -3
h-2z" />
    <glyph glyph-name="Eng" unicode="&#x14a;" horiz-adv-x="680" 
d="M425 -274q-27 0 -56 20t-53 49.5t-39 60t-15 51.5q0 19 9 19q3 0 10.5 -16.5t19 -40.5t27 -48t36.5 -40.5t46 -16.5q23 0 35.5 16.5t19.5 40.5t11 46q15 86 23.5 147.5t14.5 98.5q-13 31 -25 49q-18 24 -48 56.5t-64.5 67.5t-66 67.5t-52.5 56.5q-40 46 -51 77t-12 60
q-16 -52 -28.5 -117.5t-21.5 -131.5t-13.5 -122t-4.5 -89q0 -10 0.5 -23t0.5 -25q0 -39 -14 -39q-10 0 -19 12t-9 26q2 37 8 90t14.5 112.5t18 118.5t18 109t14.5 83q-1 5 -1 9.5v8.5q0 46 16.5 66.5t43.5 20.5q10 0 16.5 -2t6.5 -7q0 -10 -6.5 -24.5t-13 -27.5t-6.5 -19
q0 -30 20.5 -64.5t54 -72t74 -77.5t81.5 -81.5t75 -83.5q9 10 14.5 48t10.5 87q5 51 12.5 103t16.5 103v30q0 22 4 42t17 33t41 13q15 0 15 -10v-2q-25 -58 -44.5 -138t-32 -168t-19.5 -171q2 -13 0 -33q9 -30 9 -58q0 -17 -3 -31.5t-7 -24.5v-6q-2 -10 -8.5 -16t-13.5 -7
q-7 -51 -14 -98t-17.5 -85t-28.5 -60t-47 -22z" />
    <glyph glyph-name="eng" unicode="&#x14b;" horiz-adv-x="326" 
d="M40 -301q-38 0 -56.5 15t-23.5 36.5t-5 40.5q0 26 6.5 45t12.5 19q4 0 5 -6v-10q0 -55 20.5 -88.5t48.5 -33.5q22 0 44.5 24t38.5 77l58 206q23 93 46 164.5t44 126.5q5 13 5 20q0 5 -3 5q-5 0 -22 -18q-14 -16 -38.5 -47.5t-52.5 -71t-54 -78t-42.5 -68.5t-17.5 -42
q0 -4 -9 -12t-20.5 -14t-19.5 -6q-7 0 -8 7q1 -1 9 19.5t19.5 53.5t23.5 68.5t22 65t14 42.5q4 12 4 18q0 5 -1.5 7t-1.5 6t3 13q15 41 26 64t25 32t37 9q14 0 15 -9q-7 -15 -20.5 -43t-29 -63t-29 -70t-19.5 -64q12 20 33.5 52.5t49 69.5t57 69.5t59 53.5t54.5 21
q8 0 14 -2.5t6 -10.5q0 -9 -7 -20q-39 -64 -66 -132.5t-44.5 -133.5t-28.5 -121t-19 -95q-15 -76 -43 -117.5t-60 -57.5t-59 -16z" />
    <glyph glyph-name="Omacron" unicode="&#x14c;" horiz-adv-x="796" 
d="M348 -18q-97 0 -160.5 36t-94.5 96.5t-31 133.5q0 78 32.5 158t100.5 143q-23 -10 -44 -21.5t-25 -11.5q-9 0 -9 9q0 6 13.5 15t33 18.5t39 17.5t30.5 12q32 31 72 57.5t86 43t93 16.5q23 0 46.5 -7.5t23.5 -30.5q0 -14 -8 -29t-15 -24q98 -14 158 -72t60 -171
q0 -91 -34.5 -163.5t-92 -122.5t-129 -76.5t-145.5 -26.5zM285 603q29 9 68 13.5t79 4.5q21 0 42 -1t40 -3q9 21 9 34q0 24 -38 24q-32 0 -69.5 -10t-71.5 -26t-59 -36zM355 6q59 0 120 24.5t112.5 71t83.5 113.5t32 153q0 59 -23 107.5t-64 80t-95 38.5q-9 -10 -15.5 -14
t-9.5 -4q-5 0 -5 4q0 9 9 16q-10 1 -20 1h-21q-56 0 -110.5 -8.5t-95.5 -19.5q-51 -38 -82.5 -89t-46 -107t-14.5 -111q0 -68 26 -126.5t80 -94t139 -35.5zM374 754q-14 0 -19.5 2t-5.5 4q0 7 13 11.5t31 7.5t33 3q19 0 47 -2t50 -6t22 -10q0 -5 -11.5 -7.5t-14.5 -2.5h-145
z" />
    <glyph glyph-name="omacron" unicode="&#x14d;" horiz-adv-x="261" 
d="M79 -19q-25 0 -41.5 20.5t-16.5 63.5q0 10 1 21.5t3 24.5q3 17 12.5 49.5t24.5 70.5t34.5 72.5t43 56.5t50.5 22h7q0 13 8 23.5t22 10.5q11 -1 16 -18.5t8.5 -40t10.5 -40t22 -19.5q19 -3 19 -11t-19 -18q-7 -3 -13 -4t-10 -1q0 -63 -18 -115t-46.5 -89.5t-59.5 -58
t-58 -20.5zM94 11q18 0 41.5 20.5t45.5 57t37 83.5t15 100q-8 5 -15.5 21t-13.5 30.5t-11 14.5q-14 0 -30 -19.5t-31 -49t-28 -62.5t-22 -61.5t-12 -43.5q-2 -13 -3 -23.5t-1 -18.5q0 -49 28 -49zM143 462q-14 0 -19.5 2t-5.5 4q0 7 13 11.5t31 7.5t33 3q19 0 47 -2t50 -6
t22 -10q0 -5 -11.5 -7.5t-14.5 -2.5h-145z" />
    <glyph glyph-name="Ohungarumlaut" unicode="&#x150;" horiz-adv-x="796" 
d="M348 -18q-97 0 -160.5 36t-94.5 96.5t-31 133.5q0 78 32.5 158t100.5 143q-23 -10 -44 -21.5t-25 -11.5q-9 0 -9 9q0 6 13.5 15t33 18.5t39 17.5t30.5 12q32 31 72 57.5t86 43t93 16.5q23 0 46.5 -7.5t23.5 -30.5q0 -14 -8 -29t-15 -24q98 -14 158 -72t60 -171
q0 -91 -34.5 -163.5t-92 -122.5t-129 -76.5t-145.5 -26.5zM285 603q29 9 68 13.5t79 4.5q21 0 42 -1t40 -3q9 21 9 34q0 24 -38 24q-32 0 -69.5 -10t-71.5 -26t-59 -36zM355 6q59 0 120 24.5t112.5 71t83.5 113.5t32 153q0 59 -23 107.5t-64 80t-95 38.5q-9 -10 -15.5 -14
t-9.5 -4q-5 0 -5 4q0 9 9 16q-10 1 -20 1h-21q-56 0 -110.5 -8.5t-95.5 -19.5q-51 -38 -82.5 -89t-46 -107t-14.5 -111q0 -68 26 -126.5t80 -94t139 -35.5zM510 749q-5 0 -5 13q0 7 3 14q4 10 10 31.5t15 40.5t20 19t19.5 -8t8.5 -17q0 -3 -2 -7q-3 -6 -12.5 -20t-21 -29.5
t-21.5 -26t-14 -10.5zM385 749q-5 0 -5 12q0 8 3 15q4 10 10 31.5t15 40.5t20 19t19.5 -8t8.5 -17q0 -3 -2 -7q-3 -7 -12.5 -21t-21 -29t-21 -25.5t-14.5 -10.5z" />
    <glyph glyph-name="ohungarumlaut" unicode="&#x151;" horiz-adv-x="261" 
d="M79 -19q-25 0 -41.5 20.5t-16.5 63.5q0 10 1 21.5t3 24.5q3 17 12.5 49.5t24.5 70.5t34.5 72.5t43 56.5t50.5 22h7q0 13 8 23.5t22 10.5q11 -1 16 -18.5t8.5 -40t10.5 -40t22 -19.5q19 -3 19 -11t-19 -18q-7 -3 -13 -4t-10 -1q0 -63 -18 -115t-46.5 -89.5t-59.5 -58
t-58 -20.5zM94 11q18 0 41.5 20.5t45.5 57t37 83.5t15 100q-8 5 -15.5 21t-13.5 30.5t-11 14.5q-14 0 -30 -19.5t-31 -49t-28 -62.5t-22 -61.5t-12 -43.5q-2 -13 -3 -23.5t-1 -18.5q0 -49 28 -49zM277 448q-5 0 -5 12q0 7 3 14t10 27.5t16 44t19 40.5t18 17q10 0 18.5 -7.5
t8.5 -16.5q0 -3 -2 -7q-3 -6 -15 -25.5t-27 -42.5t-27.5 -39.5t-16.5 -16.5zM156 448q-5 0 -5 11q0 8 3 15t9.5 27.5t16 44t19 40.5t18.5 17q10 0 18.5 -7.5t8.5 -16.5q0 -3 -2 -7q-3 -6 -15 -26t-27 -42.5t-27.5 -39t-16.5 -16.5z" />
    <glyph glyph-name="OE" unicode="&#x152;" horiz-adv-x="1102" 
d="M348 -18q-97 0 -160.5 36t-94.5 96.5t-31 133.5q0 78 32.5 158t100.5 143q-23 -10 -44 -21.5t-25 -11.5q-9 0 -9 9q0 6 13.5 15t33 18.5t39 17.5t30.5 12q32 31 72 57.5t86 43t93 16.5q23 0 46.5 -7.5t23.5 -30.5q0 -14 -8 -29t-15 -24q47 -7 85 -27t66 -50
q3 22 6.5 40.5t7.5 32.5h-53q-22 1 -22 8q0 5 12.5 10.5t29.5 5.5h39q6 35 20.5 46.5t40.5 11.5q15 0 15 -10q0 -7 -7.5 -22t-11.5 -25q10 0 35.5 -0.5t88.5 -0.5q31 0 73.5 0.5t97.5 0.5q15 0 15 -15q0 -10 -10 -27t-21 -17q-7 0 -13.5 12.5t-20.5 13.5q-13 2 -40.5 2
h-44.5q-13 0 -24.5 -0.5t-22.5 -0.5q-26 0 -52.5 0.5t-70.5 1.5q-10 -35 -21 -86t-19.5 -101.5t-13.5 -86.5h72t85.5 0.5t78.5 1t50 1.5q6 0 6 -6t-9 -15.5t-29 -12.5h-258q-4 -36 -8 -90t-4 -104q0 -43 5 -75q36 0 98 -0.5t162 -0.5q22 0 55.5 4t59.5 12h1q4 0 4 -10
t-7 -23t-23 -13q-33 0 -68 -0.5t-71 -0.5h-113q-43 0 -86.5 0.5t-72 1.5t-28.5 3q0 7 14 18.5t26 13.5q0 3 -0.5 7t-0.5 8q0 10 0.5 21.5t1.5 24.5q-58 -56 -134 -85.5t-154 -29.5zM285 603q29 9 68 13.5t79 4.5q21 0 42 -1t40 -3q9 21 9 34q0 24 -38 24q-32 0 -69.5 -10
t-71.5 -26t-59 -36zM355 6q49 0 104 19t103.5 51t76.5 72q4 50 9 108t12 117.5t14 111.5q-23 44 -62.5 73t-90.5 36q-9 -10 -15.5 -14t-9.5 -4q-5 0 -5 4q0 9 9 16q-10 1 -20 1h-21q-56 0 -110.5 -8.5t-95.5 -19.5q-51 -38 -82.5 -89t-46 -107t-14.5 -111q0 -68 26 -126.5
t80 -94t139 -35.5z" />
    <glyph glyph-name="oe" unicode="&#x153;" horiz-adv-x="459" 
d="M79 -19q-25 0 -42 20t-17 63q0 11 1.5 22.5t3.5 24.5q3 17 12.5 49.5t24.5 70.5t34.5 72.5t43 56.5t50.5 22h7q0 21 13 21q10 0 20.5 -17.5t19.5 -43.5t12 -51q21 49 49.5 65t72.5 16q34 0 47 -61q6 -31 6 -50q0 -24 -15.5 -38t-38 -21t-44.5 -9.5t-35 -2.5t-22.5 0.5
t-13.5 0.5q-15 -38 -24 -73t-9 -59q0 -40 30 -40q18 0 37.5 16t37.5 37t31 37t17 16q7 0 7 -8q0 -14 -15.5 -35t-39 -42t-47 -35.5t-39.5 -14.5q-12 0 -27 5t-26 17.5t-13 36.5q-26 -32 -55 -50t-54 -18zM94 11q18 0 41.5 20.5t45.5 57t37 83.5t15 100q-8 5 -15.5 21
t-13.5 30.5t-11 14.5q-14 0 -30 -19.5t-31 -49t-28 -62.5t-22 -61.5t-12 -43.5q-2 -13 -3 -23.5t-1 -18.5q0 -49 28 -49zM317 217q38 0 57.5 8.5t20.5 37.5q0 41 -10.5 58t-19.5 17q-12 0 -25.5 -14.5t-26 -34.5t-22.5 -39.5t-14 -30.5q5 0 16 -1t24 -1z" />
    <glyph glyph-name="Racute" unicode="&#x154;" horiz-adv-x="584" 
d="M471 -26q-28 0 -66.5 24t-81 62t-85.5 81.5t-80 82.5l-28 25q-4 -33 -6.5 -80.5t-2.5 -94.5q0 -25 3 -41.5t3 -15.5q0 -5 -2.5 -5.5t-3.5 -3.5q-2 -5 -8.5 -7.5t-13.5 -2.5q-11 0 -16.5 3t-5.5 13q0 24 3 65.5t8.5 93t12.5 105.5q-10 11 -17.5 20.5t-7.5 14.5q0 4 6 4
q6 -6 23 -6q6 46 14 94t16.5 92t15.5 75v2q0 4 -1.5 6.5t-1.5 6.5q0 6 3 20t5 21h-6q-10 0 -20.5 -1t-18.5 -1q-22 1 -22 8q0 10 24.5 13.5t48.5 3.5q4 19 19.5 30t41.5 11q16 0 16 -12q-5 -12 -7.5 -16.5t-6.5 -16.5q26 -2 61.5 -7.5t73 -15.5t69.5 -27.5t52 -43.5t20 -64
q0 -40 -23.5 -77t-57 -64.5t-64.5 -39.5q-46 -18 -89.5 -23.5t-75.5 -5.5h-11q-17 0 -17 -5t10 -15q35 -34 76.5 -76t85 -81.5t83.5 -66t72 -29.5q19 0 29.5 15.5t14.5 39.5t4 49q0 14 -1.5 25t-1.5 20q0 16 9 16q14 0 17 -20t3 -36q0 -51 -15 -82t-36.5 -45t-41.5 -14z
M204 303q14 0 28 0.5t24 1.5q29 3 63.5 16.5t65.5 36.5t51 54t20 69v12.5t-2 13.5q-10 30 -38 52t-65 36.5t-72.5 21.5t-60.5 7h-1q-7 -15 -16.5 -45.5t-19 -69.5t-18 -78t-14.5 -71.5t-8 -50.5q3 -3 22 -4.5t41 -1.5zM254.123 702.035q-3.08984 0 -3.08984 3.09082
q0 6.17969 20.6006 23.6904t52.0166 41.2012t64.377 45.3213q5.14941 3.08984 9.26953 3.08984q9.27051 0 14.9355 -8.75488q5.66504 -8.75586 4.63477 -16.9961v-2.05957q0 -7.20996 -7.20996 -11.3301q-13.3896 -8.24023 -41.2012 -22.1455
q-27.8105 -13.9062 -57.6816 -28.3262q-29.8701 -14.4199 -51.501 -25.751q-2.06055 -1.03027 -5.15039 -1.03027z" />
    <glyph glyph-name="racute" unicode="&#x155;" horiz-adv-x="270" 
d="M15 -6q-6 0 -9 5q0 26 6.5 48.5t16.5 26.5q14 52 21 80.5t10 42.5t5 22.5t5 20.5q2 5 2 9v7q0 8 -2 9.5t-2 7.5q0 2 0.5 4.5t1.5 6.5q16 62 32 85.5t49 23.5q12 0 14 -8q-5 -14 -21.5 -52.5t-35 -89.5t-30.5 -103q8 15 25.5 44.5t41 64.5t50.5 66.5t52.5 52t46.5 20.5
q12 0 18 -8.5t6 -21.5t-6 -30t-17 -33q-7 -10 -20.5 -21t-21.5 -11q-6 0 -6 6q0 5 5 16.5t9.5 24t4.5 20.5q0 7 -5 7q-18 0 -45.5 -30t-58.5 -78.5t-58 -104t-43 -106.5q-6 -8 -19 -16t-22 -8zM136 431q-3 0 -3 3q0 6 20 23t50.5 40t62.5 44q5 3 9 3q9 0 14.5 -8.5
t4.5 -16.5v-2q0 -7 -7 -11q-13 -8 -40 -21.5t-56 -27.5t-50 -25q-2 -1 -5 -1z" />
    <glyph glyph-name="uni0156" unicode="&#x156;" horiz-adv-x="584" 
d="M471 -26q-28 0 -66.5 24t-81 62t-85.5 81.5t-80 82.5l-28 25q-4 -33 -6.5 -80.5t-2.5 -94.5q0 -25 3 -41.5t3 -15.5q0 -5 -2.5 -5.5t-3.5 -3.5q-2 -5 -8.5 -7.5t-13.5 -2.5q-11 0 -16.5 3t-5.5 13q0 24 3 65.5t8.5 93t12.5 105.5q-10 11 -17.5 20.5t-7.5 14.5q0 4 6 4
q6 -6 23 -6q6 46 14 94t16.5 92t15.5 75v2q0 4 -1.5 6.5t-1.5 6.5q0 6 3 20t5 21h-6q-10 0 -20.5 -1t-18.5 -1q-22 1 -22 8q0 10 24.5 13.5t48.5 3.5q4 19 19.5 30t41.5 11q16 0 16 -12q-5 -12 -7.5 -16.5t-6.5 -16.5q26 -2 61.5 -7.5t73 -15.5t69.5 -27.5t52 -43.5t20 -64
q0 -40 -23.5 -77t-57 -64.5t-64.5 -39.5q-46 -18 -89.5 -23.5t-75.5 -5.5h-11q-17 0 -17 -5t10 -15q35 -34 76.5 -76t85 -81.5t83.5 -66t72 -29.5q19 0 29.5 15.5t14.5 39.5t4 49q0 14 -1.5 25t-1.5 20q0 16 9 16q14 0 17 -20t3 -36q0 -51 -15 -82t-36.5 -45t-41.5 -14z
M204 303q14 0 28 0.5t24 1.5q29 3 63.5 16.5t65.5 36.5t51 54t20 69v12.5t-2 13.5q-10 30 -38 52t-65 36.5t-72.5 21.5t-60.5 7h-1q-7 -15 -16.5 -45.5t-19 -69.5t-18 -78t-14.5 -71.5t-8 -50.5q3 -3 22 -4.5t41 -1.5zM227 -210q-3 0 -3 2v1q10 11 24 29t24 36t6 28
q-1 5 -5 8q-11 8 -11 17q0 10 10 21t26 11q8 0 12 -5q5 -7 6.5 -12t2.5 -9v-3q0 -4 -1.5 -6t-2.5 -7q-5 -35 -23 -60t-37 -38t-28 -13z" />
    <glyph glyph-name="uni0157" unicode="&#x157;" horiz-adv-x="270" 
d="M15 -6q-6 0 -9 5q0 26 6.5 48.5t16.5 26.5q14 52 21 80.5t10 42.5t5 22.5t5 20.5q2 5 2 9v7q0 8 -2 9.5t-2 7.5q0 2 0.5 4.5t1.5 6.5q16 62 32 85.5t49 23.5q12 0 14 -8q-5 -14 -21.5 -52.5t-35 -89.5t-30.5 -103q8 15 25.5 44.5t41 64.5t50.5 66.5t52.5 52t46.5 20.5
q12 0 18 -8.5t6 -21.5t-6 -30t-17 -33q-7 -10 -20.5 -21t-21.5 -11q-6 0 -6 6q0 5 5 16.5t9.5 24t4.5 20.5q0 7 -5 7q-18 0 -45.5 -30t-58.5 -78.5t-58 -104t-43 -106.5q-6 -8 -19 -16t-22 -8zM-46 -210q-3 0 -3 2v1q10 11 24 29t24 36t6 28q-1 5 -5 8q-11 8 -11 17
q0 10 10 21t26 11q8 0 12 -5q5 -7 6.5 -12t2.5 -9v-3q0 -4 -1.5 -6t-2.5 -7q-5 -35 -23 -60t-37 -38t-28 -13z" />
    <glyph glyph-name="Rcaron" unicode="&#x158;" horiz-adv-x="584" 
d="M471 -26q-28 0 -66.5 24t-81 62t-85.5 81.5t-80 82.5l-28 25q-4 -33 -6.5 -80.5t-2.5 -94.5q0 -25 3 -41.5t3 -15.5q0 -5 -2.5 -5.5t-3.5 -3.5q-2 -5 -8.5 -7.5t-13.5 -2.5q-11 0 -16.5 3t-5.5 13q0 24 3 65.5t8.5 93t12.5 105.5q-10 11 -17.5 20.5t-7.5 14.5q0 4 6 4
q6 -6 23 -6q6 46 14 94t16.5 92t15.5 75v2q0 4 -1.5 6.5t-1.5 6.5q0 6 3 20t5 21h-6q-10 0 -20.5 -1t-18.5 -1q-22 1 -22 8q0 10 24.5 13.5t48.5 3.5q4 19 19.5 30t41.5 11q16 0 16 -12q-5 -12 -7.5 -16.5t-6.5 -16.5q26 -2 61.5 -7.5t73 -15.5t69.5 -27.5t52 -43.5t20 -64
q0 -40 -23.5 -77t-57 -64.5t-64.5 -39.5q-46 -18 -89.5 -23.5t-75.5 -5.5h-11q-17 0 -17 -5t10 -15q35 -34 76.5 -76t85 -81.5t83.5 -66t72 -29.5q19 0 29.5 15.5t14.5 39.5t4 49q0 14 -1.5 25t-1.5 20q0 16 9 16q14 0 17 -20t3 -36q0 -51 -15 -82t-36.5 -45t-41.5 -14z
M204 303q14 0 28 0.5t24 1.5q29 3 63.5 16.5t65.5 36.5t51 54t20 69v12.5t-2 13.5q-10 30 -38 52t-65 36.5t-72.5 21.5t-60.5 7h-1q-7 -15 -16.5 -45.5t-19 -69.5t-18 -78t-14.5 -71.5t-8 -50.5q3 -3 22 -4.5t41 -1.5zM460.009 797.517q2.06055 0 1.03027 -1.03027
q-18.541 -18.54 -44.291 -39.1406q-25.751 -20.6006 -73.1328 -48.4111l-6.17969 -3.09082h-2.06055q-3.08984 0 -6.17969 3.09082q-32.9609 25.751 -50.4717 45.8359q-17.5107 20.0859 -32.9609 39.6562q-3.08984 3.08984 3.09082 3.08984q1.0293 0 2.05957 -1.03027
q19.5703 -14.4199 42.7461 -25.75t49.9561 -17.5107q25.751 7.20996 56.6523 21.6309q30.9004 14.4199 55.6211 21.6299q2.06055 1.03027 4.12012 1.03027z" />
    <glyph glyph-name="rcaron" unicode="&#x159;" horiz-adv-x="270" 
d="M15 -6q-6 0 -9 5q0 26 6.5 48.5t16.5 26.5q14 52 21 80.5t10 42.5t5 22.5t5 20.5q2 5 2 9v7q0 8 -2 9.5t-2 7.5q0 2 0.5 4.5t1.5 6.5q16 62 32 85.5t49 23.5q12 0 14 -8q-5 -14 -21.5 -52.5t-35 -89.5t-30.5 -103q8 15 25.5 44.5t41 64.5t50.5 66.5t52.5 52t46.5 20.5
q12 0 18 -8.5t6 -21.5t-6 -30t-17 -33q-7 -10 -20.5 -21t-21.5 -11q-6 0 -6 6q0 5 5 16.5t9.5 24t4.5 20.5q0 7 -5 7q-18 0 -45.5 -30t-58.5 -78.5t-58 -104t-43 -106.5q-6 -8 -19 -16t-22 -8zM223 434q-2 0 -5 3q-20 16 -36.5 39.5t-25.5 43t-7 24.5q2 3 3 3q2 0 3 -1
q14 -16 38 -36t39 -32q14 9 34.5 21.5l41 25t35.5 21.5q2 1 3 1q2 0 2 -2q0 -3 -17 -20.5t-43.5 -41t-55.5 -46.5q-4 -3 -7 -3h-2z" />
    <glyph glyph-name="Sacute" unicode="&#x15a;" horiz-adv-x="519" 
d="M149 -17q-47 0 -70.5 11t-31.5 27.5t-8 32.5v7q0 8 5 21.5t22 13.5q8 0 9 -12.5t9 -26.5q16 -26 41 -34t63 -8q33 0 70.5 11t70.5 31t53.5 48t20.5 63q0 32 -22.5 53t-58.5 37t-75.5 30.5t-75.5 34.5t-58.5 49t-22.5 73q0 43 24.5 82t67 69.5t96 48t111.5 17.5
q43 0 64 -15.5t28.5 -38t7.5 -45.5q0 -5 -3 -17t-9.5 -21.5t-15.5 -9.5q-7 0 -7 13v20q0 46 -27.5 61.5t-68.5 15.5q-27 0 -65.5 -9.5t-75.5 -29t-61.5 -47.5t-24.5 -66q0 -2 0.5 -4.5t0.5 -4.5q5 -42 30.5 -69.5t62.5 -45.5t77.5 -32t75.5 -29t57 -35.5t22 -53.5
q0 -39 -25 -77.5t-68 -70t-98.5 -50t-116.5 -18.5zM227.123 702.035q-3.08984 0 -3.08984 3.09082q0 6.17969 20.6006 23.6904t52.0166 41.2012t64.377 45.3213q5.14941 3.08984 9.26953 3.08984q9.27051 0 14.9355 -8.75488q5.66504 -8.75586 4.63477 -16.9961v-2.05957
q0 -7.20996 -7.20996 -11.3301q-13.3896 -8.24023 -41.2012 -22.1455q-27.8105 -13.9062 -57.6816 -28.3262q-29.8701 -14.4199 -51.501 -25.751q-2.06055 -1.03027 -5.15039 -1.03027z" />
    <glyph glyph-name="sacute" unicode="&#x15b;" horiz-adv-x="254" 
d="M32 -17q-8 0 -13 6.5t-5 13.5q0 12 11 12q12 0 36.5 5t51 13.5t45.5 20.5t19 26q0 13 -14.5 26.5t-35.5 27.5t-42.5 29t-36 31.5t-14.5 35.5q0 8 2.5 16t9.5 16q30 38 65.5 61.5t66.5 36t47 18.5q5 2 12 3.5t14 1.5q14 0 25 -8.5t11 -31.5q-1 -10 -8 -25.5t-17.5 -31.5
t-20.5 -26.5t-17 -10.5q-4 0 -4 6q0 9 5.5 23t11 27.5t5.5 21.5q0 15 -18 15q-7 0 -15.5 -1.5t-17.5 -3.5q-6 -1 -23 -8.5t-36 -19.5t-33 -27.5t-14 -33.5q0 -11 5 -20q12 -24 33 -37.5t42 -24t35.5 -23t14.5 -35.5q0 -24 -20 -46.5t-50.5 -40t-61 -28t-51.5 -10.5zM96 431
q-3 0 -3 3q0 6 20 23t50.5 40t62.5 44q5 3 9 3q9 0 14.5 -8.5t4.5 -16.5v-2q0 -7 -7 -11q-13 -8 -40 -21.5t-56 -27.5t-50 -25q-2 -1 -5 -1z" />
    <glyph glyph-name="Scedilla" unicode="&#x15e;" horiz-adv-x="519" 
d="M149 -17q-47 0 -70.5 11t-31.5 27.5t-8 32.5v7q0 8 5 21.5t22 13.5q8 0 9 -12.5t9 -26.5q16 -26 41 -34t63 -8q33 0 70.5 11t70.5 31t53.5 48t20.5 63q0 32 -22.5 53t-58.5 37t-75.5 30.5t-75.5 34.5t-58.5 49t-22.5 73q0 43 24.5 82t67 69.5t96 48t111.5 17.5
q43 0 64 -15.5t28.5 -38t7.5 -45.5q0 -5 -3 -17t-9.5 -21.5t-15.5 -9.5q-7 0 -7 13v20q0 46 -27.5 61.5t-68.5 15.5q-27 0 -65.5 -9.5t-75.5 -29t-61.5 -47.5t-24.5 -66q0 -2 0.5 -4.5t0.5 -4.5q5 -42 30.5 -69.5t62.5 -45.5t77.5 -32t75.5 -29t57 -35.5t22 -53.5
q0 -39 -25 -77.5t-68 -70t-98.5 -50t-116.5 -18.5zM64 -280q-4 0 -6.5 3.5t-2.5 7.5q0 9 11.5 11t29 3t35 5.5t29 17.5t11.5 40q0 15 -13 32.5t-26 36.5t-13 38q0 31 18 59t52 28q4 0 7.5 -1t4.5 -6q-22 -4 -34 -23t-12 -40q0 -14 14.5 -31t29 -37t14.5 -45q0 -35 -25.5 -57
t-60 -32t-63.5 -10z" />
    <glyph glyph-name="scedilla" unicode="&#x15f;" horiz-adv-x="254" 
d="M32 -17q-8 0 -13 6.5t-5 13.5q0 12 11 12q12 0 36.5 5t51 13.5t45.5 20.5t19 26q0 13 -14.5 26.5t-35.5 27.5t-42.5 29t-36 31.5t-14.5 35.5q0 8 2.5 16t9.5 16q30 38 65.5 61.5t66.5 36t47 18.5q5 2 12 3.5t14 1.5q14 0 25 -8.5t11 -31.5q-1 -10 -8 -25.5t-17.5 -31.5
t-20.5 -26.5t-17 -10.5q-4 0 -4 6q0 9 5.5 23t11 27.5t5.5 21.5q0 15 -18 15q-7 0 -15.5 -1.5t-17.5 -3.5q-6 -1 -23 -8.5t-36 -19.5t-33 -27.5t-14 -33.5q0 -11 5 -20q12 -24 33 -37.5t42 -24t35.5 -23t14.5 -35.5q0 -24 -20 -46.5t-50.5 -40t-61 -28t-51.5 -10.5z
M-56 -280q-4 0 -6.5 3.5t-2.5 7.5q0 9 11.5 11t29 3t35 5.5t29 17.5t11.5 40q0 15 -13 32.5t-26 36.5t-13 38q0 31 18 59t52 28q4 0 7.5 -1t4.5 -6q-22 -4 -34 -23t-12 -40q0 -14 14.5 -31t29 -37t14.5 -45q0 -35 -25.5 -57t-60 -32t-63.5 -10z" />
    <glyph glyph-name="Scaron" unicode="&#x160;" horiz-adv-x="519" 
d="M149 -17q-47 0 -70.5 11t-31.5 27.5t-8 32.5v7q0 8 5 21.5t22 13.5q8 0 9 -12.5t9 -26.5q16 -26 41 -34t63 -8q33 0 70.5 11t70.5 31t53.5 48t20.5 63q0 32 -22.5 53t-58.5 37t-75.5 30.5t-75.5 34.5t-58.5 49t-22.5 73q0 43 24.5 82t67 69.5t96 48t111.5 17.5
q43 0 64 -15.5t28.5 -38t7.5 -45.5q0 -5 -3 -17t-9.5 -21.5t-15.5 -9.5q-7 0 -7 13v20q0 46 -27.5 61.5t-68.5 15.5q-27 0 -65.5 -9.5t-75.5 -29t-61.5 -47.5t-24.5 -66q0 -2 0.5 -4.5t0.5 -4.5q5 -42 30.5 -69.5t62.5 -45.5t77.5 -32t75.5 -29t57 -35.5t22 -53.5
q0 -39 -25 -77.5t-68 -70t-98.5 -50t-116.5 -18.5zM433.009 797.517q2.06055 0 1.03027 -1.03027q-18.541 -18.54 -44.291 -39.1406q-25.751 -20.6006 -73.1328 -48.4111l-6.17969 -3.09082h-2.06055q-3.08984 0 -6.17969 3.09082q-32.9609 25.751 -50.4717 45.8359
q-17.5107 20.0859 -32.9609 39.6562q-3.08984 3.08984 3.09082 3.08984q1.0293 0 2.05957 -1.03027q19.5703 -14.4199 42.7461 -25.75t49.9561 -17.5107q25.751 7.20996 56.6523 21.6309q30.9004 14.4199 55.6211 21.6299q2.06055 1.03027 4.12012 1.03027z" />
    <glyph glyph-name="scaron" unicode="&#x161;" horiz-adv-x="254" 
d="M32 -17q-8 0 -13 6.5t-5 13.5q0 12 11 12q12 0 36.5 5t51 13.5t45.5 20.5t19 26q0 13 -14.5 26.5t-35.5 27.5t-42.5 29t-36 31.5t-14.5 35.5q0 8 2.5 16t9.5 16q30 38 65.5 61.5t66.5 36t47 18.5q5 2 12 3.5t14 1.5q14 0 25 -8.5t11 -31.5q-1 -10 -8 -25.5t-17.5 -31.5
t-20.5 -26.5t-17 -10.5q-4 0 -4 6q0 9 5.5 23t11 27.5t5.5 21.5q0 15 -18 15q-7 0 -15.5 -1.5t-17.5 -3.5q-6 -1 -23 -8.5t-36 -19.5t-33 -27.5t-14 -33.5q0 -11 5 -20q12 -24 33 -37.5t42 -24t35.5 -23t14.5 -35.5q0 -24 -20 -46.5t-50.5 -40t-61 -28t-51.5 -10.5zM174 432
q-2 0 -5 3q-20 16 -36.5 39.5t-25.5 43t-7 24.5q2 3 3 3q2 0 3 -1q14 -16 38 -36t39 -32q14 9 34.5 21.5l41 25t35.5 21.5q2 1 3 1q2 0 2 -2q0 -3 -17 -20.5t-43.5 -41t-55.5 -46.5q-4 -3 -7 -3h-2z" />
    <glyph glyph-name="uni0162" unicode="&#x162;" horiz-adv-x="614" 
d="M238 -8q-24 0 -24 22q13 139 23 267t35 260v30q0 11 3 24t7 23h-244q-10 0 -10 7t8.5 15.5t18.5 8.5h255q14 9 36 9q5 0 10 -1.5t6 -6.5q54 0 102 0.5t82 1t45 0.5q6 0 6 -6t-9 -15.5t-29 -12.5h-210q-17 -48 -31 -112t-24.5 -133t-17.5 -133.5t-10.5 -115.5t-3.5 -77
q2 -13 4.5 -16.5t2.5 -9.5q0 -14 -10 -21.5t-21 -7.5zM135 -260q-4 0 -6.5 3.5t-2.5 7.5q0 9 11.5 11t29 3t35 5.5t29 17.5t11.5 40q0 15 -13 32.5t-26 36.5t-13 38q0 31 18 59t52 28q4 0 7.5 -1t4.5 -6q-22 -4 -34 -23t-12 -40q0 -14 14.5 -31t29 -37t14.5 -45
q0 -35 -25.5 -57t-60 -32t-63.5 -10z" />
    <glyph glyph-name="uni0163" unicode="&#x163;" horiz-adv-x="231" 
d="M78 -8q-13 0 -18 8t-5 21q0 20 9 47.5t15 46.5q22 69 37.5 129t26.5 100q-4 -1 -27 -2.5t-40 -1.5q-23 0 -23 9q0 8 13.5 17t20.5 9h64l4 14q3 12 3 17q0 6 -2 8t-2 6q0 3 3 12q13 42 24 65t25 32t36 9q15 0 16 -9q-6 -13 -23 -54.5t-38 -99.5h97q28 0 28 -6t-14.5 -10
t-36.5 -6.5t-44.5 -3.5t-38.5 -1q-13 -38 -28.5 -86.5t-29.5 -97t-23 -86.5q-5 -20 -5 -29q0 -17 11 -17q13 0 28.5 10.5t30 25t26 25t15.5 10.5q5 0 5 -6t-3 -13t-8 -9q-8 -7 -24 -20.5t-35 -28t-37.5 -24.5t-32.5 -10zM-44 -280q-4 0 -6.5 3.5t-2.5 7.5q0 9 11.5 11t29 3
t35 5.5t29 17.5t11.5 40q0 15 -13 32.5t-26 36.5t-13 38q0 31 18 59t52 28q4 0 7.5 -1t4.5 -6q-22 -4 -34 -23t-12 -40q0 -14 14.5 -31t29 -37t14.5 -45q0 -35 -25.5 -57t-60 -32t-63.5 -10z" />
    <glyph glyph-name="Tcaron" unicode="&#x164;" horiz-adv-x="614" 
d="M238 -8q-24 0 -24 22q13 139 23 267t35 260v30q0 11 3 24t7 23h-244q-10 0 -10 7t8.5 15.5t18.5 8.5h255q14 9 36 9q5 0 10 -1.5t6 -6.5q54 0 102 0.5t82 1t45 0.5q6 0 6 -6t-9 -15.5t-29 -12.5h-210q-17 -48 -31 -112t-24.5 -133t-17.5 -133.5t-10.5 -115.5t-3.5 -77
q2 -13 4.5 -16.5t2.5 -9.5q0 -14 -10 -21.5t-21 -7.5zM433.009 797.517q2.06055 0 1.03027 -1.03027q-18.541 -18.54 -44.291 -39.1406q-25.751 -20.6006 -73.1328 -48.4111l-6.17969 -3.09082h-2.06055q-3.08984 0 -6.17969 3.09082q-32.9609 25.751 -50.4717 45.8359
q-17.5107 20.0859 -32.9609 39.6562q-3.08984 3.08984 3.09082 3.08984q1.0293 0 2.05957 -1.03027q19.5703 -14.4199 42.7461 -25.75t49.9561 -17.5107q25.751 7.20996 56.6523 21.6309q30.9004 14.4199 55.6211 21.6299q2.06055 1.03027 4.12012 1.03027z" />
    <glyph glyph-name="tcaron" unicode="&#x165;" horiz-adv-x="231" 
d="M78 -8q-13 0 -18 8t-5 21q0 20 9 47.5t15 46.5q22 69 37.5 129t26.5 100q-4 -1 -27 -2.5t-40 -1.5q-23 0 -23 9q0 8 13.5 17t20.5 9h64l4 14q3 12 3 17q0 6 -2 8t-2 6q0 3 3 12q13 42 24 65t25 32t36 9q15 0 16 -9q-6 -13 -23 -54.5t-38 -99.5h97q28 0 28 -6t-14.5 -10
t-36.5 -6.5t-44.5 -3.5t-38.5 -1q-13 -38 -28.5 -86.5t-29.5 -97t-23 -86.5q-5 -20 -5 -29q0 -17 11 -17q13 0 28.5 10.5t30 25t26 25t15.5 10.5q5 0 5 -6t-3 -13t-8 -9q-8 -7 -24 -20.5t-35 -28t-37.5 -24.5t-32.5 -10zM295 412q-1 0 -1 3q0 11 1.5 18.5t4.5 15.5
q10 24 17.5 43.5t14.5 42.5q-1 -1 -4 -2.5t-5 -1.5q-4 0 -3 7q2 5 13.5 18t30.5 14h2q11 0 6 -9q1 -1 -0.5 -3t-2.5 -4q0 -4 -1.5 -9t-3.5 -11q-4 -11 -14 -31t-21.5 -40.5t-21 -35.5t-12.5 -15z" />
    <glyph glyph-name="Tbar" unicode="&#x166;" horiz-adv-x="614" 
d="M238 -8q-24 0 -24 22q13 139 23 267t35 260v30q0 11 3 24t7 23h-244q-10 0 -10 7t8.5 15.5t18.5 8.5h255q14 9 36 9q5 0 10 -1.5t6 -6.5q54 0 102 0.5t82 1t45 0.5q6 0 6 -6t-9 -15.5t-29 -12.5h-210q-17 -48 -31 -112t-24.5 -133t-17.5 -133.5t-10.5 -115.5t-3.5 -77
q2 -13 4.5 -16.5t2.5 -9.5q0 -14 -10 -21.5t-21 -7.5zM198.184 492q-17.0332 0 -23.7246 2q-6.69238 2 -6.69238 4q0 7 15.8174 11.5q15.8164 4.5 37.7168 7.5t40.1504 3q23.1162 0 57.1836 -2q34.0664 -2 60.834 -6q26.7666 -4 26.7666 -10q0 -5 -13.9922 -7.5
q-13.9912 -2.5 -17.6416 -2.5h-176.418z" />
    <glyph glyph-name="tbar" unicode="&#x167;" horiz-adv-x="231" 
d="M78 -8q-13 0 -18 8t-5 21q0 20 9 47.5t15 46.5q22 69 37.5 129t26.5 100q-4 -1 -27 -2.5t-40 -1.5q-23 0 -23 9q0 8 13.5 17t20.5 9h64l4 14q3 12 3 17q0 6 -2 8t-2 6q0 3 3 12q13 42 24 65t25 32t36 9q15 0 16 -9q-6 -13 -23 -54.5t-38 -99.5h97q28 0 28 -6t-14.5 -10
t-36.5 -6.5t-44.5 -3.5t-38.5 -1q-13 -38 -28.5 -86.5t-29.5 -97t-23 -86.5q-5 -20 -5 -29q0 -17 11 -17q13 0 28.5 10.5t30 25t26 25t15.5 10.5q5 0 5 -6t-3 -13t-8 -9q-8 -7 -24 -20.5t-35 -28t-37.5 -24.5t-32.5 -10zM68 261q-14 0 -19.5 2t-5.5 4q0 7 13 11.5t31 7.5
t33 3q19 0 47 -2t50 -6t22 -10q0 -5 -11.5 -7.5t-14.5 -2.5h-145z" />
    <glyph glyph-name="Utilde" unicode="&#x168;" horiz-adv-x="646" 
d="M478 -8q-24 0 -24 22q8 86 15.5 168.5t17.5 162.5q-52 -101 -102.5 -168t-95.5 -106t-80.5 -55.5t-57.5 -16.5q-34 0 -55 26t-30.5 70t-9.5 98q0 58 8.5 121.5t23 123.5t31.5 109q-6 2 -6 11q0 13 8.5 33t19 37.5t16.5 22.5q11 8 21.5 11.5t19.5 3.5q12 0 19.5 -5
t7.5 -12q0 -5 -4 -9q-20 -18 -37.5 -58t-31.5 -89t-23.5 -95.5t-12.5 -77.5q-4 -39 -7.5 -74t-3.5 -66q0 -64 15.5 -102.5t54.5 -38.5q32 0 81.5 39t121.5 136q41 55 71.5 115t48 117t17.5 101v22q0 33 17 60.5t58 27.5q15 0 15 -10v-2q-20 -47 -36.5 -110t-29 -131.5
t-20.5 -133.5t-12 -117t-4 -81q8 -11 8 -29q0 -51 -33 -51zM421.089 702.359q-16.7998 0 -33.1055 7.00586q-16.3057 7.00488 -32.1172 13.5098q-15.8115 6.50391 -32.6113 6.50391q-14.8232 0 -24.2109 -6.50391q-9.3877 -6.50488 -15.8115 -13.0098t-13.3408 -6.50488
q-1.97656 0 -1.97656 2.00098q0 5.00391 8.89355 14.0107q8.89453 9.00684 19.2705 17.0127t14.3291 10.0068q15.8115 10.0078 35.5762 10.0078q24.7051 0 47.4346 -10.5078t46.4463 -10.5078q13.835 0 23.7178 5.50391q9.88184 5.50391 17.7871 15.5117
q5.92969 0 5.92969 -4.00293q0 -15.0117 -15.3174 -26.0195t-31.1289 -17.5127t-19.7646 -6.50488z" />
    <glyph glyph-name="utilde" unicode="&#x169;" horiz-adv-x="333" 
d="M170 -63q-13 0 -13 11q0 10 15 20.5t22 26.5q3 8 12 38.5t20.5 70t21 75.5t14.5 55q-11 -17 -33.5 -46.5t-50.5 -63t-57.5 -64t-55.5 -50t-44 -19.5q-14 0 -14 18q0 15 11 43q6 14 18.5 41t26 58.5t23 59t9.5 42.5q0 7 -2 9.5t-2 7.5q0 2 0.5 4.5t1.5 6.5q11 41 20.5 64
t23.5 32t38 9q14 0 17 -9q-4 -10 -17 -41.5t-30.5 -74t-34 -84t-27.5 -72t-11 -37.5q0 -4 3 -4q4 0 10.5 5t13.5 11q59 45 102 101.5t74 114.5q1 15 7.5 38t22.5 41t42 18q11 0 12 -9q-5 -16 -20.5 -57t-32.5 -89q-8 -24 -18 -56.5t-19.5 -65.5t-15.5 -58t-6 -33q0 -3 2 -3
q9 1 24.5 13t32.5 24.5t28 12.5q2 0 5 -1t3 -4q0 -6 -14 -17t-33.5 -23t-36 -22t-22.5 -14q-10 -8 -21.5 -21t-22.5 -23t-22 -10zM294.089 425.359q-16.7998 0 -33.1055 7.00586q-16.3057 7.00488 -32.1172 13.5098q-15.8115 6.50391 -32.6113 6.50391
q-14.8232 0 -24.2109 -6.50391q-9.3877 -6.50488 -15.8115 -13.0098t-13.3408 -6.50488q-1.97656 0 -1.97656 2.00098q0 5.00391 8.89355 14.0107q8.89453 9.00684 19.2705 17.0127t14.3291 10.0068q15.8115 10.0078 35.5762 10.0078q24.7051 0 47.4346 -10.5078
t46.4463 -10.5078q13.835 0 23.7178 5.50391q9.88184 5.50391 17.7871 15.5117q5.92969 0 5.92969 -4.00293q0 -15.0117 -15.3174 -26.0195t-31.1289 -17.5127t-19.7646 -6.50488z" />
    <glyph glyph-name="Umacron" unicode="&#x16a;" horiz-adv-x="646" 
d="M478 -8q-24 0 -24 22q8 86 15.5 168.5t17.5 162.5q-52 -101 -102.5 -168t-95.5 -106t-80.5 -55.5t-57.5 -16.5q-34 0 -55 26t-30.5 70t-9.5 98q0 58 8.5 121.5t23 123.5t31.5 109q-6 2 -6 11q0 13 8.5 33t19 37.5t16.5 22.5q11 8 21.5 11.5t19.5 3.5q12 0 19.5 -5
t7.5 -12q0 -5 -4 -9q-20 -18 -37.5 -58t-31.5 -89t-23.5 -95.5t-12.5 -77.5q-4 -39 -7.5 -74t-3.5 -66q0 -64 15.5 -102.5t54.5 -38.5q32 0 81.5 39t121.5 136q41 55 71.5 115t48 117t17.5 101v22q0 33 17 60.5t58 27.5q15 0 15 -10v-2q-20 -47 -36.5 -110t-29 -131.5
t-20.5 -133.5t-12 -117t-4 -81q8 -11 8 -29q0 -51 -33 -51zM305 719q-14 0 -19.5 2t-5.5 4q0 7 13 11.5t31 7.5t33 3q19 0 47 -2t50 -6t22 -10q0 -5 -11.5 -7.5t-14.5 -2.5h-145z" />
    <glyph glyph-name="umacron" unicode="&#x16b;" horiz-adv-x="333" 
d="M170 -63q-13 0 -13 11q0 10 15 20.5t22 26.5q3 8 12 38.5t20.5 70t21 75.5t14.5 55q-11 -17 -33.5 -46.5t-50.5 -63t-57.5 -64t-55.5 -50t-44 -19.5q-14 0 -14 18q0 15 11 43q6 14 18.5 41t26 58.5t23 59t9.5 42.5q0 7 -2 9.5t-2 7.5q0 2 0.5 4.5t1.5 6.5q11 41 20.5 64
t23.5 32t38 9q14 0 17 -9q-4 -10 -17 -41.5t-30.5 -74t-34 -84t-27.5 -72t-11 -37.5q0 -4 3 -4q4 0 10.5 5t13.5 11q59 45 102 101.5t74 114.5q1 15 7.5 38t22.5 41t42 18q11 0 12 -9q-5 -16 -20.5 -57t-32.5 -89q-8 -24 -18 -56.5t-19.5 -65.5t-15.5 -58t-6 -33q0 -3 2 -3
q9 1 24.5 13t32.5 24.5t28 12.5q2 0 5 -1t3 -4q0 -6 -14 -17t-33.5 -23t-36 -22t-22.5 -14q-10 -8 -21.5 -21t-22.5 -23t-22 -10zM178 442q-14 0 -19.5 2t-5.5 4q0 7 13 11.5t31 7.5t33 3q19 0 47 -2t50 -6t22 -10q0 -5 -11.5 -7.5t-14.5 -2.5h-145z" />
    <glyph glyph-name="Uring" unicode="&#x16e;" horiz-adv-x="646" 
d="M478 -8q-24 0 -24 22q8 86 15.5 168.5t17.5 162.5q-52 -101 -102.5 -168t-95.5 -106t-80.5 -55.5t-57.5 -16.5q-34 0 -55 26t-30.5 70t-9.5 98q0 58 8.5 121.5t23 123.5t31.5 109q-6 2 -6 11q0 13 8.5 33t19 37.5t16.5 22.5q11 8 21.5 11.5t19.5 3.5q12 0 19.5 -5
t7.5 -12q0 -5 -4 -9q-20 -18 -37.5 -58t-31.5 -89t-23.5 -95.5t-12.5 -77.5q-4 -39 -7.5 -74t-3.5 -66q0 -64 15.5 -102.5t54.5 -38.5q32 0 81.5 39t121.5 136q41 55 71.5 115t48 117t17.5 101v22q0 33 17 60.5t58 27.5q15 0 15 -10v-2q-20 -47 -36.5 -110t-29 -131.5
t-20.5 -133.5t-12 -117t-4 -81q8 -11 8 -29q0 -51 -33 -51zM379 715q-22 0 -37.5 11t-15.5 29q0 16 16.5 36.5t41.5 36t51 15.5t41 -16t15 -36q0 -38 -32.5 -57t-79.5 -19zM394 735q29 0 45 13t16 43q0 36 -28 36q-13 0 -28 -10.5t-26 -25t-11 -26.5q0 -30 32 -30z" />
    <glyph glyph-name="uring" unicode="&#x16f;" horiz-adv-x="333" 
d="M170 -63q-13 0 -13 11q0 10 15 20.5t22 26.5q3 8 12 38.5t20.5 70t21 75.5t14.5 55q-11 -17 -33.5 -46.5t-50.5 -63t-57.5 -64t-55.5 -50t-44 -19.5q-14 0 -14 18q0 15 11 43q6 14 18.5 41t26 58.5t23 59t9.5 42.5q0 7 -2 9.5t-2 7.5q0 2 0.5 4.5t1.5 6.5q11 41 20.5 64
t23.5 32t38 9q14 0 17 -9q-4 -10 -17 -41.5t-30.5 -74t-34 -84t-27.5 -72t-11 -37.5q0 -4 3 -4q4 0 10.5 5t13.5 11q59 45 102 101.5t74 114.5q1 15 7.5 38t22.5 41t42 18q11 0 12 -9q-5 -16 -20.5 -57t-32.5 -89q-8 -24 -18 -56.5t-19.5 -65.5t-15.5 -58t-6 -33q0 -3 2 -3
q9 1 24.5 13t32.5 24.5t28 12.5q2 0 5 -1t3 -4q0 -6 -14 -17t-33.5 -23t-36 -22t-22.5 -14q-10 -8 -21.5 -21t-22.5 -23t-22 -10zM252 440q-22 0 -37.5 11t-15.5 29q0 28 18 54t45 42.5t53 16.5t41 -16t15 -36q0 -25 -17 -48.5t-44 -38t-58 -14.5zM267 460q29 0 48.5 25.5
t19.5 55.5q0 36 -28 36q-13 0 -30 -11.5t-29.5 -31.5t-12.5 -44q0 -30 32 -30z" />
    <glyph glyph-name="Uhungarumlaut" unicode="&#x170;" horiz-adv-x="646" 
d="M478 -8q-24 0 -24 22q8 86 15.5 168.5t17.5 162.5q-52 -101 -102.5 -168t-95.5 -106t-80.5 -55.5t-57.5 -16.5q-34 0 -55 26t-30.5 70t-9.5 98q0 58 8.5 121.5t23 123.5t31.5 109q-6 2 -6 11q0 13 8.5 33t19 37.5t16.5 22.5q11 8 21.5 11.5t19.5 3.5q12 0 19.5 -5
t7.5 -12q0 -5 -4 -9q-20 -18 -37.5 -58t-31.5 -89t-23.5 -95.5t-12.5 -77.5q-4 -39 -7.5 -74t-3.5 -66q0 -64 15.5 -102.5t54.5 -38.5q32 0 81.5 39t121.5 136q41 55 71.5 115t48 117t17.5 101v22q0 33 17 60.5t58 27.5q15 0 15 -10v-2q-20 -47 -36.5 -110t-29 -131.5
t-20.5 -133.5t-12 -117t-4 -81q8 -11 8 -29q0 -51 -33 -51zM441 714q-5 0 -5 13q0 7 3 14q4 10 10 31.5t15 40.5t20 19t19.5 -8t8.5 -17q0 -3 -2 -7q-3 -6 -12.5 -20t-21 -29.5t-21.5 -26t-14 -10.5zM316 714q-5 0 -5 12q0 8 3 15q4 10 10 31.5t15 40.5t20 19t19.5 -8
t8.5 -17q0 -3 -2 -7q-3 -7 -12.5 -21t-21 -29t-21 -25.5t-14.5 -10.5z" />
    <glyph glyph-name="uhungarumlaut" unicode="&#x171;" horiz-adv-x="333" 
d="M170 -63q-13 0 -13 11q0 10 15 20.5t22 26.5q3 8 12 38.5t20.5 70t21 75.5t14.5 55q-11 -17 -33.5 -46.5t-50.5 -63t-57.5 -64t-55.5 -50t-44 -19.5q-14 0 -14 18q0 15 11 43q6 14 18.5 41t26 58.5t23 59t9.5 42.5q0 7 -2 9.5t-2 7.5q0 2 0.5 4.5t1.5 6.5q11 41 20.5 64
t23.5 32t38 9q14 0 17 -9q-4 -10 -17 -41.5t-30.5 -74t-34 -84t-27.5 -72t-11 -37.5q0 -4 3 -4q4 0 10.5 5t13.5 11q59 45 102 101.5t74 114.5q1 15 7.5 38t22.5 41t42 18q11 0 12 -9q-5 -16 -20.5 -57t-32.5 -89q-8 -24 -18 -56.5t-19.5 -65.5t-15.5 -58t-6 -33q0 -3 2 -3
q9 1 24.5 13t32.5 24.5t28 12.5q2 0 5 -1t3 -4q0 -6 -14 -17t-33.5 -23t-36 -22t-22.5 -14q-10 -8 -21.5 -21t-22.5 -23t-22 -10zM312 428q-5 0 -5 12q0 7 3 14t10 27.5t16 44t19 40.5t18 17q10 0 18.5 -7.5t8.5 -16.5q0 -3 -2 -7q-3 -6 -15 -25.5t-27 -42.5t-27.5 -39.5
t-16.5 -16.5zM191 428q-5 0 -5 11q0 8 3 15t9.5 27.5t16 44t19 40.5t18.5 17q10 0 18.5 -7.5t8.5 -16.5q0 -3 -2 -7q-3 -6 -15 -26t-27 -42.5t-27.5 -39t-16.5 -16.5z" />
    <glyph glyph-name="Uogonek" unicode="&#x172;" horiz-adv-x="646" 
d="M478 -8q-24 0 -24 22q8 86 15.5 168.5t17.5 162.5q-52 -101 -102.5 -168t-95.5 -106t-80.5 -55.5t-57.5 -16.5q-34 0 -55 26t-30.5 70t-9.5 98q0 58 8.5 121.5t23 123.5t31.5 109q-6 2 -6 11q0 13 8.5 33t19 37.5t16.5 22.5q11 8 21.5 11.5t19.5 3.5q12 0 19.5 -5
t7.5 -12q0 -5 -4 -9q-20 -18 -37.5 -58t-31.5 -89t-23.5 -95.5t-12.5 -77.5q-4 -39 -7.5 -74t-3.5 -66q0 -64 15.5 -102.5t54.5 -38.5q32 0 81.5 39t121.5 136q41 55 71.5 115t48 117t17.5 101v22q0 33 17 60.5t58 27.5q15 0 15 -10v-2q-20 -47 -36.5 -110t-29 -131.5
t-20.5 -133.5t-12 -117t-4 -81q8 -11 8 -29q0 -51 -33 -51zM484 -151q-31 0 -48.5 9.5t-17.5 32.5q0 10 5 28.5t13.5 38t19 34t22.5 17.5q3 1 7 1q5 0 8 -4q-11 -16 -23.5 -42t-12.5 -46q0 -41 38 -41q14 0 30 6t29 11.5t16 5.5q11 0 11 -9q0 -11 -12.5 -19t-29.5 -13
t-32.5 -7.5t-22.5 -2.5z" />
    <glyph glyph-name="uogonek" unicode="&#x173;" horiz-adv-x="333" 
d="M170 -63q-13 0 -13 11q0 10 15 20.5t22 26.5q3 8 12 38.5t20.5 70t21 75.5t14.5 55q-11 -17 -33.5 -46.5t-50.5 -63t-57.5 -64t-55.5 -50t-44 -19.5q-14 0 -14 18q0 15 11 43q6 14 18.5 41t26 58.5t23 59t9.5 42.5q0 7 -2 9.5t-2 7.5q0 2 0.5 4.5t1.5 6.5q11 41 20.5 64
t23.5 32t38 9q14 0 17 -9q-4 -10 -17 -41.5t-30.5 -74t-34 -84t-27.5 -72t-11 -37.5q0 -4 3 -4q4 0 10.5 5t13.5 11q59 45 102 101.5t74 114.5q1 15 7.5 38t22.5 41t42 18q11 0 12 -9q-5 -16 -20.5 -57t-32.5 -89q-8 -24 -18 -56.5t-19.5 -65.5t-15.5 -58t-6 -33q0 -3 2 -3
q9 1 24.5 13t32.5 24.5t28 12.5q2 0 5 -1t3 -4q0 -6 -14 -17t-33.5 -23t-36 -22t-22.5 -14q-10 -8 -21.5 -21t-22.5 -23t-22 -10zM188 -200q-31 0 -48.5 9.5t-17.5 32.5q0 10 5 28.5t13.5 38t19 34t22.5 17.5q3 1 7 1q5 0 8 -4q-11 -16 -23.5 -42t-12.5 -46q0 -41 38 -41
q14 0 30 6t29 11.5t16 5.5q11 0 11 -9q0 -11 -12.5 -19t-29.5 -13t-32.5 -7.5t-22.5 -2.5z" />
    </font>
</defs>
</svg>
